<svg xmlns="http://www.w3.org/2000/svg" viewBox="0 0 3250 3000" width="3250" height="3000"><g transform="translate(2343.0 1175.0) rotate(0.0 206.5 393.0) scale(0.9989647532339367 0.9989844928628532)"><svg width="413.428" height="786.799" viewBox="0 0 413.428 786.799"><path d="M205.053 276.143s50.595-145.083 69.82-190.664c19.226-45.581 62.659-94.098 105.634-80.721 42.974 13.377 30.55 90.397 21.548 121.347-12.182 41.881-71.486 189.443-71.486 189.443l-125.516-39.406z" fill="#fbb348"/><ellipse cx="337.046" cy="101.294" fill="#e79f33" rx="52.012" ry="17.636" transform="matrix(.96796384 -.25108963 .25108963 .96796384 -14.636 87.871)"/><ellipse cx="313.688" cy="181.588" fill="#e79f33" rx="52.012" ry="17.608" transform="matrix(.96796384 -.25108963 .25108963 .96796384 -35.545 84.579)"/><path d="M330.568 318.049c-.248 0-.5-.038-.749-.116l-125.516-39.405a2.502 2.502 0 0 1-1.611-3.208c.506-1.451 50.841-145.68 69.877-190.813 10.455-24.786 26.703-47.89 44.577-63.387 21.49-18.63 43.655-25.115 64.104-18.749 43.082 13.41 34.018 87.257 23.205 124.432-12.076 41.521-70.974 188.2-71.567 189.678a2.5 2.5 0 0 1-2.319 1.568zM208.264 274.53l120.845 37.939c7.35-18.35 59.336-148.525 70.545-187.063 4.874-16.758 9.698-43.015 8.62-66.45-1.329-28.904-10.922-46.336-28.511-51.812-39.691-12.35-82.48 31.639-102.587 79.306-17.611 41.753-62.188 168.859-68.912 188.08z" fill="#111"/><path d="M385.664 266.717 191.99 784.299 2.5 714.053 196.33 195.87l35.501 45.484 59.796-11.743 32.063 46.116z" fill="#cad5f3"/><path d="M191.99 786.8c-.289 0-.582-.051-.869-.157L1.631 716.396a2.501 2.501 0 0 1-1.472-3.22l193.829-518.182a2.502 2.502 0 0 1 4.313-.662l34.556 44.273 58.289-11.448a2.506 2.506 0 0 1 2.534 1.026l31.18 44.847 60.445-8.787a2.5 2.5 0 0 1 2.702 3.349L194.332 785.175a2.502 2.502 0 0 1-2.342 1.625zM5.72 712.579l184.803 68.509 191.319-511.289-57.793 8.401a2.491 2.491 0 0 1-2.412-1.047l-31.13-44.775-58.194 11.43a2.506 2.506 0 0 1-2.452-.915l-32.753-41.964z" fill="#111"/></svg></g><g transform="translate(2324.0 1761.0) rotate(0.0 106.0 100.0) scale(1.2378044152249945 1.2317925661318634)"><svg width="171.271" height="162.365" viewBox="0 0 171.271 162.365"><path data-name="А это просто заглушка, ее не надо загружать в мк" style="fill:#cad5f3" d="M171.271 162.365 51.323 0 0 162.365h171.271z"/></svg></g><g transform="translate(1914.0 1399.0) rotate(0.0 218.5 281.0) scale(0.9985033873713314 0.9998505561446333)"><svg width="437.655" height="562.084" viewBox="0 0 437.655 562.084"><path d="M393.847 149.514 278.108 65.592V20.214c0-9.784-7.931-17.714-17.714-17.714h-83.13c-9.784 0-17.714 7.931-17.714 17.714v45.377L43.809 149.514c-29.982 21.74-45.498 58.267-40.327 94.939l44.435 315.132h341.821l44.435-315.132c5.172-36.672-10.344-73.199-40.326-94.939zm-7.516 94.069c-1.257 22.7-3.473 82.665-6.461 101.28-4.282 26.675-39.19 28.322-41.825 0-2.12-22.786-7.245-74.1-7.245-102.421 0-33.088 57.588-36.029 55.531 1.141z" fill="#fff"/><path d="M278.107 20.214c0-9.784-7.931-17.714-17.714-17.714h-83.13c-9.784 0-17.714 7.931-17.714 17.714V43.39h118.559V20.214z" fill="#92acef"/><path d="M389.738 562.084H47.917a2.5 2.5 0 0 1-2.476-2.151L1.006 244.801c-5.313-37.683 10.525-74.97 41.335-97.311l114.707-83.175V20.214C157.048 9.069 166.117 0 177.263 0h83.13c11.146 0 20.214 9.068 20.214 20.214v44.102l114.707 83.174c30.811 22.341 46.648 59.629 41.334 97.313l-44.435 315.131a2.5 2.5 0 0 1-2.476 2.151zm-339.649-5h337.477l44.131-312.98c5.056-35.846-10.011-71.315-39.318-92.565L276.64 67.616a2.504 2.504 0 0 1-1.032-2.024V20.214c0-8.389-6.825-15.214-15.214-15.214h-83.13c-8.39 0-15.215 6.825-15.215 15.214v45.377c0 .801-.384 1.554-1.032 2.024l-115.74 83.922C15.969 172.789.903 208.258 5.958 244.104z" fill="#111"/><path d="M244.089 452.351H91.677c-6.015 0-11.092-4.56-11.857-10.648l-16.667-132.71c-.916-7.293 4.652-13.75 11.857-13.75h168.889c6.595 0 11.944 5.451 11.954 12.181l.19 132.71c.01 6.744-5.345 12.217-11.954 12.217z" fill="#cad5f3"/><g fill="#111"><path d="M357.89 367.991c-.243 0-.484-.004-.726-.012-9.015-.3-20.083-6.473-21.609-22.885l-.688-7.334c-2.457-26.035-6.567-69.609-6.567-95.319 0-10.322 5.092-18.823 14.338-23.937 10.588-5.857 24.688-5.739 34.292.289 8.273 5.192 12.499 14.045 11.896 24.927-.285 5.148-.617 12.172-1.002 20.305-1.331 28.153-3.155 66.711-5.485 81.234-2.523 15.722-14.293 22.731-24.448 22.731zm1.965-148.832c-5.103 0-10.311 1.239-14.798 3.721-7.582 4.193-11.758 11.141-11.758 19.562 0 25.475 4.258 70.604 6.545 94.85l.689 7.341c1.226 13.174 9.814 18.118 16.797 18.351.187.006.374.009.563.009 8.07 0 17.452-5.714 19.508-18.524 2.287-14.246 4.103-52.642 5.429-80.678.385-8.144.718-15.176 1.004-20.344.637-11.515-4.849-17.458-9.563-20.416-4.107-2.578-9.207-3.87-14.416-3.87zM289.633 45.891H146.705a2.5 2.5 0 1 1 0-5h142.929a2.5 2.5 0 1 1 0 5zm-45.544 408.96H91.676c-7.254 0-13.418-5.519-14.337-12.837l-16.667-132.71a14.856 14.856 0 0 1 3.58-11.68 14.36 14.36 0 0 1 10.757-4.882h168.89c7.958 0 14.442 6.585 14.454 14.678l.19 132.71c.006 3.978-1.525 7.704-4.313 10.495-2.721 2.725-6.322 4.226-10.142 4.226zM75.009 297.743c-2.704 0-5.193 1.133-7.008 3.189a9.857 9.857 0 0 0-2.368 7.749L82.3 441.391c.605 4.823 4.637 8.46 9.376 8.46h152.413c2.482 0 4.827-.979 6.604-2.758 1.842-1.846 2.854-4.315 2.851-6.955l-.19-132.71c-.008-5.341-4.249-9.686-9.454-9.686H75.009z"/></g></svg></g><g transform="translate(2203.0 1615.0) rotate(0.0 147.5 173.0) scale(0.9945619376089383 0.9963371651040107)"><svg width="296.613" height="347.272" viewBox="0 0 296.613 347.272"><path d="M267.491 2.5H29.122l26.622 176.25v166.022h238.369V178.75z" fill="#ff6996"/><path d="M294.113 347.272H55.744a2.5 2.5 0 0 1-2.5-2.5V178.937L26.65 2.873a2.503 2.503 0 0 1 .576-2.004A2.502 2.502 0 0 1 29.122 0h238.369a2.5 2.5 0 0 1 2.472 2.127l26.622 176.25c.019.123.028.248.028.373v166.022a2.5 2.5 0 0 1-2.5 2.5zm-235.869-5h233.369V178.937L265.34 5H32.028l26.188 173.377c.019.123.028.248.028.373z" fill="#111"/><path d="M29.122 2.5 2.5 178.75v166.022h238.369V178.75L267.491 2.5z" fill="#ff6996"/><g fill="#111"><path d="M240.869 347.272H2.5a2.5 2.5 0 0 1-2.5-2.5V178.75c0-.125.01-.25.028-.373L26.65 2.127A2.5 2.5 0 0 1 29.122 0h238.369a2.496 2.496 0 0 1 2.472 2.873l-26.594 176.064v165.835a2.5 2.5 0 0 1-2.5 2.5zM5 342.272h233.369V178.75c0-.125.01-.25.028-.373L264.585 5H31.272L5 178.937z"/><path d="M257.938 68.24h-91.684a2.5 2.5 0 1 1 0-5h91.684a2.5 2.5 0 1 1 0 5zm-155.805 0H19.57a2.5 2.5 0 1 1 0-5h82.563a2.5 2.5 0 1 1 0 5z"/><path d="M134.194 100.4c-18.975 0-34.479-15.48-34.561-34.509a2.5 2.5 0 0 1 2.489-2.511h.011a2.5 2.5 0 0 1 2.5 2.489c.07 16.283 13.331 29.53 29.561 29.53s29.561-13.306 29.561-29.66a2.5 2.5 0 1 1 5 0c0 19.111-15.504 34.66-34.561 34.66z"/></g></svg></g><g transform="translate(1679.0 1320.0) rotate(0.0 521.0 677.5) scale(0.9996277777564593 0.9998066794464835)"><svg width="1042.388" height="1355.262" viewBox="0 0 1042.388 1355.262"><g fill="#111"><path d="M938.043 424.981H251.931a2.5 2.5 0 1 1 0-5h686.112a2.5 2.5 0 1 1 0 5z"/><path d="M592.743 643.649a2.5 2.5 0 0 1-2.5-2.5V192.308a2.5 2.5 0 1 1 5 0v448.841a2.5 2.5 0 0 1-2.5 2.5zm-234.969 534.238a2.5 2.5 0 0 1-2.473-2.151L204.542 106.553c-4.337-30.754-31.028-53.946-62.087-53.946H50.106a2.5 2.5 0 1 1 0-5h92.349c33.535 0 62.355 25.041 67.038 58.249l150.76 1069.183a2.5 2.5 0 0 1-2.479 2.848z"/><path d="M188.012 1256.735a2.5 2.5 0 0 1-2.004-3.992l21.863-29.382c23.521-31.612 61.073-50.474 100.471-50.474h.149l547.006.654c34.494.042 62.768 28.138 63.024 62.632a2.501 2.501 0 0 1-2.481 2.519h-.019a2.5 2.5 0 0 1-2.5-2.481c-.236-31.761-26.27-57.631-58.03-57.669l-547.006-.654h-.144c-37.827 0-73.876 18.106-96.459 48.458l-21.863 29.382a2.498 2.498 0 0 1-2.008 1.008z"/></g><path d="M161.731 1229.707c-33.98 0-61.527 27.547-61.527 61.527s27.547 61.527 61.527 61.527 61.527-27.547 61.527-61.527-27.547-61.527-61.527-61.527zm0 94.799c-18.376 0-33.272-14.896-33.272-33.272s14.896-33.272 33.272-33.272 33.272 14.896 33.272 33.272-14.896 33.272-33.272 33.272zm753.693-94.799c-33.98 0-61.527 27.547-61.527 61.527s27.547 61.527 61.527 61.527 61.527-27.547 61.527-61.527-27.547-61.527-61.527-61.527zm.914 94.799c-18.376 0-33.272-14.896-33.272-33.272s14.896-33.272 33.272-33.272 33.272 14.896 33.272 33.272-14.896 33.272-33.272 33.272z" fill="#6f5490"/><path d="M161.73 1355.262c-35.305 0-64.026-28.723-64.026-64.027s28.722-64.027 64.026-64.027 64.027 28.723 64.027 64.027-28.723 64.027-64.027 64.027zm0-123.055c-32.547 0-59.026 26.479-59.026 59.027s26.479 59.027 59.026 59.027 59.027-26.479 59.027-59.027-26.479-59.027-59.027-59.027zm753.694 123.055c-35.305 0-64.027-28.723-64.027-64.027s28.723-64.027 64.027-64.027 64.027 28.723 64.027 64.027-28.723 64.027-64.027 64.027zm0-123.055c-32.548 0-59.027 26.479-59.027 59.027s26.479 59.027 59.027 59.027 59.027-26.479 59.027-59.027-26.479-59.027-59.027-59.027zm-59.985-588.558H282.447a2.5 2.5 0 1 1 0-5H853.7l164.804-443.841H219.158a2.5 2.5 0 1 1 0-5h802.941a2.502 2.502 0 0 1 2.344 3.37l-166.66 448.841a2.502 2.502 0 0 1-2.344 1.63z" fill="#111"/><circle cx="50.107" cy="50.107" fill="#fff" r="47.607"/><path d="M50.106 100.213C22.478 100.213 0 77.736 0 50.107S22.478 0 50.106 0s50.106 22.478 50.106 50.106-22.478 50.106-50.106 50.106zm0-95.213C25.234 5 5 25.235 5 50.107s20.234 45.106 45.106 45.106 45.106-20.234 45.106-45.106S74.979 5 50.106 5z" fill="#111"/><path d="M1022.099 210.096H221.667l-4.992-35.406a18.011 18.011 0 0 1 2.484-.172h802.94c9.824 0 17.789 7.965 17.789 17.789s-7.965 17.789-17.789 17.789z" fill="#fff"/><path d="M1022.1 212.596H221.667a2.5 2.5 0 0 1-2.476-2.151l-4.992-35.405a2.5 2.5 0 0 1 2.129-2.825 20.54 20.54 0 0 1 2.829-.196H1022.1c11.187 0 20.288 9.102 20.288 20.288s-9.102 20.289-20.288 20.289zm-798.261-5H1022.1c8.43 0 15.288-6.858 15.288-15.289s-6.858-15.288-15.288-15.288H219.527zM161.73 1327.007c-19.725 0-35.771-16.048-35.771-35.772s16.047-35.771 35.771-35.771 35.772 16.047 35.772 35.771-16.048 35.772-35.772 35.772zm0-66.544c-16.968 0-30.771 13.804-30.771 30.771s13.804 30.772 30.771 30.772 30.772-13.805 30.772-30.772-13.805-30.771-30.772-30.771zm754.608 66.544c-19.725 0-35.772-16.048-35.772-35.772s16.048-35.771 35.772-35.771 35.771 16.047 35.771 35.771-16.047 35.772-35.771 35.772zm0-66.544c-16.968 0-30.772 13.804-30.772 30.771s13.805 30.772 30.772 30.772 30.771-13.805 30.771-30.772-13.804-30.771-30.771-30.771z" fill="#111"/></svg></g><g transform="translate(498.0 324.0) rotate(0.0 841.0 1174.5) scale(0.997784349260115 0.9983709001021321)"><svg width="1685.735" height="2352.833" viewBox="0 0 1685.735 2352.833"><path d="M972.137 762.683c69.195 176.962 211.593 542.912 153.178 816.761-34.416 161.341-209.163 395.262-305.672 541.686 0 0-303.102 112.308-384.618-16.906 52.786-136.404 186.475-393.087 362.751-538.372 0 0-139.098-299.692-109.461-481.847 29.732-182.737 72.671-321.322 283.822-321.322z" fill="#fff"/><g fill="#ef4910"><path d="m747.285 2153.759-31.941-14.311c20.147-44.971 72.737-122.895 133.632-213.122 84.284-124.885 179.814-266.433 208.493-349.987 26.537-77.315 20.208-206.555-18.813-384.126-33.101-150.637-82.8-304.948-115.687-407.06l-3.359-10.433 33.316-10.725 3.358 10.428c33.09 102.743 83.097 258.011 116.556 410.278 18.471 84.053 29.902 158.494 33.98 221.256 4.871 74.99-.595 136.138-16.249 181.744-30.181 87.934-127.087 231.52-212.586 358.204-57.489 85.184-111.791 165.643-130.701 207.853z"/><path d="m610.986 2196.066-33.006-11.643c44.543-126.283 132.8-256.373 210.668-371.147 65.392-96.387 127.157-187.428 146.622-253.649 17.646-60.03-13.442-182.151-49.438-323.556-35.979-141.33-76.756-301.517-83.688-453.119l34.963-1.6c6.77 148.032 47.079 306.379 82.644 446.084 38.803 152.428 69.451 272.825 49.101 342.062-21.009 71.472-81.359 160.427-151.239 263.428-76.678 113.021-163.586 241.122-206.625 363.141z"/><path d="m467.09 2196.945-32.334-13.399c46.166-111.402 98.435-210.426 159.793-302.728 52.371-78.781 102.307-138.84 142.432-187.099 46.374-55.775 79.881-96.073 93.616-134.982 16.633-47.116-11.394-110.519-50.184-198.271-58.98-133.427-139.756-316.162-121.808-579.503l34.919 2.379c-17.36 254.718 61.396 432.883 118.9 562.974 20.304 45.933 37.839 85.601 48.217 121.538 12.02 41.622 12.96 74.204 2.959 102.534-15.821 44.817-52.84 89.341-99.708 145.709-82.063 98.699-194.454 233.872-296.803 480.849z"/></g><path d="M606.53 133.404C575.22 32.685 469.841-40.481 362.17 31.251c-156.937 104.554-21.205 422.522-104.234 604.072-91.582-28.178-154.373 49.188-154.373 135.733 0 89.344 85.09 183.994 194.463 196.441 306.975 34.936 349.356-273.758 331.843-431.078-15.344-137.835-67.248-280.234-23.339-403.015z" fill="#92acef"/><path d="M906.349 455.49c81.538-27.203 146.23 59.628 169.997 88.389s123.706 138.979 123.706 138.979c41.565-35.096 89.011-100.986 150.327-160.66 83.913-81.666 217.119 74.654 181.275 136.854-38.945 67.58-201.596 214.52-323.011 214.52-107.67 0-206.307-105.379-270.322-176.396-74.344-84.471-128.924-205.431-31.972-241.686z" fill="#fbb348"/><path d="M344.523 972.731c-15.073 0-30.665-.915-46.779-2.749-52.425-5.967-102.063-30.875-139.769-70.137-36.169-37.663-56.913-84.604-56.913-128.789 0-50.522 21.45-97.75 55.979-123.253 28.309-20.909 62.681-26.249 99.517-15.503 34.387-77.101 29.787-179.312 25.337-278.18-3.077-68.341-5.983-132.892 3.052-189.65 4.876-30.637 12.794-56.012 24.205-77.577 12.827-24.24 29.716-43.121 51.632-57.723C405.231-.441 452.338-7.717 497.016 8.129c25.423 9.018 49.281 25.544 68.994 47.791 19.199 21.667 34.037 48.204 42.908 76.741a2.51 2.51 0 0 1-.034 1.584c-31.423 87.866-13.769 183.973 4.921 285.723 7.008 38.15 14.255 77.601 18.549 116.175 12.309 110.563-5.915 272.193-97.784 363.838-48.489 48.37-112.276 72.75-190.046 72.75zm-124.054-340.82c-22.063 0-42.547 6.687-60.458 19.914-33.277 24.578-53.949 70.266-53.949 119.231 0 91.668 89.835 182.303 192.246 193.957 97.67 11.114 175.973-11.954 232.729-68.572 90.611-90.389 108.532-250.284 96.347-359.745-4.275-38.398-11.505-77.76-18.497-115.824-9.004-49.013-18.313-99.693-21.19-148.06-3.21-53.973 2.089-99.604 16.197-139.459-17.963-56.975-59.495-103.111-108.551-120.511-43.13-15.301-88.702-8.214-131.788 20.49-88.444 58.923-82.723 186.012-76.666 320.563 4.517 100.314 9.187 204.044-26.68 282.468a2.497 2.497 0 0 1-3.009 1.35c-12.594-3.875-24.891-5.802-36.731-5.802zm366.982 1536.975c-21.311 0-40.828-1.684-58.411-5.053-44.81-8.587-77.152-28.193-96.13-58.275a2.502 2.502 0 0 1-.218-2.236c50.42-130.288 183.275-389.841 362.012-538.173-5.402-11.891-36.992-82.601-65.155-171.154-18.076-56.835-31.231-109.808-39.101-157.446-9.856-59.669-11.405-111.127-4.602-152.944 16.435-101.006 43.179-171.881 84.167-223.049 46.576-58.143 112.605-90.97 201.861-100.358a2.504 2.504 0 0 1 2.59 1.576c32.632 83.452 87.247 223.127 124.54 372.352 44.34 177.422 54.015 327.424 28.755 445.841-12.735 59.702-45.433 134.141-99.959 227.568-47.016 80.557-102.282 161.731-151.043 233.352-19.85 29.155-38.599 56.693-55.028 81.62-.292.444-.72.783-1.219.968-.76.282-77.017 28.309-162.265 40.135-25.364 3.519-49.016 5.278-70.795 5.278zm-149.638-64.94c18.297 28.26 49.287 46.753 92.133 54.97 35.002 6.714 77.91 6.63 127.536-.249 80.16-11.11 152.348-36.648 160.528-39.604 16.34-24.775 34.937-52.089 54.614-80.991 98.814-145.14 221.793-325.771 250.244-459.149 58.309-273.344-83.431-637.25-152.365-813.55-162.551 17.762-246.246 113.292-279.722 319.034-15.228 93.594 15.258 219.159 43.513 308.015 30.666 96.435 65.4 171.63 65.748 172.378a2.498 2.498 0 0 1-.677 2.98c-178.15 147.027-310.828 405.592-361.553 536.166z"/><path d="M792.006 90.462c136.636-149.689 257.095-3.357 105.97 127.509 30.267 127.125-171.907 125.814-266.139 125.336-64.721-30.553-150.671-269.33 160.169-252.845z" fill="#92acef"/><path d="M1208.644 876.073c-48.288 0-98.352-20.307-153.05-62.08-45.426-34.692-85.311-77.625-119.129-115.143a2.498 2.498 0 0 1 .183-3.53 2.498 2.498 0 0 1 3.53.183c55.31 61.358 158.261 175.57 268.466 175.57 52.581 0 120.391-28.916 190.939-81.423 55.597-41.378 109.016-95.595 129.905-131.845 8.865-15.384 7.328-37.909-4.327-63.428-11.228-24.583-30.508-48.665-52.895-66.071-20.822-16.188-74.21-49.019-120.144-4.315-29.294 28.51-55.858 58.949-79.295 85.807-26.486 30.351-49.36 56.562-71.162 74.972a2.5 2.5 0 0 1-3.465-.23c-1-1.103-100.252-110.591-123.782-139.066-1.306-1.58-2.735-3.335-4.283-5.236-26.203-32.181-87.565-107.54-162.995-82.374a2.496 2.496 0 0 1-3.162-1.58 2.498 2.498 0 0 1 1.58-3.162c78.708-26.262 141.599 50.977 168.454 83.959a985.092 985.092 0 0 0 4.26 5.208c21.797 26.377 108.959 122.693 122.004 137.096 20.971-18.082 43.181-43.533 68.784-72.873 23.5-26.929 50.135-57.45 79.576-86.103 18.242-17.754 39.659-25.652 63.661-23.456 20.595 1.879 42.393 11.356 63.037 27.408 23.004 17.886 42.822 42.649 54.374 67.941 12.346 27.028 13.806 51.179 4.111 68.001-17.917 31.092-65.45 84.386-131.252 133.359-71.405 53.145-140.275 82.412-193.925 82.412zM652.375 345.874c-7.039 0-13.705-.033-19.926-.065l-.625-.003a2.515 2.515 0 0 1-1.055-.239c-18.005-8.499-36.946-31.849-49.432-60.936-14.195-33.069-17.895-67.614-10.415-97.272 8.158-32.354 28.771-57.435 61.266-74.549 37.927-19.976 91.344-28.357 158.771-24.906 23.364-25.415 47.306-43.508 71.173-53.784 21.578-9.291 42.483-11.726 60.455-7.029 23.363 6.099 40.055 23.706 45.794 48.309 4.724 20.249 1.714 43.541-8.705 67.359-11.563 26.437-31.386 52.039-58.926 76.112 6.251 27.692 1.885 51.221-12.987 69.951-42.173 53.114-159.698 57.053-235.388 57.053zm-19.963-5.065h.063c72.263.377 206.789 1.054 251.372-55.096 14.134-17.801 18.069-40.397 11.697-67.163a2.502 2.502 0 0 1 .795-2.469c27.565-23.871 47.334-49.214 58.756-75.327 9.983-22.822 12.894-45.029 8.417-64.219-5.303-22.735-20.68-38.994-42.188-44.608-16.887-4.406-36.671-2.061-57.215 6.785-23.483 10.11-47.121 28.088-70.257 53.435a2.47 2.47 0 0 1-1.979.811c-67.075-3.554-120.017 4.611-157.354 24.276-31.186 16.425-50.951 40.429-58.747 71.348-7.213 28.601-3.604 62.011 10.161 94.077 11.908 27.741 29.676 49.952 46.479 58.15z"/><path d="M778.07 112.319a2.5 2.5 0 0 1-2.114-3.832c22.89-36.361 51.672-55.264 52.887-56.05a2.499 2.499 0 0 1 2.72 4.195c-.288.187-29.103 19.136-51.374 54.519a2.499 2.499 0 0 1-2.118 1.168z"/><path d="M832.608 785.231C530.95 841.5 576.03 1108.153 657.013 1279.135c0 0-93.858-56.278-252.752-118.06-85.036-71.807-349.369 392.361-128.834 321.175 187.35 96.334 586.819 281.035 713.294 161.624 122.864-116.003 52.82-333.857-53.263-618.532 0 0-55.362-248.969-102.85-240.111z" fill="#fff"/><path d="M857.254 1637.667c-27.316 0-59.533-4.222-96.979-12.659-60.619-13.657-134.741-38.521-220.308-73.896-144.981-59.941-274.979-130.536-276.275-131.242l16.742-30.736c1.282.698 129.861 70.513 273.154 129.736 83.682 34.586 155.847 58.817 214.492 72.021 87.262 19.646 127.757 10.873 146.363.056 102.038-59.327 59.978-189.372 6.727-354.015-44.227-136.741-94.354-291.727-70.189-442.021l34.557 5.557c-22.829 141.979 25.922 292.709 68.935 425.694 27.113 83.83 52.723 163.011 56.709 229.596 2.222 37.118-2.293 67.984-13.802 94.363-12.836 29.421-34.82 53.337-65.344 71.084-18.884 10.979-43.65 16.464-74.782 16.464z" fill="#ef4910"/><path d="M816.642 1537.414c-28.957 0-69.39-10.909-124.763-33.26-67.206-27.127-147.562-67.753-218.458-103.596-78.228-39.55-152.117-76.906-188.933-86.37l8.713-33.898c40.5 10.411 112.566 46.846 196.011 89.033 70.278 35.53 149.933 75.802 215.768 102.375 94.772 38.253 122.08 31.819 129.423 27.277 27.772-17.18 38.118-44.698 33.547-89.227-4.578-44.595-23.175-99.02-44.708-162.038-46.868-137.166-105.197-307.875-41.709-469.121l32.566 12.822c-58.776 149.278-2.753 313.238 42.263 444.982 22.225 65.044 41.419 121.218 46.405 169.78 5.954 57.999-10.385 98.091-49.952 122.566-9.306 5.757-21.21 8.673-36.173 8.673z" fill="#ef4910"/><path d="M708.179 1396.1c-27.335 0-65.767-21.146-138.464-61.149-57.358-31.562-135.913-74.787-243.976-126.928l15.209-31.521c108.907 52.547 187.936 96.033 245.64 127.785 63.823 35.118 106.035 58.304 122.933 56.757 5.522-.51 6.684-2.201 7.121-2.839 1.594-2.32 4.813-10.519.311-36.461-3.726-21.464-11.414-48.661-20.316-80.151-14.967-52.941-33.593-118.829-41.77-188.982-9.704-83.252-2.929-155.496 20.714-220.861l32.914 11.904c-49.385 136.535-8.229 282.118 21.821 388.418 20.266 71.684 33.653 119.041 15.18 145.945-4.969 7.237-14.687 16.213-32.762 17.879a49.55 49.55 0 0 1-4.555.205z" fill="#ef4910"/><path d="M435.025 2104.224s-67.42 112.676.211 246.109l506.434-.265s102.061-110.973-70.792-209.552c-108.888-62.096-217.585 21.31-268.83 26.673-27.355 2.863-141.169-37.31-167.023-62.965z" fill="#fff"/><path d="M415.568 2300.606s4.15 26.248 19.668 49.728l506.434-.265s18.086-19.95 26.605-51.611z" fill="#92acef"/><path d="M776.141 2350.829a2.5 2.5 0 0 1-2.5-2.49l-.191-49.126a2.5 2.5 0 0 1 2.49-2.51h.01a2.5 2.5 0 0 1 2.5 2.49l.191 49.126a2.5 2.5 0 0 1-2.49 2.51zm67.185-.204a2.5 2.5 0 0 1-2.5-2.49l-.192-49.127a2.5 2.5 0 0 1 2.49-2.51h.01a2.5 2.5 0 0 1 2.5 2.49l.192 49.127a2.5 2.5 0 0 1-2.49 2.51z"/><path d="M435.236 2352.833a2.498 2.498 0 0 1-2.23-1.37c-35.253-69.553-33.431-133.383-25.694-174.683 8.387-44.772 24.87-72.675 25.567-73.84a2.498 2.498 0 0 1 1.834-1.197 2.527 2.527 0 0 1 2.072.706c24.925 24.734 138.125 65.068 165.003 62.254 13.721-1.437 32.077-8.773 53.333-17.27 57.795-23.099 136.95-54.736 216.995-9.09 60.028 34.234 93.916 73.762 100.724 117.484 8.43 54.143-28.951 95.52-29.33 95.932a2.497 2.497 0 0 1-1.839.808zm.433-244.616c-4.292 8.051-16.736 33.528-23.481 69.688-7.502 40.22-9.273 102.242 24.588 169.927l503.757-.264c5.014-5.903 34.809-43.355 27.358-91.028-6.583-42.12-39.64-80.426-98.251-113.853-77.952-44.457-155.812-13.334-212.663 9.39-21.602 8.634-40.257 16.091-54.669 17.599-.987.104-2.083.154-3.272.154-31.994.002-134.251-36.461-163.366-61.613z"/><path d="M415.567 2303.106a2.5 2.5 0 0 1-.01-5l551.656-2.147h.01a2.5 2.5 0 0 1 .01 5l-551.656 2.147z"/><path d="M864.39 2350.484a2.5 2.5 0 0 1-2.5-2.49l-.192-49.125a2.5 2.5 0 0 1 2.49-2.51h.01a2.5 2.5 0 0 1 2.5 2.49l.192 49.125a2.5 2.5 0 0 1-2.49 2.51zm-89.085-167.099a2.5 2.5 0 0 1-2.488-2.77c3.781-34.926 62.043-55.4 64.521-56.255a2.5 2.5 0 0 1 1.63 4.727c-.577.199-57.739 20.288-61.181 52.067a2.5 2.5 0 0 1-2.482 2.23zm40.371 19.88a2.5 2.5 0 0 1-2.488-2.77c3.782-34.926 62.043-55.4 64.521-56.255a2.5 2.5 0 0 1 1.63 4.727c-.577.199-57.739 20.288-61.181 52.067a2.5 2.5 0 0 1-2.482 2.23zm37.629 26.279a2.5 2.5 0 0 1-2.488-2.77c3.781-34.926 62.043-55.399 64.521-56.254a2.5 2.5 0 0 1 1.63 4.727c-.577.199-57.739 20.287-61.181 52.066a2.5 2.5 0 0 1-2.482 2.23zm-297.972 122.144a2.5 2.5 0 0 1-2.5-2.49l-.191-49.126a2.5 2.5 0 0 1 2.49-2.51h.01a2.5 2.5 0 0 1 2.5 2.49l.191 49.126a2.5 2.5 0 0 1-2.49 2.51zm36.678-.007a2.5 2.5 0 0 1-2.5-2.49l-.19-49.125a2.5 2.5 0 0 1 2.49-2.51h.01a2.5 2.5 0 0 1 2.5 2.49l.19 49.125a2.5 2.5 0 0 1-2.49 2.51zm45.396-.009a2.5 2.5 0 0 1-2.5-2.49l-.191-49.125a2.5 2.5 0 0 1 2.49-2.51h.01a2.5 2.5 0 0 1 2.5 2.49l.191 49.125a2.5 2.5 0 0 1-2.49 2.51zm20.946-.384a2.5 2.5 0 0 1-2.5-2.49l-.191-49.127a2.5 2.5 0 0 1 2.49-2.51h.01a2.5 2.5 0 0 1 2.5 2.49l.191 49.127a2.5 2.5 0 0 1-2.49 2.51zm-180.42.931a2.5 2.5 0 0 1-2.5-2.49l-.19-49.125a2.5 2.5 0 0 1 2.49-2.51h.01a2.5 2.5 0 0 1 2.5 2.49l.19 49.125a2.5 2.5 0 0 1-2.49 2.51zm257.683-1.232a2.5 2.5 0 0 1-2.5-2.49l-.191-49.126a2.5 2.5 0 0 1 2.49-2.51h.01a2.5 2.5 0 0 1 2.5 2.49l.191 49.126a2.5 2.5 0 0 1-2.49 2.51zm180.282-.702a2.5 2.5 0 0 1-2.5-2.49l-.191-49.126a2.5 2.5 0 0 1 2.49-2.51h.01a2.5 2.5 0 0 1 2.5 2.49l.191 49.126a2.5 2.5 0 0 1-2.49 2.51zm-51.366-664.758c-58.354 0-132.006-14.221-220.544-42.662-104.491-33.565-228.568-86.699-368.778-157.92-41.625 13.228-68.955 8.484-81.235-14.1-14.983-27.558-5.067-81.073 27.206-146.825 29.873-60.861 71.959-117.843 109.836-148.709 31.095-25.341 56.854-31.012 74.532-16.417 132.716 51.631 220.951 99.935 245.673 114.002-26.57-55.953-44.88-116.509-51.748-171.391-9.411-75.206 1.567-139.854 32.631-192.151 54.521-91.789 168.89-141.977 339.928-149.169a2.515 2.515 0 0 1 2.603 2.393 2.502 2.502 0 0 1-2.393 2.604c-169.242 7.116-282.234 56.482-335.839 146.727-79.761 134.279-2.673 314.185 22.854 366.125a2.5 2.5 0 0 1-3.53 3.247c-.938-.563-95.536-56.891-252.373-117.874a2.506 2.506 0 0 1-.707-.42c-19.724-16.655-48.122-.384-68.473 16.201-78.354 63.853-166.356 233.085-135.808 289.271 11.062 20.344 36.728 24.187 76.292 11.414a2.491 2.491 0 0 1 1.9.15c140.354 71.337 264.489 124.523 368.958 158.083 172.206 55.318 287.091 56.654 341.464 3.974 119.785-116.06 53.231-328.465-53.866-615.863a2.5 2.5 0 0 1 4.686-1.746c50.086 134.406 96.356 264.016 112.217 372.276 16.737 114.241-2.188 193.339-59.558 248.925-27.424 26.57-69.533 39.855-125.928 39.856z"/><path d="M963.478 548.017c75.515 145.153 27.732 198.894-2.873 225.655-33.414 29.217-145.023 61.542-219.935 10.234-62.161-42.575-70.051-141.778-8.288-288.195 0 0-11.19-73.577 87.277-87.893 0 0 81.628-15.579 103.444 61.268z" fill="#fbb348"/><path d="M835.982 813.458c-30.25 0-65.541-6.131-96.727-27.49-32.26-22.096-49.654-58.134-51.7-107.114-2.094-50.157 12.122-111.886 42.26-183.49-.535-4.571-2.425-28.971 14.517-51.831 15.031-20.284 40.234-33.13 74.915-38.182 1.454-.271 21.533-3.827 44.552 1.856 21.751 5.369 50.112 20.345 61.709 61.195a2.501 2.501 0 0 1-4.811 1.365c-8.767-30.884-28.259-50.285-57.933-57.666-22.357-5.563-42.437-1.866-42.639-1.828a1.836 1.836 0 0 1-.107.018c-33.298 4.842-57.393 17.003-71.617 36.146-17.165 23.104-13.586 48.646-13.548 48.9.068.454.011.922-.168 1.345-30.027 71.183-44.203 132.403-42.134 181.962 1.977 47.32 18.641 82.042 49.53 103.198 28.452 19.487 61.754 26.7 93.864 26.702 53.644.003 103.985-20.118 123.013-36.755 16.613-14.527 34.407-33.848 40.418-66.995 7.347-40.525-5.478-92.885-38.117-155.625a2.499 2.499 0 1 1 4.435-2.307c33.164 63.745 46.151 117.182 38.601 158.824-6.321 34.866-25.79 55.652-42.046 69.866-15.761 13.781-51.476 30.23-95.732 35.911-9.218 1.184-19.546 1.993-30.535 1.993z"/><path d="m760.986 370.175 10.841 76.635s62.77 27.866 92.151-15.088l-10.47-77.208" fill="#ffaac3"/><path d="M815.296 457.838c-2.468 0-4.996-.098-7.589-.293-19.871-1.503-36.15-8.143-36.833-8.424a2.5 2.5 0 0 1-1.522-1.961l-10.841-76.635a2.501 2.501 0 0 1 2.125-2.826 2.502 2.502 0 0 1 2.826 2.125l10.635 75.18c9.179 3.404 63.787 21.737 87.279-13.862l-10.346-76.291a2.5 2.5 0 0 1 2.142-2.813 2.492 2.492 0 0 1 2.813 2.142l10.47 77.208a2.505 2.505 0 0 1-.366 1.675c-10.328 16.292-27.798 24.776-50.793 24.776zm16.606-290.517a2.5 2.5 0 0 1-2.361-3.322 94.582 94.582 0 0 0 5.251-30.609 2.5 2.5 0 0 1 2.5-2.486h.014a2.501 2.501 0 0 1 2.486 2.514 99.568 99.568 0 0 1-5.528 32.223 2.5 2.5 0 0 1-2.361 1.681z"/><path d="M748.018 361.311s37.034 41.604 102.661 28.035c61.129-12.639 87.19-62.316 76.54-115.483 0 0 30.481-29.442 20.723-45.649s-32.492 14.823-32.492 14.823-19.661-72.962-82.3-82.07c0 0-45.138 126.038-110.185 124.492 0 0-23.972-22.032-64.305-4.829-40.333 17.204-36.576 80.536.562 97.455 55.337 25.218 88.795-16.775 88.795-16.775z" fill="#ffaac3"/><path d="M734.798 343.01c-.77 0-1.528-.354-2.018-1.021-.203-.276-20.896-27.682-71.81-35.639a2.498 2.498 0 0 1-2.084-2.855 2.486 2.486 0 0 1 2.855-2.084c53.102 8.299 74.2 36.431 75.072 37.625a2.5 2.5 0 0 1-2.017 3.974z"/><path d="M698.439 347.036a2.5 2.5 0 0 1-2.496-2.405c-.551-14.482 17.438-22.84 18.203-23.188a2.5 2.5 0 0 1 2.075 4.55c-.157.071-15.704 7.322-15.281 18.449a2.5 2.5 0 0 1-2.403 2.593l-.097.002zm219.173-21.978c-9.085 0-23.156-3.082-32.924-19.721a2.501 2.501 0 0 1 4.313-2.531c13.466 22.941 35.901 16.465 36.129 16.398a2.496 2.496 0 0 1 3.116 1.669 2.499 2.499 0 0 1-1.669 3.116c-.097.029-3.691 1.068-8.965 1.068zm-44.24-84.325a6.084 6.084 0 1 1 7.366 4.468 6.092 6.092 0 0 1-7.366-4.467z"/><path d="M791.175 334.401c-4.833-19.811 7.308-39.789 27.119-44.623 19.811-4.833 39.789 7.308 44.623 27.119 4.833 19.808-7.304 39.784-27.111 44.621-19.812 4.835-39.794-7.305-44.631-27.117z" fill="#ff6996"/><path d="M824.95 394.54c-22.011 0-39.436-5.958-51.327-11.886-13.281-6.62-21.884-14.146-25.513-17.671-3.329 3.55-11.034 10.839-22.655 16.425-14.424 6.933-37.804 12.381-67.269-1.048-19.007-8.658-31.102-29.603-30.813-53.358.272-22.497 11.603-40.692 30.308-48.671 37.87-16.152 61.701.933 66.225 4.643h.242c61.912 0 106.206-121.613 106.649-122.849a2.503 2.503 0 0 1 2.713-1.631c26.339 3.829 49.289 19.58 66.369 45.55 9.112 13.855 14.254 27.003 16.539 33.722 5.103-6.136 15.566-17.185 24.617-16.727 2.581.116 6.246 1.232 9.048 5.886 9.726 16.15-14.783 42.338-20.155 47.771 5.07 26.815.848 52.842-11.939 73.426-13.924 22.413-37.024 37.516-66.805 43.673-9.336 1.931-18.101 2.744-26.234 2.745zm-75.066-34.893c.091.102 9.273 10.253 26.172 18.633 15.545 7.708 41.022 15.461 74.117 8.618 55.791-11.536 85.769-56.764 74.596-112.544a2.502 2.502 0 0 1 .714-2.289c8.077-7.81 27.474-30.68 20.318-42.562-1.8-2.989-3.709-3.412-4.989-3.471a7.48 7.48 0 0 0-.301-.006c-7.769 0-19.234 13.295-23.043 18.488a2.514 2.514 0 0 1-2.475.979 2.504 2.504 0 0 1-1.956-1.806c-.048-.18-5.002-18.188-17.415-37.019-16.059-24.359-36.521-38.789-60.842-42.915-2.805 7.383-13.614 34.599-30.204 61.356-25.865 41.72-52.908 62.861-80.395 62.863-.426 0-.848-.005-1.274-.016a2.499 2.499 0 0 1-1.632-.658c-.933-.85-23.378-20.688-61.633-4.37-16.826 7.178-27.021 23.676-27.27 44.133-.265 21.774 10.682 40.909 27.887 48.747 22.167 10.103 43.31 10.499 62.838 1.184 14.654-6.991 22.886-17.141 22.968-17.243a2.508 2.508 0 0 1 1.887-.938c.741-.004 1.442.285 1.932.834z"/><path d="M404.261 1161.075s-83.482-101.353-231.876-82.48L2.5 1555.685s70.24 133.411 221.155 3.72c95.068-81.7 53.03-212.1 65.19-262.167 6.492-26.727 82.565-120.43 115.416-136.163z" fill="#fff"/><path d="M225.831 1076.778s-26.117-4.909-53.446 1.818L2.5 1555.685s13.069 22.753 40.026 41.407l183.304-520.315z" fill="#92acef"/><path d="M95.519 1448.515c-.275 0-.556-.046-.831-.143l-45.887-16.165a2.501 2.501 0 0 1 1.662-4.716l45.887 16.165a2.501 2.501 0 0 1-.831 4.859zm-23.668 67.844c-.275 0-.556-.046-.831-.143l-45.888-16.166a2.501 2.501 0 0 1 1.662-4.716l45.888 16.166a2.501 2.501 0 0 1-.831 4.859z"/><path d="M101.232 1618.614c-6.933 0-13.744-.636-20.438-1.91-53.83-10.248-80.246-59.359-80.507-59.854a2.502 2.502 0 0 1-.144-2.004l169.885-477.09a2.502 2.502 0 0 1 2.04-1.642c77.348-9.837 136.859 13.322 173.16 34.483 39.354 22.94 60.097 47.84 60.961 48.888a2.502 2.502 0 0 1-.849 3.845c-31.67 15.167-107.686 108.231-114.066 134.498-3.256 13.404-2.512 33.156-1.65 56.026 2.343 62.2 5.551 147.385-64.339 207.447-44.339 38.102-85.965 57.312-124.053 57.312zm-95.996-63.161c3.876 6.706 29.144 47.353 76.551 56.351 41.883 7.945 89.066-10.316 140.239-54.294 68.061-58.49 64.905-142.283 62.602-203.466-.876-23.243-1.632-43.316 1.787-57.395 6.542-26.926 79.151-116.629 113.868-136.308-6.142-6.748-25.958-27.027-57.752-45.528-35.362-20.576-93.181-43.08-168.309-33.928L5.236 1555.453z"/><path d="M42.526 1599.593a2.501 2.501 0 0 1-2.358-3.332l183.304-520.314a2.501 2.501 0 0 1 4.716 1.662L44.885 1597.923a2.503 2.503 0 0 1-2.358 1.67z"/><path d="M102.432 1429.552c-.275 0-.556-.046-.831-.144l-45.889-16.17a2.498 2.498 0 0 1-1.526-3.188 2.496 2.496 0 0 1 3.188-1.526l45.889 16.17a2.5 2.5 0 0 1-.831 4.858zm145.21 106.163h-.027a2.502 2.502 0 0 1-2.474-2.526c.007-.61.289-61.199-28.489-75.116a2.502 2.502 0 0 1 2.178-4.502c31.628 15.297 31.339 77.05 31.312 79.671a2.5 2.5 0 0 1-2.499 2.474zm-32.288 31.347h-.027a2.502 2.502 0 0 1-2.474-2.526c.007-.61.289-61.199-28.489-75.116a2.5 2.5 0 1 1 2.178-4.502c31.628 15.297 31.339 77.05 31.312 79.671a2.5 2.5 0 0 1-2.499 2.474zm-37.393 26.613h-.027a2.502 2.502 0 0 1-2.474-2.526c.007-.61.289-61.199-28.488-75.117a2.502 2.502 0 0 1 2.178-4.502c31.627 15.298 31.338 77.051 31.311 79.672a2.5 2.5 0 0 1-2.499 2.474zm1.49-382.746c-.275 0-.556-.046-.831-.143l-45.887-16.166a2.501 2.501 0 0 1 1.662-4.716l45.887 16.166a2.501 2.501 0 0 1-.831 4.859zm-30.001 78.79c-.275 0-.556-.046-.831-.143l-45.888-16.166a2.501 2.501 0 0 1 1.662-4.716l45.888 16.166a2.501 2.501 0 0 1-.831 4.859zm51.897-140.895c-.275 0-.556-.046-.831-.143l-45.887-16.166a2.501 2.501 0 0 1 1.662-4.716l45.887 16.166a2.501 2.501 0 0 1-.831 4.859zm11.934-34.872c-.275 0-.556-.046-.831-.143l-45.887-16.166a2.501 2.501 0 0 1 1.662-4.716l45.887 16.166a2.501 2.501 0 0 1-.831 4.859zm-68.06 194.144c-.275 0-.556-.046-.831-.143l-45.888-16.166a2.501 2.501 0 0 1 1.662-4.716l45.888 16.166a2.501 2.501 0 0 1-.831 4.859zm-25.675 72.874c-.275 0-.556-.046-.831-.143l-45.886-16.166a2.501 2.501 0 0 1 1.662-4.716l45.886 16.166a2.501 2.501 0 0 1-.831 4.859zm-59.902 170.04c-.275 0-.556-.046-.831-.143l-45.888-16.166a2.501 2.501 0 0 1 1.662-4.716l45.888 16.166a2.501 2.501 0 0 1-.831 4.859z"/><path d="M1043.72 977.202s-61.749-9.802-76.866-11.834c-30.585 9.999-41.688 83.715-14.406 101.209 22.764 2.925 93.32 20.512 93.32 20.512 40.733-8.469 16.641-110.142-2.049-109.887z" fill="#ffaac3"/><path d="M1045.769 1089.589c-.203 0-.406-.024-.604-.074-.704-.176-70.675-17.585-93.034-20.458a2.493 2.493 0 0 1-1.031-.375c-15.522-9.954-18.375-34.461-15.868-54.077 2.555-19.992 12.167-45.506 30.848-51.612a2.593 2.593 0 0 1 1.109-.102c14.558 1.956 72.937 11.209 76.735 11.812 11.813.219 22.861 28.902 25.813 55.805 3.638 33.152-5.132 55.22-23.458 59.029a2.5 2.5 0 0 1-.509.053zm-92.424-25.415c22.352 3.001 85.304 18.569 92.458 20.348 22.45-5.261 20.199-42.198 18.963-53.469-3.041-27.712-14.056-51.353-20.97-51.353h-.075c-.131 0-.263-.011-.392-.031-.609-.097-60.368-9.578-76.226-11.745-15.096 5.371-24.386 27.532-26.913 47.313-2.867 22.435 2.291 41.544 13.154 48.936z" fill="#111"/><path d="M1043.72 977.202c35.521-17.451 71.305-34.22 105.927-43.497 34.623-9.277 217.647-52.354 228.527-1.599 6.991 32.613-111.156 43.543-111.156 43.543s79.215 34.434 62.372 75.244c-8.285 20.079-33.249 11.324-33.249 11.324s7.828 18.342-5.064 29.648c-6.793 5.958-23.023 9.766-40.568-1.578-29.029-17.279-54.017-37.685-67.368-33.604-42.447 12.988-72.009 56.85-137.372 30.408" fill="#ffaac3"/><path d="M1273.374 1100.069c-7.187 0-15.536-2.067-24.222-7.684-7.288-4.336-14.304-8.862-21.088-13.238-18.953-12.227-35.315-22.779-44.192-20.075-12.312 3.768-23.382 10.112-35.103 16.829-27.936 16.011-56.825 32.565-103.938 13.506a2.5 2.5 0 0 1 1.875-4.635c44.866 18.15 72.68 2.208 99.578-13.209 11.443-6.559 23.276-13.341 36.126-17.272 11.089-3.39 27.539 7.221 48.364 20.654 6.748 4.353 13.725 8.854 21.014 13.192 16.808 10.866 31.706 7.051 37.641 1.848 11.349-9.952 4.7-26.108 4.412-26.791a2.504 2.504 0 0 1 .479-2.688 2.498 2.498 0 0 1 2.648-.649c.928.322 22.838 7.707 30.111-9.918 15.714-38.077-60.289-71.664-61.059-71.998a2.5 2.5 0 0 1 .766-4.782c.897-.083 89.903-8.569 106.71-31.445 2.177-2.962 2.906-5.934 2.231-9.084-1.15-5.364-4.453-9.65-10.098-13.103-38.339-23.45-168.44 4.028-215.337 16.593-35.083 9.399-71.341 26.558-105.472 43.326a2.502 2.502 0 0 1-2.205-4.489c34.354-16.877 70.864-34.151 106.382-43.668 1.707-.457 171.23-45.391 219.24-16.028 6.781 4.147 10.946 9.638 12.378 16.319.979 4.565-.062 8.971-3.091 13.094-14.984 20.393-77.964 29.697-101.488 32.509 20.212 10.254 70.083 39.722 55.662 74.663-6.229 15.095-21.6 16.087-31.786 13.988 1.651 6.646 2.897 19.063-7.189 27.91-3.851 3.376-10.771 6.324-19.352 6.324z" fill="#111"/><path d="M1266.933 978.109c-.367 0-.739-.082-1.092-.253-16.428-7.993-34.819-15.385-57.956-15.385h-.228a2.5 2.5 0 0 1-.005-5h.234c24.149 0 43.174 7.634 60.142 15.889a2.5 2.5 0 0 1-1.096 4.749zm29.211 86.608a2.502 2.502 0 0 1-2.226-1.358c-12.271-23.869-43.852-47.894-78.582-59.78-31.827-10.896-75.793 1.433-76.234 1.558a2.5 2.5 0 1 1-1.375-4.807c1.859-.531 45.894-12.89 79.229-1.481 36.432 12.469 68.387 36.894 81.41 62.226a2.5 2.5 0 0 1-2.222 3.643z" fill="#111"/><path d="M751.338 1467.037a2.5 2.5 0 0 1-2.23-1.367l-94.323-185.4a2.5 2.5 0 0 1 4.457-2.267l94.323 185.4a2.5 2.5 0 0 1-2.227 3.634z"/><path d="M740.262 482.44c-45.076-1.57-109.326 30.157-143.45 123.529-54.845 150.071-131.358 252.736-104.075 355.483 27.769 104.582 188.48 127.403 319.703 156.94 106.394 23.948 178.606-15.117 189.61-93.228 4.939-35.059 3.072-97.131-66.917-123.005-69.99-25.873-181.393-33.979-224.004-54.845.729-40.641 38.086-125.886 57.722-150.996 52.448-70.158 30.685-209.952-28.587-213.878z" fill="#fbb348"/><path d="M871.23 1127.895c-18.578 0-38.444-2.361-59.341-7.064-13.865-3.121-28.373-6.234-42.404-9.245-60.961-13.081-123.999-26.606-175.275-48.683-58.594-25.225-92.576-58.2-103.89-100.81-19.525-73.533 12.759-145.395 53.633-236.375 16.956-37.743 34.489-76.771 50.511-120.608 33.875-92.691 97.203-125.225 142.634-125.225 1.097 0 2.177.019 3.251.057a2.499 2.499 0 0 1-.085 4.998c-.03 0-.06 0-.089-.002-43.96-1.539-107.241 29.475-141.016 121.889-16.082 44.006-33.653 83.117-50.646 120.94-40.468 90.076-72.431 161.225-53.361 233.043 10.895 41.029 43.942 72.922 101.034 97.501 50.828 21.882 113.622 35.355 174.348 48.386 14.043 3.014 28.564 6.129 42.453 9.255 57.883 13.027 108.349 7.362 142.093-15.955 24.57-16.981 39.956-42.979 44.492-75.182 4.81-34.138 2.721-95.163-65.309-120.312-34.707-12.83-78.851-21.115-121.542-29.128-41.67-7.82-81.03-15.208-102.694-25.816a2.501 2.501 0 0 1-1.4-2.29c.725-40.382 37.384-125.806 58.252-152.492a2.501 2.501 0 0 1 3.94 3.08c-19.728 25.228-55.511 108.444-57.145 147.903 21.365 9.948 59.574 17.119 99.971 24.701 42.895 8.051 87.25 16.376 122.354 29.353 71.317 26.364 73.545 90.07 68.525 125.698-4.736 33.623-20.851 60.801-46.601 78.598-17.259 11.927-38.403 19.464-62.848 22.4-7.682.924-15.639 1.384-23.845 1.385z"/><path d="M711.127 849.815a2.52 2.52 0 0 1-.847-.148c-25.112-9.038-38.317-19.178-38.867-19.605a2.499 2.499 0 0 1-.44-3.506 2.504 2.504 0 0 1 3.507-.443c.129.101 13.198 10.106 37.494 18.85a2.5 2.5 0 0 1-.847 4.853z"/><path d="m1451.854 499.271-32.135 41.616s13.278 73.604 82.708 64.983l27.552-38.543s67.477 12.289 123.917-79.497l-62.792-148.444-139.249 159.884z" fill="#ffaac3"/><path d="M1489.118 609.559c-27.739 0-45.125-15.914-55.2-30.399-12.459-17.912-16.482-36.966-16.647-37.769a2.497 2.497 0 0 1 .47-2.032l32.135-41.616a2.5 2.5 0 1 1 3.957 3.057l-31.411 40.679c1.042 4.266 5.421 20.241 15.686 34.946 15.528 22.247 36.679 31.379 62.888 27.151l26.95-37.702a2.513 2.513 0 0 1 2.482-1.006c.158.028 16.736 2.848 39.832-5.339 21.359-7.573 52.839-26.386 81.507-73.007a2.504 2.504 0 0 1 3.439-.82 2.5 2.5 0 0 1 .82 3.439c-29.54 48.037-62.215 67.417-84.425 75.217-20.332 7.139-35.624 6.218-40.469 5.655l-26.671 37.312c-.383.534-.96.896-1.607 1.009-4.837.839-9.412 1.226-13.735 1.226z"/><path d="M1608.481 452s51.246-45.876 72.05-11.008-84.586 114.216-106.28 74.768c-15.724-28.604 38.027-64.009 52.347-64.215" fill="#ffaac3"/><path d="M1594.382 528.999h-.334c-10.105-.092-17.709-4.253-21.987-12.033-4.81-8.748-4.082-18.991 2.104-29.622 11.732-20.166 40.956-38.134 52.397-38.298h.037a2.5 2.5 0 0 1 .035 5c-9.069.13-37.08 16.789-48.148 35.813-5.329 9.16-6.017 17.47-2.044 24.698 3.404 6.189 9.344 9.367 17.652 9.442h.294c24.436 0 64.948-27.392 80.505-54.501 4.414-7.692 8.603-18.659 3.492-27.226-4.015-6.729-9.321-10.512-16.225-11.565-22.049-3.375-51.715 22.89-52.013 23.155a2.5 2.5 0 1 1-3.334-3.725c1.283-1.149 31.696-28.101 56.095-24.374 8.356 1.274 15.009 5.967 19.77 13.947 5.027 8.425 3.834 19.586-3.448 32.276-16.577 28.888-58.485 57.01-84.848 57.013z"/><path d="M1593.026 396.462s51.246-45.875 72.038-11.005c20.792 34.869-84.584 114.231-106.267 74.768-15.739-28.601 38.027-64.005 52.346-64.217" fill="#ffaac3"/><path d="M1578.927 473.47c-.116 0-.23 0-.346-.002-10.101-.095-17.699-4.259-21.975-12.04-4.81-8.74-4.089-18.976 2.085-29.599 11.724-20.171 40.961-38.152 52.415-38.322h.038a2.5 2.5 0 0 1 .036 5c-9.081.134-37.107 16.807-48.166 35.835-5.319 9.152-6.001 17.455-2.026 24.677 3.402 6.192 9.337 9.371 17.64 9.45h.306c24.417 0 64.912-27.381 80.477-54.484 4.422-7.699 8.619-18.676 3.507-27.249-4.013-6.729-9.318-10.513-16.221-11.566-22.075-3.372-51.705 22.889-52.003 23.154a2.498 2.498 0 1 1-3.334-3.724c1.283-1.149 31.702-28.105 56.091-24.372 8.354 1.275 15.003 5.968 19.762 13.948 5.026 8.43 3.828 19.599-3.466 32.3-16.587 28.883-58.477 56.993-84.819 56.994z"/><path d="M1566.217 342.871s56.897-34.451 77.703.415c20.806 34.867-84.585 114.226-106.28 74.77-13.485-26.499 22.03-46.952 23.511-49.619z" fill="#ffaac3"/><path d="M1557.775 431.299h-.335c-10.106-.093-17.711-4.255-21.989-12.038-4.809-8.746-4.082-18.986 2.099-29.614 11.728-20.166 40.956-38.14 52.401-38.308h.038a2.5 2.5 0 0 1 .036 5c-9.074.133-37.09 16.798-48.153 35.821-5.326 9.158-6.013 17.466-2.04 24.692 3.405 6.191 9.345 9.37 17.654 9.446h.295c24.434 0 64.943-27.393 80.5-54.501 4.415-7.693 8.605-18.663 3.493-27.23-5.566-8.783-13.936-13.966-24.84-15.348-17.761-2.255-37.793 6.481-45.427 13.649a2.499 2.499 0 1 1-3.422-3.644c8.034-7.545 29.309-17.523 49.478-14.966 12.278 1.556 22.123 7.673 28.469 17.689 5.063 8.482 3.87 19.646-3.414 32.339-16.578 28.888-58.483 57.01-84.843 57.012z"/><path d="M1451.854 499.271c-22.444-25.158-4.561-82.107 29.693-120.658s36.773-84.891 60.618-84.914c56.003-.055 18.585 94.185-5.387 134.783" fill="#ffaac3"/><path d="M1451.855 501.771a2.5 2.5 0 0 1-2.055-1.072c-33.173-47.69 10.971-100.942 29.821-123.682 13.931-16.806 22.139-33.749 29.38-48.697 10.486-21.649 18.754-38.732 38.845-37.229 9.439.715 16.334 4.93 20.491 12.527 15.315 27.987-11.25 92.401-29.362 126.05a2.5 2.5 0 1 1-4.403-2.369c22.867-42.482 41.814-98.556 29.379-121.28-3.34-6.103-8.731-9.354-16.482-9.941-16.682-1.264-23.559 12.932-33.969 34.422-7 14.451-15.712 32.437-30.029 49.709-18.125 21.863-60.568 73.064-29.565 117.635a2.5 2.5 0 0 1-2.051 3.927zM225.828 693.949a2.499 2.499 0 0 1-1.992-4.008c.187-.246 18.722-24.908 31.801-55.599a2.499 2.499 0 1 1 4.599 1.961c-13.33 31.277-32.224 56.404-32.413 56.654a2.495 2.495 0 0 1-1.995.991z"/></svg></g><g transform="translate(2018.0 518.0) rotate(0.0 172.0 176.5) scale(0.9980126782424532 0.998486712772427)"><svg width="344.685" height="353.535" viewBox="0 0 344.685 353.535"><path d="M106.227 4.736C24.673 77.168 2.5 329.575 2.5 329.575l215.979 21.461s56.126-279.05 123.706-337.291C266.016 1.912 138.722.367 106.227 4.736z" fill="#fff"/><g fill="#111"><path d="M218.481 353.535c-.082 0-.165-.004-.249-.013L2.253 332.062a2.5 2.5 0 0 1-2.243-2.706c.056-.633 5.737-64.087 21.329-135.571C42.338 97.498 70.341 33.265 104.567 2.868a2.5 2.5 0 0 1 1.327-.608c32.356-4.351 159.559-2.966 236.675 9.015a2.502 2.502 0 0 1 1.249 4.364C277.653 72.66 221.491 348.747 220.931 351.53a2.5 2.5 0 0 1-2.449 2.007zM5.222 327.332l211.261 20.992c2.594-12.522 16.075-76.142 36.106-144.794 28.605-98.038 56.868-161.253 84.076-188.087C260.167 4.325 139.877 3.011 107.318 7.116c-32.695 29.499-60.726 94.366-81.083 187.681C12.434 258.054 6.428 314.996 5.222 327.332z"/><path d="M255.627 79.943c-.084 0-.169-.004-.255-.013-58.292-5.896-110.508-7.86-159.63-6.002a2.498 2.498 0 0 1-2.593-2.403 2.499 2.499 0 0 1 2.403-2.593c49.359-1.866 101.8.104 160.323 6.023a2.5 2.5 0 0 1-.249 4.987zm-20.021 47.335c-.084 0-.169-.004-.255-.013-58.291-5.896-110.511-7.861-159.63-6.002-1.353.063-2.54-1.023-2.593-2.403s1.023-2.541 2.403-2.593c49.361-1.865 101.799.104 160.323 6.023a2.5 2.5 0 0 1-.249 4.987zm-19.715 54.401c-.103 0-.206-.006-.312-.02-58.154-7.226-110.311-10.387-159.472-9.646h-.038a2.5 2.5 0 0 1-.036-5c49.391-.741 101.776 2.43 160.163 9.686a2.499 2.499 0 0 1-.306 4.98zm-14.854 59.855c-.12 0-.241-.009-.363-.026-58.014-8.451-110.108-12.707-159.261-13.009a2.5 2.5 0 0 1 .016-5h.016c49.385.304 101.705 4.576 159.95 13.062a2.499 2.499 0 0 1-.358 4.974z"/></g></svg></g></svg>