<svg xmlns="http://www.w3.org/2000/svg" viewBox="0 0 1920 1080" width="1920" height="1080"><g transform="translate(909.0 154.0) rotate(0.0 363.0 443.5) scale(0.7970629438191391 0.7975894275789698)"><svg width="910.844" height="1112.101" viewBox="0 0 910.844 1112.101"><path d="m414.831 443.566-12.615 15.985-75.588 95.792-66.887 84.763A104.243 104.243 0 0 0 241 678.646l-65.79 260.812 203.177 51.347 60.429-239.621 41.721-57.76-.27 6.646v283.05h209.58l.35-52.172-1.249-268.977c1.165-26.764-65.2-277.1-65.2-277.1z" fill="#fff"/><path d="M378.387 993.805a3.008 3.008 0 0 1-.735-.092l-203.177-51.348a3 3 0 0 1-2.174-3.641l65.785-260.812a106.593 106.593 0 0 1 19.285-39.644l155.1-196.56a2.994 2.994 0 0 1 1.544-1.029l208.915-58.693a3 3 0 0 1 3.711 2.12c2.713 10.229 66.354 250.642 65.3 277.92l1.259 268.909-.349 52.206a3 3 0 0 1-3 2.979H480.267a3 3 0 0 1-3-3V703.074l-35.682 49.4L381.3 991.538a3 3 0 0 1-2.909 2.267zm-199.534-56.522 197.359 49.878 59.695-236.71a2.987 2.987 0 0 1 .478-1.023l41.72-57.761a3 3 0 0 1 5.428 1.878l-.266 6.585v279.99h203.6l.329-49.192-1.248-268.943v-.143c1.064-24.463-56.889-245.061-64.328-273.256l-205.042 57.6L262.1 641.965a100.607 100.607 0 0 0-18.192 37.41z" fill="#222433"/><path d="m559.437 1108.985-.7-54.607 33.65 54.607 203.759.116v-1.513c2.445-32.6-17.97-61.532-49.718-68.23-36.068-7.609-66.182-24.437-78.432-56.238H490.7l.153 125.865z" fill="#fff"/><path d="m796.147 1112.1-203.759-.117a3 3 0 0 1-2.552-1.425l-27.957-45.371.56 43.758a3 3 0 0 1-3 3.038h-68.581a3 3 0 0 1-3-3l-.158-125.859a3 3 0 0 1 3-3H668a3 3 0 0 1 2.8 1.922c10.654 27.658 36.309 45.954 76.251 54.38 32.731 6.906 54.626 36.871 52.1 71.277v1.4a3 3 0 0 1-3 3zm-202.083-6.116 199.174.114c1.737-30.887-18.038-57.607-47.428-63.807-41.145-8.68-67.994-27.572-79.844-56.173H493.707l.147 119.865H556.4l-.66-51.569a3 3 0 0 1 5.554-1.612z" fill="#222433"/><path d="m369.1 988.459-.147 120.526h-68.581l.7-54.608-97.455 54.608L3 1017.584l.582-1.4c11.294-30.622 41.451-47.155 73.47-41.45l62.059 9.2c33.313 6.033 51.936-10.841 57.161-39.154z" fill="#fff"/><path d="M203.615 1111.985a3.01 3.01 0 0 1-1.244-.269l-200.615-91.4a3 3 0 0 1-1.525-3.884l.558-1.339C12.432 983.606 44 965.8 77.578 971.783l61.972 9.185c29.355 5.316 48.421-7.735 53.771-36.731a3 3 0 0 1 3.686-2.364l172.826 43.677a3 3 0 0 1 2.265 2.912l-.147 120.527a3 3 0 0 1-3 3h-68.579a3 3 0 0 1-3-3.038l.632-49.413-92.922 52.062a3 3 0 0 1-1.467.385zm99.8-6h62.544l.14-115.192-167.518-42.334c-6.788 30.153-28.5 44.131-60 38.429L76.612 977.7c-15.182-2.7-29.883-.364-42.6 6.753a60.956 60.956 0 0 0-27.165 31.587l196.629 89.585 96.124-53.865a3 3 0 0 1 4.466 2.655zm371.985-43.468c-.35 0-.7-.014-1.057-.044a12.684 12.684 0 0 1-2.362-.4 12.853 12.853 0 0 1-9.086-15.716l12.295-44.972a3 3 0 0 1 2.156-2.117l54.166-13.728a12.806 12.806 0 0 1 15.04 16.977l-.254.7a12.666 12.666 0 0 1-13.298 8.174l-51.306-5.721 6.217 42.3a12.654 12.654 0 0 1 .1 2.926 12.682 12.682 0 0 1-12.611 11.621zm1.842-45.89-8.555 31.3a6.842 6.842 0 0 0 4.846 8.354 6.768 6.768 0 0 0 1.275.215 6.66 6.66 0 0 0 7.172-7.635zm17.391-15.552 39.039 4.353a6.653 6.653 0 0 0 7-4.292l.26-.713a6.806 6.806 0 0 0-7.967-9.062zM412.189 783.9a3 3 0 0 1-2.234-5l26.622-29.718a3 3 0 1 1 4.469 4L414.424 782.9a2.994 2.994 0 0 1-2.235 1z" fill="#222433"/><path d="M160.276 1049.6a15.483 15.483 0 0 1-2.586-.217 1.477 1.477 0 0 1-.1-.019l-2.1-.426a15.631 15.631 0 0 1-11.45-21.712l20.679-45.936-33.4-5.619a15.214 15.214 0 0 1-3.234-.89 15.5 15.5 0 0 1-5.78-24.568 15.454 15.454 0 0 1 21.784-1.4l32.193 27.918a3.005 3.005 0 0 1 1.034 2.35l-1.53 55.4a15.3 15.3 0 0 1-.21 2.168 15.552 15.552 0 0 1-15.3 12.951zm-1.544-6.125a9.546 9.546 0 0 0 10.931-7.824 9.43 9.43 0 0 0 .128-1.329l1.461-52.923-21.731 48.275a9.63 9.63 0 0 0 7.1 13.371zm-28.427-74.27a9.2 9.2 0 0 0 1.983.544l33.237 5.592-25.379-22.01a9.434 9.434 0 0 0-15.058 3.705 9.341 9.341 0 0 0 5.217 12.169z" fill="#222433"/><path d="m623.745 384.874-208.914 58.692-35.512-45.293L357.9 441.7l100.463 40.455L476.048 589.6c-8.412 6.159-18.224 9.869-26.869 9.869a60.222 60.222 0 0 1-21.773-4.192l-171.391-68.926a57.887 57.887 0 0 1-32.6-33.184 59.694 59.694 0 0 1 2.328-46.69L314.116 260.3a61.475 61.475 0 0 1 39.354-34l42.207-12.3 62.5-18.213 43.768-13.029a146.108 146.108 0 0 1 74.249-2.4L743.672 224.2l19.794-91.983 75.682-26.78c7.506 7.238 20.646 18.262 22.122 26.78 1.233 7.113 32.557-19.268 31.036-11.679L851.59 325.483a57.882 57.882 0 0 1-27.129 37.787 59.686 59.686 0 0 1-46.4 5.678L605.738 320.96z" fill="#fff"/><path d="M449.179 602.471a62.977 62.977 0 0 1-22.873-4.4L254.9 529.134a61.048 61.048 0 0 1-34.287-34.9 63.028 63.028 0 0 1 2.435-49.066L311.4 259.014a64.285 64.285 0 0 1 41.248-35.6l104.679-30.506 43.752-13.024a149.375 149.375 0 0 1 75.775-2.45L741.4 220.5l19.134-88.917a3 3 0 0 1 1.932-2.2l75.682-26.779a3 3 0 0 1 3.083.667 320.643 320.643 0 0 0 3.659 3.453c7.522 7.031 16.779 15.682 19.011 23.55 2.89-.855 9.3-4.772 13.327-7.234 9.634-5.888 13.661-8.2 16.537-6.19a3.95 3.95 0 0 1 1.483 4.272l-40.716 204.945a61.061 61.061 0 0 1-28.543 39.784 63.013 63.013 0 0 1-48.76 5.98l-167.158-46.55 16.562 58.78a3 3 0 0 1-2.076 3.7l-208.914 58.694a3 3 0 0 1-3.172-1.038l-32.571-41.54-17.883 36.252 97.462 39.246a3 3 0 0 1 1.84 2.3l17.689 107.443a3 3 0 0 1-1.188 2.908c-9.067 6.636-19.506 10.445-28.641 10.445zm94.5-422.782a143.373 143.373 0 0 0-40.879 5.945l-43.768 13.029-104.723 30.518a58.345 58.345 0 0 0-37.456 32.346l-88.4 186.236a57 57 0 0 0-2.223 44.369 55.014 55.014 0 0 0 30.9 31.433l171.4 68.931a56.949 56.949 0 0 0 20.669 3.975c7.39 0 15.9-2.984 23.589-8.234l-17.11-103.926-98.9-39.825a3 3 0 0 1-1.57-4.11l21.424-43.43a3 3 0 0 1 5.052-.523l34.273 43.712L620.043 382.8l-17.193-61.027a3 3 0 0 1 3.692-3.7l172.322 47.989a57 57 0 0 0 44.1-5.387 55.006 55.006 0 0 0 25.695-35.813L888.7 123.287c-2.441 1.267-5.82 3.332-8.344 4.875-10.918 6.673-16.069 9.433-19.559 7.85a4.341 4.341 0 0 1-2.482-3.287c-1.083-6.251-10.585-15.131-17.523-21.616-.825-.77-1.623-1.516-2.381-2.232l-72.365 25.605-19.441 90.344a3 3 0 0 1-3.693 2.272L575.43 183.261a142.622 142.622 0 0 0-31.755-3.572z" fill="#222433"/><path d="M263.432 438.185a40.868 40.868 0 1 1-24.232 78.061c-16.636-5.174-22.409-64.059-12.634-71.526a40.793 40.793 0 0 1 36.866-6.535zm63.789-199.369 23.249-11.579a40.868 40.868 0 1 1-50.765 63.409zM385.392 453.2a40.867 40.867 0 0 0 36.181 59.876c14.7-22.084 40.636-30.919 26.2-35.18-9.186-2.703-59.373-30.371-62.381-24.696z" fill="#5a38fd"/><circle cx="470.947" cy="350.303" fill="#5a38fd" r="40.868"/><path d="M856.813 305.232a40.858 40.858 0 1 1 12.671-63.314M667.8 340.492a40.877 40.877 0 1 1 35.389 9m-162.104-173.65a40.869 40.869 0 1 1-76.076 20.768 41.5 41.5 0 0 1 .271-4.741" fill="#5a38fd"/><path d="M379.432 401.273a2.994 2.994 0 0 1-2.361-1.145l-15.835-20.143a3 3 0 1 1 4.717-3.709l15.835 20.143a3 3 0 0 1-2.356 4.854zM358.006 444.7a2.941 2.941 0 0 1-1.021-.181l-14.785-5.351a3 3 0 0 1 2.043-5.641l14.788 5.356a3 3 0 0 1-1.022 5.821zm265.738-56.825a3 3 0 0 1-2.86-2.1l-33.766-107.118a3 3 0 0 1 5.723-1.8l33.766 107.119a3 3 0 0 1-2.863 3.9zM762.3 233.019a3 3 0 0 1-.9-.138l-18.629-5.822a3 3 0 1 1 1.789-5.727l18.629 5.822a3 3 0 0 1-.893 5.865z" fill="#222433"/><path d="M449.179 602.471a62.977 62.977 0 0 1-22.873-4.4L254.9 529.134a61.048 61.048 0 0 1-34.287-34.9 63.028 63.028 0 0 1 2.435-49.066L311.4 259.014a64.285 64.285 0 0 1 41.248-35.6l104.679-30.506 43.752-13.024a149.375 149.375 0 0 1 75.775-2.45L741.4 220.5l19.134-88.917a3 3 0 0 1 1.932-2.2l75.682-26.779a3 3 0 0 1 3.083.667 320.643 320.643 0 0 0 3.659 3.453c7.522 7.031 16.779 15.682 19.011 23.55 2.89-.855 9.3-4.772 13.327-7.234 9.634-5.888 13.661-8.2 16.537-6.19a3.95 3.95 0 0 1 1.483 4.272l-40.716 204.945a61.061 61.061 0 0 1-28.543 39.784 63.013 63.013 0 0 1-48.76 5.98l-167.158-46.55 16.562 58.78a3 3 0 0 1-2.076 3.7l-208.914 58.694a3 3 0 0 1-3.172-1.038l-32.571-41.54-17.883 36.252 97.462 39.246a3 3 0 0 1 1.84 2.3l17.689 107.443a3 3 0 0 1-1.188 2.908c-9.067 6.636-19.506 10.445-28.641 10.445zm94.5-422.782a143.373 143.373 0 0 0-40.879 5.945l-43.768 13.029-104.723 30.518a58.345 58.345 0 0 0-37.456 32.346l-88.4 186.236a57 57 0 0 0-2.223 44.369 55.014 55.014 0 0 0 30.9 31.433l171.4 68.931a56.949 56.949 0 0 0 20.669 3.975c7.39 0 15.9-2.984 23.589-8.234l-17.11-103.926-98.9-39.825a3 3 0 0 1-1.57-4.11l21.424-43.43a3 3 0 0 1 5.052-.523l34.273 43.712L620.043 382.8l-17.193-61.027a3 3 0 0 1 3.692-3.7l172.322 47.989a57 57 0 0 0 44.1-5.387 55.006 55.006 0 0 0 25.695-35.813L888.7 123.287c-2.441 1.267-5.82 3.332-8.344 4.875-10.918 6.673-16.069 9.433-19.559 7.85a4.341 4.341 0 0 1-2.482-3.287c-1.083-6.251-10.585-15.131-17.523-21.616-.825-.77-1.623-1.516-2.381-2.232l-72.365 25.605-19.441 90.344a3 3 0 0 1-3.693 2.272L575.43 183.261a142.622 142.622 0 0 0-31.755-3.572z" fill="#222433"/><path d="M371.083 94.954 353.7 134.631a25.042 25.042 0 0 1 .993-47.962z" fill="#fff"/><path d="M353.7 137.633a2.984 2.984 0 0 1-.921-.147 28.042 28.042 0 0 1 1.112-53.708 3 3 0 0 1 2.156.213l16.391 8.285a3 3 0 0 1 1.394 3.882l-17.384 39.678a3 3 0 0 1-2.748 1.797zm.714-47.743a22.044 22.044 0 0 0-2.307 40.9L367.2 96.351z" fill="#222433"/><path d="m426.972 34.4-71.024 13.975-3.493 15.136c-.521 6.345-.514 14.919 1.593 21.317a49.187 49.187 0 0 0 4.994 10.67 49.261 49.261 0 0 0 29.291 73.237l7.165 44.292a32.312 32.312 0 0 0 63.802-10.246l-10.96-67.749a49.36 49.36 0 0 0 .74-24.944z" fill="#fff"/><path d="M427.324 243.224a35.328 35.328 0 0 1-34.788-29.724l-6.861-42.412a52.263 52.263 0 0 1-30.121-75.576 52.386 52.386 0 0 1-4.356-9.749c-2.493-7.573-2.156-17.347-1.733-22.5a2.98 2.98 0 0 1 .067-.43l3.493-15.133a3 3 0 0 1 2.343-2.268l71.026-13.972a3 3 0 0 1 3.459 2.1l22.111 75.684c.016.056.031.112.044.169a52.484 52.484 0 0 1-.6 25.8l10.858 67.087A35.312 35.312 0 0 1 433 242.769a35.814 35.814 0 0 1-5.676.455zm-71.9-179.252c-.629 7.914-.1 15.164 1.47 19.918a46.322 46.322 0 0 0 4.689 10.021 3 3 0 0 1 .015 3.15 46.26 46.26 0 0 0 27.509 68.776 3 3 0 0 1 2.184 2.418l7.165 44.293a29.311 29.311 0 1 0 57.882-9.291l-10.96-67.745a3 3 0 0 1 .083-1.323 46.459 46.459 0 0 0 .715-23.345l-21.314-72.968-66.428 13.067z" fill="#222433"/><path d="m438.19 99.649-12.07 1.486-6.52-45.06a19.332 19.332 0 0 0-10.479-14.322 18.827 18.827 0 0 0-23.054 5.007l-4.308 5.356a15.9 15.9 0 0 1-17.931 4.774 9.179 9.179 0 0 0-12.342 8.616c1.319-24.23 17.232-37.375 33.882-42.848l.053-.017a49.2 49.2 0 0 1 62.123 31.338 57.038 57.038 0 0 1 1.426 5.408" fill="#fff"/><path d="M426.116 104.135a3 3 0 0 1-2.964-2.571L416.631 56.5a16.339 16.339 0 0 0-8.848-12.065 15.925 15.925 0 0 0-19.383 4.211L384.1 54a18.892 18.892 0 0 1-21.333 5.7 6.128 6.128 0 0 0-2.1-.366 6.183 6.183 0 0 0-6.117 5.3c-.025.347-.048.693-.067 1.045a3 3 0 0 1-6-.164A12.313 12.313 0 0 1 348.58 64c1.644-21.156 14.646-37.218 35.852-44.187a52.268 52.268 0 0 1 65.962 33.227 59.963 59.963 0 0 1 1.512 5.732A3 3 0 0 1 446.033 60a53.658 53.658 0 0 0-1.351-5.126A46.242 46.242 0 0 0 386.36 25.49c-9.483 3.117-24.432 10.737-29.885 28.581a12.133 12.133 0 0 1 4.19-.743 12.159 12.159 0 0 1 4.193.745 12.9 12.9 0 0 0 14.58-3.861l4.288-5.332a21.963 21.963 0 0 1 26.733-5.811 22.365 22.365 0 0 1 12.1 16.542l6.1 42.187 9.154-1.127a3 3 0 1 1 .733 5.955l-12.07 1.486a2.894 2.894 0 0 1-.36.023z" fill="#222433"/><circle cx="460.701" cy="84.717" fill="#fff" r="27.013"/><g fill="#222433"><path d="M460.7 114.731a30.013 30.013 0 1 1 30.013-30.013 30.047 30.047 0 0 1-30.013 30.013zm0-54.026a24.013 24.013 0 1 0 24.013 24.013A24.04 24.04 0 0 0 460.7 60.705z"/><path d="M454.881 87.718A3 3 0 0 1 453 82.377l12.925-10.363a3 3 0 1 1 3.754 4.681l-12.923 10.364a2.994 2.994 0 0 1-1.875.659zM401.2 173.361a52.369 52.369 0 0 1-13.579-1.8 3 3 0 0 1 1.557-5.795 45.894 45.894 0 0 0 39.025-7.215 3 3 0 1 1 3.526 4.855 51.877 51.877 0 0 1-30.529 9.955zm-30.269-64.103a3 3 0 0 1-2.967-3.444l4.657-31.088a3 3 0 1 1 5.934.888l-4.115 27.468 12.994-.636a3 3 0 0 1 .293 5.993l-16.65.815a2.372 2.372 0 0 1-.146.004zm6.283 23.17a3 3 0 0 1-.41-5.972l18.4-2.561a3 3 0 1 1 .828 5.943l-18.4 2.561a2.967 2.967 0 0 1-.418.029z"/><circle cx="397.245" cy="74.588" r="3.726"/><circle cx="363.712" cy="82.854" r="3.726"/></g><path d="M893.689 113.931c-24.411 70.917-117.976 34.4-114.448 12.474-14.89-23.477-27.238-60.5-34.055-72.359l-7.024-39.5c-1.687-9.491 9.947-15.7 15.435-8.24l37.222 50.606-11.884-16.426.616 1.612s22.757-16.136 35.849-23.307c10.249-5.687 20.246-1.2 28.1 4.906a38.566 38.566 0 0 0 19.067 7.511 26.158 26.158 0 0 1 16.369 8.639 37.337 37.337 0 0 0 14.462 9.669c9.038 3.423 18.313 12.282 12.789 32.977l-.453 1.466c-3.942 19.539-12.559 37.921-20.445 31.253-6.556-5.595-6.564-11.343-5.21-41.5-4.257 37.493-15.9 62.355-26.8 55.73s-13.03-20.609-7.187-69.119c-14.191 48.1-22.993 66-33.186 58.831-11.46-8.075-7.565-42.424-.162-80.6" fill="#fff"/><path d="M835.394 158.529a88.673 88.673 0 0 1-21.5-2.715c-19.391-4.859-38.319-16.766-37.736-28.683-9.182-14.738-17.285-34.169-23.821-49.844-3.9-9.356-7.27-17.435-9.747-21.745a3.009 3.009 0 0 1-.353-.97l-7.024-39.5a12.812 12.812 0 0 1 7.523-14.11 10.75 10.75 0 0 1 13.278 3.567l24.459 33.255c6.42-4.484 22.9-15.826 33.48-21.624 9.576-5.311 20.139-3.575 31.385 5.169a35.662 35.662 0 0 0 17.546 6.9 29.3 29.3 0 0 1 18.288 9.627A34.047 34.047 0 0 0 894.43 46.7a24.654 24.654 0 0 1 13.47 11.428c3.475 6.59 3.872 15.048 1.178 25.139l-.031.111-.409 1.323c-.919 4.516-4.976 22.628-12.333 30.831-6.667 18.881-19.03 32.228-35.788 38.621a70.645 70.645 0 0 1-25.123 4.376zM748.05 53.017c2.628 4.713 5.97 12.727 9.82 21.961 6.579 15.778 14.768 35.416 23.9 49.821a3 3 0 0 1 .428 2.083c-.522 3.249 2.525 7.7 8.152 11.908 6.407 4.792 15.283 8.772 24.993 11.2 26.214 6.572 58.224 1.641 72.864-30.409a8.392 8.392 0 0 1-4.864-2.082c-3.607-3.079-5.513-6.194-6.376-11.819-3.771 12.945-9 23.463-15.743 26.77a9.506 9.506 0 0 1-9.514-.443c-9.752-5.924-13.083-16.487-11.4-43.427-7.831 22.651-13.7 32.314-20.2 34.584a9.537 9.537 0 0 1-8.938-1.556c-10.854-7.647-11.267-32.655-1.383-83.622a3 3 0 0 1 5.891 1.143c-3.3 17.041-13.362 68.9-1.055 77.573 1.7 1.2 2.771 1.056 3.509.8 7.857-2.74 17.526-32.449 25.072-58.024a3 3 0 0 1 5.856 1.207c-5.459 45.316-4.166 60.164 5.765 66.2a3.57 3.57 0 0 0 3.756.184c6.331-3.1 14.823-21.229 18.509-53.689a3 3 0 0 1 5.977.474c-1.343 29.918-1.185 34.517 4.161 39.079.992.837 1.587.729 2.062.563a5.7 5.7 0 0 0 2-1.373 3.051 3.051 0 0 1 .482-.5c3.653-4.034 8.128-13.959 11.013-28.254.02-.1.044-.195.073-.291l.436-1.41c5.028-18.911-3.187-26.4-10.968-29.343a40.576 40.576 0 0 1-15.6-10.431 23.329 23.329 0 0 0-14.542-7.7A41.667 41.667 0 0 1 841.7 26.1c-9.34-7.263-17.454-8.782-24.846-4.684-10.084 5.526-26.222 16.608-32.719 21.136l9.118 12.6a3 3 0 0 1-4.853 3.538l-10.252-13.941a3 3 0 0 1-1.4-1.58l-.256-.67L751.18 8.084a4.789 4.789 0 0 0-6.08-1.608 6.755 6.755 0 0 0-3.986 7.546z" fill="#222433"/><path d="m452.667 484.667 20.842-9.2c31.786-16.65 129.823-38.54 133.666-14.321 2.328 14.67-24.335 15.253-71.374 28.759 43.662-4.658 76.147-4.89 76.73 10.479.7 15.369-43.547 19.794-77.312 23.054 22.238 7.8 52.744 17.232 51.347 28.992-2.1 17-28.526 10.013-46.457 7.219-25.5-3.959-39.588 7.1-51.464 20.143-.349.349-.7.815-1.048 1.164-27.711 28.526-76.147 8.5-76.613-31.2a70.34 70.34 0 0 1 41.683-65.089z" fill="#fff"/><path d="M456.315 597.4a48.4 48.4 0 0 1-17.954-3.508 47.393 47.393 0 0 1-30.377-44.1 73.288 73.288 0 0 1 43.461-67.862h.011l20.75-9.158c27.316-14.259 106.344-33.6 130.278-21.577 5.522 2.773 7.21 6.691 7.654 9.49 1.355 8.542-5.153 12.577-10.167 14.869-6.606 3.02-16.631 5.426-29.324 8.472l-1.073.256c22.491-.8 35.189 1.424 41.51 6.893a12.262 12.262 0 0 1 4.444 9.1c.692 15.2-28.589 20.731-66.514 24.789 21.72 7.634 41.943 15.836 40.531 27.724a13.877 13.877 0 0 1-5.488 9.9c-8.327 6.174-23.908 3.463-37.657 1.069-2.336-.407-4.606-.8-6.753-1.138-22.753-3.526-35.96 5.119-48.785 19.2a1.049 1.049 0 0 1-.1.1c-.123.123-.243.27-.367.413-.226.264-.454.526-.681.751a46.3 46.3 0 0 1-33.399 14.317zm-2.432-109.99a67.286 67.286 0 0 0-39.9 62.308 41.483 41.483 0 0 0 26.6 38.6 40.573 40.573 0 0 0 44.861-9.45c.154-.154.276-.3.4-.444.207-.242.416-.482.623-.693 12.216-13.4 27.237-25.217 54.1-21.044 2.182.34 4.488.742 6.86 1.155 11.938 2.078 26.794 4.664 33.056.022a8 8 0 0 0 3.1-5.8c.993-8.356-25.827-17.639-43.575-23.782-1.972-.682-3.909-1.353-5.787-2.011a3 3 0 0 1 .705-5.818c26.273-2.536 75.18-7.258 74.6-19.931a6.329 6.329 0 0 0-2.376-4.817c-9.475-8.2-42.942-5.813-71.038-2.814a3 3 0 0 1-1.146-5.868c13.062-3.75 24.331-6.454 34.273-8.839 25.114-6.026 36.165-9.008 34.966-16.567-.33-2.081-1.776-3.739-4.421-5.067-9.365-4.706-31.219-4.19-59.958 1.414-25.191 4.912-51.286 13.015-64.932 20.162-.059.031-.12.061-.181.087zM368.758 71.542a3.012 3.012 0 0 1-.813-.112l-5.937-1.666a3 3 0 0 1 1.621-5.778l5.938 1.666a3 3 0 0 1-.809 5.89zm17.66-1.667a3 3 0 0 1-1.94-5.289l10.828-9.17a3 3 0 0 1 3.877 4.578l-10.828 9.17a2.985 2.985 0 0 1-1.937.711z" fill="#222433"/></svg></g><g transform="translate(915.0 52.0) rotate(0.0 69.0 58.0) scale(0.5656896905103506 0.56565223115671)"><svg width="243.95" height="205.073" viewBox="0 0 243.95 205.073"><path d="M121.975 0C64.121 0 63.13 46.05 63.13 54.103v3.81H30.79C13.785 57.913 0 71.698 0 88.703v85.58c0 17.005 13.785 30.79 30.79 30.79h182.37c17.005 0 30.79-13.785 30.79-30.79v-85.58c0-17.005-13.785-30.79-30.79-30.79h-32.256l.006-3.81C181.044 49.068 176.961 0 121.975 0zm35.41 57.913h-70.82c1.705-17.98 15.341-32.832 35.41-32.832 18.579 0 33.513 13.413 35.41 32.832z" fill="#5a38fd"/></svg></g><g transform="translate(796.0 186.0) rotate(0.0 381.5 235.5) scale(0.7925642309426217 0.792818511891436)"><svg width="962.698" height="594.083" viewBox="0 0 962.698 594.083"><path d="m689.086 411.871-23.9-186.32L962.7 84.085C952.485 81.7 950.47 66.169 950.273 62.3c-.851-16.681 1.532-34.724 6.638-62.3L0 376.345v80.714l302.211-86.4 261.471 104.454s8.221-20.332 35.264-32.8c19.947-9.199 45.267-21.424 90.14-30.442z" fill="#82b1ff"/><g fill="#222433"><path d="M576.488 464.634a3 3 0 0 1-1.208-.255L403.394 388.65a3 3 0 1 1 2.42-5.49L577.7 458.888a3 3 0 0 1-1.212 5.746zM800.952 92.53a3 3 0 0 1-1.025-5.82l113.626-41.281a3 3 0 1 1 2.049 5.639l-113.626 41.28a2.991 2.991 0 0 1-1.024.182zM87.654 406.2a3 3 0 0 1-.624-5.935l67.827-14.486a3 3 0 1 1 1.254 5.867l-67.827 14.482a3.1 3.1 0 0 1-.63.072zm500.413 47.55a2.987 2.987 0 0 1-2.113-.871l-51.5-51.122a3 3 0 1 1 4.226-4.257l51.5 51.121a3 3 0 0 1-2.113 5.129zm-497.53-70.157a3 3 0 0 1-1.1-5.791L127.4 362.81a3 3 0 1 1 2.2 5.58l-37.963 14.992a2.963 2.963 0 0 1-1.1.211z"/></g><path d="m723.932 526.426 10.306 13.355-13.959 15.845c1.692 10.022-6.552 23.085-20.681 31.418s-29.55 9.227-37.5 2.9l-21.1 3.453-17.271-39.427s.758-1.034 3.992-2.736 10.3-7.66 11.83-9.957 14.724-15.575 27.745-17.788 21.481-.082 31.149 1.7c9.915 1.832 21.657 2.385 25.489 1.237z" fill="#82b2fc"/><path d="M662.1 589.554a3 3 0 0 1-2.943-2.437l-4.426-23.15a3 3 0 0 1 5.893-1.127l4.426 23.15a3 3 0 0 1-2.95 3.564zm56.51-31.573a2.985 2.985 0 0 1-1.72-.544l-15.659-10.981a3 3 0 0 1 3.445-4.912l15.66 10.981a3 3 0 0 1-1.726 5.456z" fill="#222433"/></svg></g><g transform="translate(740.0 185.0) rotate(0.0 83.5 82.5) scale(0.8176654915785351 0.8140108534780465)"><svg width="204.24" height="202.7" viewBox="0 0 204.24 202.7"><path d="M120.57 36.8h-36.9a59.281 59.281 0 0 0-56.9 42.4l-25.5 85.5a29.494 29.494 0 0 0 28.3 38h145.1a29.527 29.527 0 0 0 28.3-38l-25.5-85.5a59.493 59.493 0 0 0-56.9-42.4z" fill="#5a38fd"/><g fill="#222433"><path d="M122.87 179.7h-41.5a18.526 18.526 0 0 1-18.228-14.55l-5.9-25.576A18.674 18.674 0 0 1 75.47 116.7h53.3a18.675 18.675 0 0 1 18.221 22.886l-5.9 25.587A18.7 18.7 0 0 1 122.87 179.7zm-47.4-57a12.663 12.663 0 0 0-9.977 4.824 12.517 12.517 0 0 0-2.4 10.69l5.9 25.612A12.568 12.568 0 0 0 81.37 173.7h41.5a12.719 12.719 0 0 0 12.38-9.89l5.9-25.584a12.526 12.526 0 0 0-2.4-10.7 12.663 12.663 0 0 0-9.977-4.824zm62.8-33.4h-72.3a3 3 0 0 1 0-6h72.3a3 3 0 0 1 0 6zm0-23.3h-70.9a3 3 0 0 1-3-3V29.4A29.434 29.434 0 0 1 93.77 0h18.1a29.434 29.434 0 0 1 29.4 29.4V63a3 3 0 0 1-3 3zm-67.9-6h64.9V29.4A23.426 23.426 0 0 0 111.87 6h-18.1a23.426 23.426 0 0 0-23.4 23.4z"/></g></svg></g><g transform="translate(886.0 591.0) rotate(0.0 277.0 222.5) scale(0.8030638189308525 0.8027071976680002)"><svg width="689.858" height="554.374" viewBox="0 0 689.858 554.374"><path d="M26.6 230.574h636.658v323.801H26.6z" fill="#5a38fd"/><rect fill="#5a38fd" height="57.686" rx="24.772" width="689.858" y="218.062"/><rect fill="#82b1ff" height="51.199" rx="15.34" width="271.546" x="47.382" y="166.671"/><rect fill="#fff" height="51.199" rx="15.34" width="271.546" x="361.001" y="165.507"/><path d="M617.206 219.705H376.341A18.361 18.361 0 0 1 358 201.365v-20.518a18.362 18.362 0 0 1 18.34-18.34h240.866a18.362 18.362 0 0 1 18.341 18.34v20.518a18.361 18.361 0 0 1-18.341 18.34zm-240.865-51.2A12.353 12.353 0 0 0 364 180.847v20.518a12.354 12.354 0 0 0 12.34 12.34h240.866a12.355 12.355 0 0 0 12.341-12.34v-20.518a12.354 12.354 0 0 0-12.341-12.34z" fill="#222433"/><rect fill="#82b1ff" height="51.199" rx="15.34" width="271.546" x="361.001" y="111.349"/><path d="M100.3 218.957a3 3 0 0 1-3-3V113.56a3 3 0 0 1 6 0v102.4a3 3 0 0 1-3 2.997z" fill="#222433"/><rect fill="#fff" height="123.676" rx="11.73" width="123.676" x="39.097" y="3"/><path d="M151.044 129.676H50.827A14.745 14.745 0 0 1 36.1 114.947V14.73A14.746 14.746 0 0 1 50.827 0h100.217a14.747 14.747 0 0 1 14.73 14.73v100.217a14.746 14.746 0 0 1-14.73 14.729zM50.827 6a8.739 8.739 0 0 0-8.727 8.73v100.217a8.739 8.739 0 0 0 8.729 8.729h100.215a8.74 8.74 0 0 0 8.73-8.729V14.73a8.74 8.74 0 0 0-8.73-8.73z" fill="#222433"/><circle cx="114.999" cy="90.52" fill="#fff" r="16.212"/><path d="M115 109.723a19.2 19.2 0 1 1 13.327-5.369A19.159 19.159 0 0 1 115 109.723zm0-32.408a13.2 13.2 0 1 0 9.517 4.038A13.169 13.169 0 0 0 115 77.315z" fill="#5a38fd"/><circle cx="84.289" cy="40.411" fill="#fff" r="16.212"/><path d="M84.288 59.623A19.213 19.213 0 1 1 97.873 54a19.084 19.084 0 0 1-13.585 5.623zm0-32.418a13.209 13.209 0 1 0 9.343 22.548 13.206 13.206 0 0 0-9.343-22.548zM67.873 99.644a3 3 0 0 1-2.052-5.191l65.054-60.9a3 3 0 0 1 4.1 4.381l-65.054 60.9a3 3 0 0 1-2.048.81z" fill="#5a38fd"/><path d="M662.547 278.748H27.968a3 3 0 0 1 0-6h634.579a3 3 0 0 1 0 6z" fill="#222433"/></svg></g><g transform="translate(705.0 287.0) rotate(0.0 148.0 33.0) scale(0.8210909413696685 0.8169226770308574)"><svg width="360.496" height="80.791" viewBox="0 0 360.496 80.791"><rect fill="#fff" height="74.229" rx="11.73" width="74.229" x="260.586" y="3"/><path d="M323.085 80.229h-50.768A14.746 14.746 0 0 1 257.586 65.5V14.73A14.747 14.747 0 0 1 272.317 0h50.768a14.748 14.748 0 0 1 14.731 14.73V65.5a14.747 14.747 0 0 1-14.731 14.729zM272.317 6a8.74 8.74 0 0 0-8.731 8.73V65.5a8.74 8.74 0 0 0 8.731 8.729h50.768a8.74 8.74 0 0 0 8.731-8.729V14.73A8.74 8.74 0 0 0 323.085 6z"/><path d="M297.019 62.371c-4.843 0-9.6-2.136-13.577-6.213a3 3 0 1 1 4.292-4.192c5.185 5.313 10.231 4.672 12.778 3.822 3.344-1.121 5.92-3.792 6.263-6.494.254-1.994-.762-3.749-3.02-5.216-1.538-1-4.273-1.344-6.918-1.676-5.674-.712-14.249-1.788-14.249-11.968a9.391 9.391 0 0 1 3.632-7.793c6.3-4.8 18.583-1.623 19.964-1.245a3 3 0 0 1-1.588 5.787c-4.116-1.121-11.757-2.047-14.74.231a3.37 3.37 0 0 0-1.268 3.02c0 4.486 2.332 5.178 9 6.015 3.317.417 6.747.846 9.441 2.6 4.169 2.711 6.248 6.722 5.7 11-.634 4.981-4.777 9.573-10.31 11.426a16.924 16.924 0 0 1-5.4.896z" fill="#82b1ff"/><path d="M297.7 68.542a3 3 0 0 1-3-3V15.925a3 3 0 0 1 6 0v49.617a3 3 0 0 1-3 3z" fill="#82b1ff"/><path d="M357.5 80.791H3a3 3 0 0 1 0-6h354.5a3 3 0 0 1 0 6z"/></svg></g><g transform="translate(871.0 104.0) rotate(0.0 148.0 33.0) scale(0.8210909413696685 0.8169226770308574)"><svg width="360.496" height="80.791" viewBox="0 0 360.496 80.791"><rect fill="#fff" height="74.229" rx="11.73" width="74.229" x="260.586" y="3"/><path d="M323.085 80.229h-50.768A14.746 14.746 0 0 1 257.586 65.5V14.73A14.747 14.747 0 0 1 272.317 0h50.768a14.748 14.748 0 0 1 14.731 14.73V65.5a14.747 14.747 0 0 1-14.731 14.729zM272.317 6a8.74 8.74 0 0 0-8.731 8.73V65.5a8.74 8.74 0 0 0 8.731 8.729h50.768a8.74 8.74 0 0 0 8.731-8.729V14.73A8.74 8.74 0 0 0 323.085 6z"/><path d="M297.019 62.371c-4.843 0-9.6-2.136-13.577-6.213a3 3 0 1 1 4.292-4.192c5.185 5.313 10.231 4.672 12.778 3.822 3.344-1.121 5.92-3.792 6.263-6.494.254-1.994-.762-3.749-3.02-5.216-1.538-1-4.273-1.344-6.918-1.676-5.674-.712-14.249-1.788-14.249-11.968a9.391 9.391 0 0 1 3.632-7.793c6.3-4.8 18.583-1.623 19.964-1.245a3 3 0 0 1-1.588 5.787c-4.116-1.121-11.757-2.047-14.74.231a3.37 3.37 0 0 0-1.268 3.02c0 4.486 2.332 5.178 9 6.015 3.317.417 6.747.846 9.441 2.6 4.169 2.711 6.248 6.722 5.7 11-.634 4.981-4.777 9.573-10.31 11.426a16.924 16.924 0 0 1-5.4.896z" fill="#82b1ff"/><path d="M297.7 68.542a3 3 0 0 1-3-3V15.925a3 3 0 0 1 6 0v49.617a3 3 0 0 1-3 3z" fill="#82b1ff"/><path d="M357.5 80.791H3a3 3 0 0 1 0-6h354.5a3 3 0 0 1 0 6z"/></svg></g><g transform="translate(286.0 140.0) rotate(0.0 367.0 449.5) scale(0.7943361881819224 0.7941443558332066)"><svg width="924.042" height="1132.036" viewBox="0 0 924.042 1132.036"><path d="m638.022 459.512 9.654-36.379c2.319-8.742-8.758-14.62-14.7-7.8l-40.271 46.257 12.877-15.018" fill="#fff"/><path d="M592.7 464.589a3 3 0 0 1-2.276-4.953l12.876-15.017a2.993 2.993 0 0 1 .743-.626l26.669-30.63a11.541 11.541 0 0 1 19.858 10.54l-9.653 36.379a3 3 0 0 1-5.8-1.539l9.653-36.379a5.541 5.541 0 0 0-9.534-5.062l-40.274 46.257a2.991 2.991 0 0 1-2.262 1.03z" fill="#222433"/><path d="m466.511 144.9-14.077-19.54-.028-.7a71.947 71.947 0 0 0-2.184-45.17l-97.447 18.853-29.065 87.116-9.832 59.29 72.762 18.713 7.99-48.156a72.241 72.241 0 0 0 59.056-57.146l.093.035-.1-2.463 8.309-1.165a6.579 6.579 0 0 0 4.529-9.664z" fill="#fff"/><path d="M386.64 266.462a3.012 3.012 0 0 1-.747-.095l-72.762-18.713a3 3 0 0 1-2.213-3.4l9.832-59.289a3.036 3.036 0 0 1 .114-.458l29.066-87.114a3 3 0 0 1 2.276-2l97.446-18.851a3 3 0 0 1 3.368 1.866 75.467 75.467 0 0 1 2.526 46.135l13.3 18.467a3.085 3.085 0 0 1 .289.428 9.577 9.577 0 0 1-6.6 14.073 2.205 2.205 0 0 1-.138.023l-5.628.789a2.989 2.989 0 0 1-.308 1.2 75.639 75.639 0 0 1-59.225 58.357l-7.636 46.073a3 3 0 0 1-2.96 2.509zm-69.353-23.934 66.929 17.213 7.454-44.926a3 3 0 0 1 2.471-2.469 69.582 69.582 0 0 0 56.6-54.772c0-.011 0-.022.007-.032l-.068-1.688a3 3 0 0 1 2.58-3.093l8.229-1.154a3.574 3.574 0 0 0 2.8-4.166 3.5 3.5 0 0 0-.308-.92L450 127.113a3 3 0 0 1-.563-1.632l-.028-.7a3.012 3.012 0 0 1 .107-.926 69.454 69.454 0 0 0-1.237-40.936l-93.213 18.033-28.435 85.229z" fill="#222433"/><path d="M491.13 59.285v13.866a22.37 22.37 0 0 1-20.586 22.425l-43.162 3.249.524 32.637a3.678 3.678 0 0 1-3.126 3.61s-6.031-21.4-10.739-26.92c-4.372-5.123-18.047-11.246-24.75-10.64-6.914.627-19.989 9.278-23.022 15.521-4.331 8.915-2.329 29.173 11.2 38.031-11.41 14.025-33.677 37.928-52.815 37.936-.373 0-.745-.011-1.118-.035a3.472 3.472 0 0 1-2.794-1.64c-1.2-1.934-28.012-39.535-20.865-91.786 7.9-57.72 60.836-71.537 63.456-72.073l21.459-5.553a27.041 27.041 0 0 0 12.738-7.452A34 34 0 0 1 428.663.648l11.189 2.189a22.574 22.574 0 0 1 19.98 20.282 15.579 15.579 0 0 0 11.411 13.553l3.26.885a22.573 22.573 0 0 1 16.627 21.728z" fill="#5a38fd"/><path d="M233.959 1009.428c-11.26 43.444 37.4 50.831 37.4 50.831a65.2 65.2 0 0 1 48.9 68.777H137.632L89.1 1029.1l-30.552 45L3 1035.435l98.672-142.067z" fill="#fff"/><path d="M320.259 1132.036H137.633a3 3 0 0 1-2.7-1.69l-46.264-95.267-27.638 40.712a3 3 0 0 1-4.2.777L1.286 1037.9a3 3 0 0 1-.75-4.173l98.672-142.069a3 3 0 0 1 4.442-.544l132.287 116.059a3 3 0 0 1 .926 3.008c-2.918 11.258-1.808 20.9 3.3 28.656 9.837 14.942 31.432 18.422 31.649 18.456a2.841 2.841 0 0 1 .286.058 67.967 67.967 0 0 1 51.152 71.942 3 3 0 0 1-2.991 2.743zm-180.748-6h177.935a61.97 61.97 0 0 0-46.7-62.836c-2.282-.372-24.6-4.394-35.579-21.032-5.811-8.807-7.341-19.459-4.556-31.683l-128.4-112.646-95.037 136.846 50.6 35.225 28.847-42.493a3 3 0 0 1 5.181.374z" fill="#222433"/><path d="M411.582 811.342a94.276 94.276 0 0 1-15.718 24.887l-156.294 178.12L97.777 889.951l125.574-143.12L192.3 591.112l125.547 41.661z" fill="#fff"/><path d="M239.569 1017.349a2.986 2.986 0 0 1-1.977-.745L95.8 892.206a3 3 0 0 1-.277-4.234l124.6-142.007L189.355 591.7a3 3 0 0 1 3.888-3.435l125.547 41.66a3.008 3.008 0 0 1 1.711 1.454l93.737 178.569a3 3 0 0 1 .1 2.581 97.09 97.09 0 0 1-16.219 25.678l-156.294 178.121a2.993 2.993 0 0 1-2.256 1.021zM102.011 889.674l137.283 120.442L393.609 834.25a91.143 91.143 0 0 0 14.645-22.792l-92.5-176.219-119.5-39.655 30.044 150.66a2.993 2.993 0 0 1-.688 2.565z" fill="#222433"/><path d="M744.131 947.469c7.516 82.637 127.767 112.7 127.767 112.7a65.2 65.2 0 0 1 48.9 68.777H738.186l-96.873-54.4.594 54.4H574.27l.088-129.054z" fill="#fff"/><path d="M920.8 1131.943H738.185a3 3 0 0 1-1.468-.384L644.37 1079.7l.537 49.207a3 3 0 0 1-3 3.033H574.27a3 3 0 0 1-3-3l.087-129.054a3 3 0 0 1 2.116-2.864L743.246 944.6a3 3 0 0 1 3.872 2.6c2.077 22.83 15.056 56.1 65.094 84.94a266.705 266.705 0 0 0 60.415 25.117 67.969 67.969 0 0 1 51.163 71.943 3 3 0 0 1-2.99 2.743zm-181.831-6h179.019a61.972 61.972 0 0 0-46.829-62.87 267.559 267.559 0 0 1-61.822-25.667c-39.988-23.016-63.346-52.686-67.783-86l-164.2 50.7-.083 123.84h61.6l-.561-51.364a3 3 0 0 1 4.469-2.65z" fill="#222433"/><path d="M183.675 436.684c-19.144 24.515-27.64 56.887-21.557 92.215a124.284 124.284 0 0 0 111.263 101.974l286.079 373.606L751.7 945.3 511.711 632.411 397.023 483.738z" fill="#fff"/><path d="M559.46 1007.479a3 3 0 0 1-2.382-1.176L271.8 633.737a127.553 127.553 0 0 1-112.63-104.312c-6.026-35 1.839-68.584 22.145-94.587a3 3 0 0 1 3.011-1.083l213.344 47.053a3 3 0 0 1 1.728 1.1L514.086 630.58l240 312.889a3 3 0 0 1-1.5 4.694l-192.244 59.183a2.988 2.988 0 0 1-.882.133zM184.893 440.025c-18.4 24.441-25.436 55.74-19.819 88.365a121.536 121.536 0 0 0 108.574 99.5 3 3 0 0 1 2.115 1.164L560.572 1001 746.7 943.7 509.331 634.238 395.313 486.433z" fill="#222433"/><path d="M604.06 573.453a39.165 39.165 0 0 0 21.713-15.053c.308-.419.605-.826.89-1.233 9.6-13.953 20.086-19.32 46.988-27.692 21.57-5.748 38.426-21.277 33.518-37.621-1.717-5.21-7.477-7.849-24.54-1.8 19.956-8.353 25.533-19.585 20.418-29.984-2.566-5.217-10.837-7.9-28.711-2.255 25.24-11.525 23.192-16.2 21.591-23.346-8.719-20.24-69.078 4.489-97.193 24.4 0 0-12.563 8.334-25.084 15.983" fill="#fff"/><path d="M604.058 576.454a3 3 0 0 1-.776-5.9 36.252 36.252 0 0 0 20.05-13.9c.319-.435.6-.823.876-1.211 10.2-14.822 21.591-20.443 48.552-28.833.04-.013.079-.025.119-.034 13.442-3.583 24.779-11.155 29.586-19.76a17.654 17.654 0 0 0 1.831-14.1 3.856 3.856 0 0 0-2.043-2.429c-2.161-1.061-7.151-1.472-18.621 2.6a3 3 0 0 1-2.161-5.594c10.614-4.443 17.387-9.892 19.587-15.759a12.373 12.373 0 0 0-.7-10.133c-2.3-4.687-11.694-4.954-25.115-.719a3 3 0 0 1-2.149-5.59c10.643-4.86 17.006-8.8 19.452-12.037 1.671-2.212 1.4-3.8.623-7.192l-.1-.433c-1.062-2.262-3.1-3.792-6.227-4.671-18.6-5.215-64.3 14.934-86.372 30.561-.2.136-12.828 8.5-25.254 16.1a3 3 0 0 1-3.128-5.121c12.328-7.531 24.865-15.84 24.99-15.923 24.048-17.031 70.509-37.257 91.387-31.388 5.014 1.408 8.452 4.2 10.219 8.305a2.982 2.982 0 0 1 .172.53l.161.7c1.493 6.522 1.183 11.233-7.081 17.142 8.241.172 12.067 3.55 13.806 7.087a18.4 18.4 0 0 1 .936 14.886 25.121 25.121 0 0 1-7.257 9.961 13.983 13.983 0 0 1 5.475 1.3 9.848 9.848 0 0 1 5.124 6.016 23.782 23.782 0 0 1-2.315 18.827c-5.647 10.111-18.062 18.562-33.219 22.615-25.882 8.057-36.068 13.024-45.349 26.511-.315.447-.624.873-.948 1.31a42.224 42.224 0 0 1-23.35 16.167 2.96 2.96 0 0 1-.781.109z" fill="#222433"/><path d="M354.339 319.251 312.12 543.968a58.219 58.219 0 0 0 57.2 68.976c1.968 0 3.947-.1 5.926-.3l204.924-20.958q.318-.03.639-.065a58.217 58.217 0 1 0-12.481-115.763l-127.39 13.028 27.832-148.13a58.217 58.217 0 0 0-46.457-67.968c-2.375-.846-114.367-29.556-114.367-29.556a72.046 72.046 0 0 0-14.554-2.015 73.206 73.206 0 0 0-10.747.419c-34.218 4.009-56.154 32.537-63.189 66.146L183.7 436.7l141.374 38.376" fill="#fff"/><g fill="#222433"><path d="M369.324 615.944a61.216 61.216 0 0 1-60.152-72.53l12.428-66.172-138.69-37.649a3 3 0 0 1-2.1-3.7l35.73-128.819c8.068-38.4 33.257-64.61 65.756-68.417a76.383 76.383 0 0 1 11.2-.438 75.177 75.177 0 0 1 15.163 2.1c18.325 4.7 108.014 27.7 114.354 29.55a61.287 61.287 0 0 1 48.706 71.443l-27.086 144.18 123.393-12.622a61.217 61.217 0 0 1 13.108 121.73l-.672.07-204.906 20.956a62.936 62.936 0 0 1-6.232.318zm-41.356-140.082-12.9 68.66a55.218 55.218 0 0 0 44.062 64.471 55.444 55.444 0 0 0 10.195.951c1.817 0 3.71-.1 5.627-.288l205.532-21.021a55.217 55.217 0 1 0-11.831-109.8l-127.405 13.033a3 3 0 0 1-3.254-3.538l27.827-148.13a55.279 55.279 0 0 0-44.063-64.466 3.091 3.091 0 0 1-.453-.122c-2.8-.9-83.319-21.585-114.1-29.477a69.144 69.144 0 0 0-13.916-1.923 70.233 70.233 0 0 0-10.3.4c-35.7 4.182-54.709 35.689-60.588 63.779a3.685 3.685 0 0 1-.046.188L187.4 434.593l135.319 36.733L351.391 318.7a3 3 0 1 1 5.9 1.107l-29.233 155.579a3.029 3.029 0 0 1-.089.475zM230.777 778.37a3 3 0 0 1-2.9-2.245l-7.429-28.538a3 3 0 1 1 5.807-1.512l7.429 28.538a3 3 0 0 1-2.906 3.757z"/><circle cx="445.145" cy="118.193" r="5.158"/><path d="M383.344 219.172c-10.578 0-20.454-1.853-28.585-5.436a3 3 0 0 1 2.42-5.49c10.092 4.448 23.277 5.955 37.125 4.239a3 3 0 0 1 .736 5.955 95.514 95.514 0 0 1-11.696.732z"/></g><path d="M394.7 218.9a3.493 3.493 0 0 1-3.5-3.488v-.192l3.337-63.816s22.374-2.2 23.069-25.209c1.9-.35 9.328-6.46 9.675-4.563l1.5 27.206 26.266 5.886a3.493 3.493 0 0 1 2.645 4.172l-.023.1a76.03 76.03 0 0 1-62.43 59.864 3.383 3.383 0 0 1-.539.04z" fill="#5a38fd"/><path d="M391.758 157.877a31.661 31.661 0 1 1 31.449-27.938 3 3 0 0 1-5.959-.7 25.659 25.659 0 1 0-20.44 22.14 3 3 0 1 1 1.177 5.882 31.647 31.647 0 0 1-6.227.616z" fill="#222433"/><path d="M401.3 137.785a3 3 0 0 1-.67-.076l-15.963-3.656a3 3 0 1 1 1.34-5.847l10.224 2.341-6.586-15.45a3 3 0 0 1 5.519-2.353l8.9 20.864a3 3 0 0 1-2.76 4.177zm38.206 54.06a3 3 0 0 1-2.963-2.552 8.125 8.125 0 0 0-5.329-6.71 15.07 15.07 0 0 0-5.145-1.059h-.027a3 3 0 0 1-.066-6c5.055-.084 14.934 2.486 16.5 12.874a3 3 0 0 1-2.971 3.447zm7.294-81.393a2.985 2.985 0 0 1-1.463-.384l-9.254-5.183a3 3 0 0 1 2.932-5.234l9.253 5.183a3 3 0 0 1-1.468 5.618z" fill="#222433"/></svg></g><g transform="translate(270.0 1033.0) rotate(0.0 677.5 5.0) scale(0.8331283817019183 0.8771929824561403)"><svg width="1626.4" height="11.4" viewBox="0 0 1626.4 11.4"><path d="M1623.4 8.8H3c-1.7 0-3-1.3-3-3s1.3-3 3-3h1620.4c1.7 0 3 1.3 3 3s-1.3 3-3 3z" fill="#222433"/></svg></g></svg>