<svg xmlns="http://www.w3.org/2000/svg" viewBox="0 0 3000 3000" width="3000" height="3000"><g transform="translate(465.59999999999997 934.8) rotate(0.0 1092.6 899.9999999999999) scale(1.2028317075949806 1.2039843856602783)"><svg width="1816.713" height="1495.036" viewBox="0 0 1816.713 1495.036"><linearGradient id="a" gradientUnits="userSpaceOnUse" x1="1054.696" x2="1863.167" y1="704.445" y2="659.637"><stop offset=".347" stop-color="#3658c1"/><stop offset="1" stop-color="#111"/></linearGradient><path d="m508.182 228.163-2.1 66.868L40.856 719.307l2.1-66.868z" fill="#3658c1"/><path d="M40.856 720.308a1.001 1.001 0 0 1-1-1.031l2.1-66.869a.998.998 0 0 1 .326-.708l465.226-424.276a1.001 1.001 0 0 1 1.674.77l-2.1 66.869a.998.998 0 0 1-.326.708L41.53 720.046c-.188.171-.43.261-.674.261zm3.086-67.415-2.012 64.082 463.166-422.398 2.013-64.082z" fill="#111"/><path d="m3.1 656.537 481.32-438.954 23.762 10.58L42.956 652.439z" fill="#b0c3ff"/><path d="M3.1 657.537a1 1 0 0 1-.673-1.738l481.319-438.955a1.001 1.001 0 0 1 1.081-.175l23.763 10.58a1 1 0 0 1 .268 1.652L43.63 653.178a.994.994 0 0 1-.572.256l-39.856 4.098a.877.877 0 0 1-.103.005zm481.51-438.774L6.015 655.231l36.511-3.753 463.852-423.024-21.769-9.691z" fill="#111"/><path d="M771.586 1494.036 48.557 1172.123l751.406-371.795 737.001 314.994z" fill="#fff"/><path d="M771.586 1495.036c-.139 0-.277-.029-.407-.086L48.15 1173.036a1.001 1.001 0 0 1-.036-1.81L799.52 799.432a.997.997 0 0 1 .836-.023l737.001 314.995a1 1 0 0 1 .05 1.816L772.03 1494.934c-.14.069-.292.104-.443.104zM50.908 1172.075l720.656 320.857 763.011-377.543-734.582-313.96z" fill="#111"/><path d="m1743.926 545.047-206.962 570.275-737.001-314.994 47.224-641.395z" fill="#3658c1"/><path d="M1536.964 1116.322a.991.991 0 0 1-.393-.081L799.569 801.246a.999.999 0 0 1-.604-.993l47.224-641.395a.998.998 0 0 1 1.393-.845l896.739 386.114a1 1 0 0 1 .545 1.26l-206.962 570.275a1 1 0 0 1-.94.659zM801.012 799.689l735.373 314.298 206.279-568.395-894.583-385.185-47.068 639.282z" fill="#111"/><path d="m48.557 1172.123 47.224-641.395 751.406-371.795-47.224 641.395z" fill="#3658c1"/><path d="M48.557 1173.122a.999.999 0 0 1-.997-1.073l47.224-641.395a.999.999 0 0 1 .554-.823l751.405-371.794a.999.999 0 0 1 1.44.97l-47.224 641.395a.999.999 0 0 1-.554.823L49 1173.019c-.14.069-.292.104-.443.104zm48.18-641.751L49.683 1170.45l749.324-370.765 47.054-639.079L96.736 531.371z" fill="#111"/><path d="m1815.713 433.427-44.334 123.843-27.453-12.223-882.767-393.033-27.453-12.223L844.467 1z" fill="#fff"/><path d="M1771.379 558.27c-.139 0-.277-.029-.406-.086l-937.674-417.48a.999.999 0 0 1-.59-.991L843.47.923a1 1 0 0 1 1.403-.837l971.245 432.427a.998.998 0 0 1 .535 1.25l-44.334 123.843a1.002 1.002 0 0 1-.942.664zM834.758 139.164l936.043 416.753 43.658-121.955L845.355 2.49l-10.597 136.675z" fill="#111"/><path d="m95.781 530.728-27.453-12.223 765.378-378.714 27.453 12.223z" fill="#fff"/><path d="M95.781 531.728c-.139 0-.277-.029-.407-.086l-27.453-12.223a1.001 1.001 0 0 1-.036-1.81l765.378-378.714a.996.996 0 0 1 .85-.018l27.453 12.223a1.001 1.001 0 0 1 .036 1.81L96.224 531.624c-.14.069-.292.104-.443.104zm-25.102-13.271 25.079 11.166 763.05-377.561-25.079-11.167z" fill="#111"/><path d="m847.187 158.933 9.167-118.062 873.893 389.082-33.821 94.475z" fill="#b0c3ff"/><path d="M1696.426 525.428a.99.99 0 0 1-.396-.082L846.791 159.851a1 1 0 0 1-.602-.996l9.167-118.062a1.001 1.001 0 0 1 1.403-.836l873.893 389.082a.998.998 0 0 1 .535 1.25l-33.821 94.475a.997.997 0 0 1-.941.663zM848.239 158.297l847.604 364.792 33.15-92.6L857.241 42.361l-9.002 115.937z" fill="#111"/><path d="m68.328 518.505 10.761-138.791L844.467 1l-10.761 138.791z" fill="#fff"/><path d="M68.328 519.505a1 1 0 0 1-.997-1.077l10.761-138.792a.999.999 0 0 1 .554-.819L844.024.103a1.001 1.001 0 0 1 1.44.974l-10.761 138.791a.999.999 0 0 1-.554.819L68.771 519.402c-.14.069-.292.104-.443.104zm11.714-139.147L69.46 516.829l763.293-377.682L843.335 2.676z" fill="#111"/><path d="m95.781 530.728 10.761-138.791L857.948 20.142l-10.761 138.791z" fill="#b0c3ff"/><path d="M95.781 531.728a1 1 0 0 1-.997-1.077l10.761-138.792a.999.999 0 0 1 .554-.819L857.504 19.245a1.001 1.001 0 0 1 1.44.974l-10.761 138.792a.999.999 0 0 1-.554.819L96.224 531.624c-.14.069-.292.104-.443.104zm11.714-139.147L96.914 529.052l749.319-370.763 10.582-136.471-749.32 370.762z" fill="#111"/><path d="M164.552 383.179 856.354 40.871l873.893 389.082 85.466 3.473L844.467 1 79.089 379.714l85.462 3.465z" fill="#fff"/><path d="M1815.713 434.427h-.041l-85.466-3.474a1.009 1.009 0 0 1-.366-.085L856.376 41.975 164.995 384.076c-.15.074-.316.107-.484.103l-85.463-3.465a1 1 0 0 1-.403-1.895L844.023.104a.996.996 0 0 1 .85-.018l971.246 432.427a1 1 0 0 1-.407 1.913zm-85.234-5.465 80.055 3.253L844.489 2.104 83.042 378.873l81.294 3.296L855.911 39.975a1 1 0 0 1 .85-.018l873.718 389.004z" fill="#111"/><path d="M856.354 41.871a1 1 0 0 1-.958-.715L843.509 1.285a1 1 0 0 1 1.917-.571l11.887 39.871a1 1 0 0 1-.959 1.286z" fill="#111"/><path d="m978.548 923.761 765.378-378.714-206.962 570.275-765.378 378.714z" fill="#b0c3ff"/><path d="M771.586 1495.036a.998.998 0 0 1-.94-1.341L977.607 923.42a1 1 0 0 1 .497-.555l765.378-378.714a.999.999 0 0 1 1.383 1.237l-206.962 570.275a1.004 1.004 0 0 1-.497.555l-765.377 378.714a1.007 1.007 0 0 1-.443.104zm207.765-570.557-205.975 567.555 762.785-377.431 205.975-567.555z" fill="#111"/><path d="m978.548 923.761-206.962 570.275-723.029-321.913 47.224-641.395z" fill="#fff"/><g fill="#111"><path d="M771.586 1495.036c-.139 0-.277-.029-.407-.086L48.15 1173.036a.998.998 0 0 1-.59-.987l47.224-641.395a.998.998 0 0 1 1.403-.841l882.767 393.033a1 1 0 0 1 .533 1.255l-206.961 570.275a.997.997 0 0 1-.94.659zM49.605 1171.495l721.407 321.191 206.277-568.39L96.674 532.22l-47.068 639.275zm1352.824-64.84c9.465-4.683 21.518-20.548 26.92-35.431l120.834-332.955c5.401-14.883 2.106-23.153-7.358-18.469-9.464 4.683-21.517 20.546-26.918 35.43l-120.834 332.955c-5.401 14.883-2.107 23.154 7.357 18.471"/><path d="M1397.726 1108.968c-1.778 0-3.004-.651-3.822-1.382-3.328-2.977-3.245-10.173.228-19.743l120.833-332.955c5.469-15.067 17.768-31.21 27.416-35.985 4.793-2.372 7.522-1.328 8.97-.035 3.328 2.977 3.245 10.172-.228 19.742l-120.835 332.955c-5.47 15.069-17.768 31.212-27.417 35.986-2.084 1.031-3.778 1.417-5.146 1.417zm149.797-389.479c-1.428 0-2.984.578-4.255 1.207-9.252 4.578-21.105 20.223-26.422 34.875l-120.834 332.955c-3.086 8.504-3.383 15.237-.774 17.57 1.786 1.599 4.655.699 6.748-.337 9.251-4.577 21.105-20.223 26.422-34.876l120.835-332.955c3.087-8.503 3.384-15.235.775-17.568-.702-.628-1.571-.87-2.495-.87zm-231.033 429.689c9.464-4.683 21.517-20.547 26.919-35.431l120.834-332.955c5.401-14.883 2.106-23.153-7.358-18.47-9.465 4.683-21.518 20.547-26.919 35.43l-120.834 332.955c-5.401 14.883-2.107 23.154 7.358 18.47"/><path d="M1311.787 1151.491c-1.778 0-3.005-.651-3.822-1.382-3.328-2.977-3.245-10.173.228-19.743l120.834-332.955c5.469-15.068 17.768-31.211 27.416-35.985 4.793-2.372 7.524-1.328 8.97-.035 3.328 2.977 3.244 10.172-.229 19.742l-120.834 332.955c-5.468 15.068-17.767 31.211-27.416 35.986-2.084 1.031-3.779 1.417-5.147 1.417zm149.797-389.479c-1.428 0-2.984.578-4.255 1.207-9.252 4.578-21.104 20.223-26.422 34.875l-120.835 332.955c-3.086 8.504-3.383 15.237-.774 17.57 1.787 1.599 4.656.698 6.749-.337 9.252-4.578 21.105-20.223 26.422-34.876l120.833-332.955c3.087-8.504 3.384-15.236.775-17.569-.701-.628-1.571-.87-2.494-.87zm-145.094 387.166h.01zm-85.954 42.531c9.465-4.683 21.518-20.548 26.92-35.431l120.834-332.955c5.401-14.883 2.106-23.153-7.358-18.469-9.464 4.683-21.517 20.546-26.918 35.43l-120.834 332.955c-5.401 14.883-2.107 23.154 7.357 18.471"/><path d="M1225.833 1194.022c-1.778 0-3.005-.651-3.822-1.382-3.329-2.977-3.246-10.173.228-19.743l120.834-332.955c5.468-15.068 17.767-31.21 27.415-35.984 4.793-2.372 7.523-1.329 8.97-.035 3.328 2.977 3.245 10.172-.228 19.742l-120.834 332.955c-5.469 15.068-17.768 31.211-27.417 35.986-2.084 1.031-3.778 1.417-5.146 1.417zm149.797-389.479c-1.427 0-2.984.579-4.255 1.208-9.251 4.577-21.104 20.222-26.422 34.874l-120.834 332.955c-3.086 8.504-3.383 15.237-.775 17.57 1.787 1.599 4.656.7 6.749-.337 9.251-4.578 21.105-20.223 26.423-34.876l120.834-332.955c3.086-8.504 3.383-15.236.774-17.569-.702-.628-1.571-.87-2.495-.87zm-231.047 429.696c9.465-4.683 21.517-20.547 26.919-35.431l120.834-332.955c5.401-14.883 2.107-23.153-7.358-18.47s-21.517 20.546-26.918 35.43l-120.834 332.955c-5.401 14.883-2.108 23.154 7.357 18.471"/><path d="M1139.879 1236.552c-1.778 0-3.005-.651-3.822-1.382-3.328-2.977-3.245-10.173.228-19.743l120.834-332.955c5.468-15.067 17.767-31.21 27.415-35.985 4.794-2.372 7.524-1.328 8.969-.035 3.328 2.977 3.245 10.172-.228 19.742l-120.834 332.955c-5.469 15.069-17.768 31.212-27.416 35.986-2.084 1.031-3.779 1.417-5.147 1.417zm149.797-389.479c-1.427 0-2.983.578-4.254 1.207-9.251 4.578-21.104 20.223-26.422 34.875l-120.834 332.955c-3.086 8.504-3.383 15.237-.775 17.57 1.787 1.598 4.656.698 6.749-.337 9.251-4.577 21.104-20.222 26.422-34.875l120.834-332.955c3.086-8.504 3.383-15.236.774-17.569-.702-.628-1.571-.87-2.495-.87zm-231.046 429.696c9.465-4.683 21.517-20.547 26.919-35.431l120.834-332.955c5.401-14.883 2.107-23.153-7.358-18.47s-21.518 20.547-26.919 35.43l-120.834 332.955c-5.401 14.883-2.107 23.154 7.358 18.47"/><path d="M1053.926 1279.082c-1.778 0-3.005-.651-3.822-1.382-3.328-2.977-3.245-10.173.228-19.743l120.834-332.955c5.469-15.068 17.768-31.211 27.416-35.985 4.794-2.372 7.524-1.328 8.969-.035 3.328 2.977 3.245 10.172-.229 19.742l-120.834 332.955c-5.469 15.069-17.767 31.212-27.416 35.986-2.084 1.031-3.779 1.417-5.147 1.417zm149.797-389.479c-1.427 0-2.983.578-4.254 1.207-9.251 4.578-21.105 20.223-26.423 34.875l-120.834 332.955c-3.086 8.504-3.383 15.236-.774 17.569 1.785 1.598 4.656.699 6.749-.337 9.251-4.578 21.104-20.223 26.422-34.875l120.834-332.955c3.086-8.504 3.383-15.236.775-17.569-.702-.628-1.571-.87-2.495-.87zm-231.047 429.696c9.464-4.683 21.517-20.547 26.919-35.431l120.834-332.955c5.401-14.883 2.106-23.153-7.358-18.47-9.465 4.683-21.518 20.547-26.919 35.43l-120.834 332.955c-5.401 14.883-2.107 23.154 7.358 18.47"/><path d="M967.973 1321.613c-1.778 0-3.005-.651-3.822-1.382-3.328-2.977-3.245-10.173.228-19.743l120.834-332.955c5.468-15.067 17.767-31.21 27.416-35.985 4.792-2.372 7.522-1.328 8.969-.035 3.328 2.977 3.245 10.172-.228 19.742l-120.834 332.955c-5.468 15.068-17.767 31.211-27.416 35.986-2.084 1.031-3.779 1.417-5.147 1.417zm149.797-389.479c-1.427 0-2.983.578-4.254 1.207-9.252 4.578-21.105 20.223-26.423 34.875l-120.834 332.955c-3.086 8.504-3.383 15.236-.774 17.569 1.786 1.599 4.655.699 6.749-.337 9.252-4.578 21.105-20.223 26.422-34.875l120.834-332.955c3.086-8.504 3.383-15.236.774-17.569-.702-.628-1.571-.87-2.495-.87zM972.677 1319.3h.01z"/></g><path d="m1050.335 812.141 765.378-378.714-44.334 123.843-765.378 378.714z" fill="url(#a)"/><path d="M1006.001 936.984a.997.997 0 0 1-.941-1.336l44.334-123.843c.087-.244.266-.444.498-.56l765.377-378.714a.999.999 0 0 1 1.384 1.233l-44.334 123.843a1.004 1.004 0 0 1-.498.56l-765.378 378.714a1.007 1.007 0 0 1-.443.104zm45.14-124.126-43.363 121.131 762.796-377.437 43.363-121.131z" fill="#111"/><path d="m1050.335 812.141-44.334 123.843-27.453-12.223L95.781 530.728l-27.453-12.223 10.761-138.791z" fill="#3658c1"/><path d="M1006.001 936.984c-.139 0-.277-.029-.407-.086L67.921 519.419a.999.999 0 0 1-.59-.991l10.761-138.792a1 1 0 0 1 1.403-.837l971.247 432.427a1 1 0 0 1 .535 1.25l-44.334 123.843a1.002 1.002 0 0 1-.941.664zM69.379 517.879l936.043 416.753 43.659-121.955L79.977 381.204 69.38 517.879z" fill="#111"/><path d="m79.089 379.714 971.246 432.427 765.378-378.714-85.466-3.473-691.802 342.308-873.893-389.083-85.462-3.465z" fill="#fff"/><path d="M1050.335 813.141c-.139 0-.277-.029-.407-.086L78.682 380.627a1 1 0 0 1-.567-1.141c.109-.468.531-.816 1.014-.771l85.463 3.465c.126.005.25.034.366.085l873.464 388.892 691.381-342.101c.15-.074.314-.108.484-.103l85.466 3.474a1 1 0 0 1 .403 1.895l-765.377 378.713c-.14.069-.292.104-.443.104zM84.267 380.925l966.046 430.111 761.447-376.769-81.298-3.305-691.574 342.195c-.268.132-.58.138-.85.018L164.32 384.17l-80.053-3.246z" fill="#111"/><path d="M1050.335 813.141a1 1 0 0 1-.958-.715l-11.891-39.879a1 1 0 0 1 1.917-.571l11.891 39.879a1 1 0 0 1-.959 1.286z" fill="#111"/><path d="M1448.58 646.855c13.426-12.245 23.599-7.102 23.016 11.452-.584 18.61-11.69 43.172-25.116 55.417l-481.32 438.954 2.1-66.868 481.32-438.954z" fill="#3658c1"/><path d="M965.16 1153.677a1.001 1.001 0 0 1-.999-1.031l2.1-66.868a.998.998 0 0 1 .326-.708l481.32-438.954.674.739-.674-.739c6.68-6.093 12.946-8.255 17.631-6.1 4.853 2.234 7.359 8.74 7.059 18.321-.597 19.005-11.772 43.658-25.442 56.124l-481.319 438.954c-.188.171-.43.261-.674.261zm3.087-67.414-2.013 64.082 479.572-437.36c13.098-11.944 24.219-36.486 24.79-54.709.271-8.6-1.878-14.593-5.895-16.442-3.914-1.802-9.398.245-15.447 5.76z" fill="#111"/><path d="m967.26 1085.808-2.1 66.869L1 723.405l2.1-66.868z" fill="#3658c1"/><path d="M965.16 1153.677c-.138 0-.277-.029-.407-.086L.593 724.319a1.003 1.003 0 0 1-.593-.945l2.1-66.869a1 1 0 0 1 1.406-.882l964.16 429.272c.371.166.605.539.593.945l-2.1 66.868a1 1 0 0 1-.999.969zM2.021 722.765l962.187 428.393 2.032-64.709L4.053 658.056zm1446.487-32.32c4.95-4.514 9.118-13.694 9.334-20.555.215-6.84-3.605-8.755-8.555-4.24-4.935 4.501-9.119 13.714-9.334 20.555s3.62 8.741 8.555 4.24" fill="#111"/><path d="M1443.654 693.892c-.602 0-1.172-.12-1.702-.364-2.053-.945-3.118-3.557-2.998-7.354.222-7.069 4.555-16.607 9.659-21.262 2.666-2.431 5.231-3.262 7.229-2.345 2.054.946 3.119 3.558 2.999 7.355-.225 7.188-4.468 16.528-9.659 21.262-1.957 1.786-3.862 2.708-5.527 2.708zm10.476-29.689c-1.139 0-2.604.758-4.169 2.186-4.76 4.341-8.801 13.244-9.009 19.847-.091 2.9.578 4.896 1.836 5.475 1.205.554 3.042-.177 5.046-2.005 4.761-4.341 8.802-13.245 9.009-19.847.091-2.901-.579-4.896-1.838-5.476a2.076 2.076 0 0 0-.875-.181z" fill="#111"/><path d="m967.26 1085.808 481.319-438.954c6.273-5.72 11.831-7.637 15.918-6.173l-23.531-10.503c-4.108-1.62-9.76.27-16.15 6.096L959.591 1060.55l7.668 25.257z" fill="#b0c3ff"/><path d="M967.26 1086.808a1.001 1.001 0 0 1-.957-.71l-7.669-25.257a.999.999 0 0 1 .283-1.029l465.226-424.276c6.449-5.883 12.553-8.119 17.19-6.288l23.571 10.52a1 1 0 0 1-.744 1.855c-3.875-1.388-9.166.734-14.908 5.971l-481.319 438.954c-.187.17-.428.261-.674.261zm-6.529-25.944 7.025 23.138 480.148-437.886c4.027-3.672 7.932-5.924 11.425-6.646l-18.771-8.378c-3.846-1.515-9.213.582-15.068 5.922l-464.76 423.851z" fill="#111"/><path d="M959.592 1060.551 42.956 652.439 3.1 656.536l964.16 429.272z" fill="#b0c3ff"/><path d="M967.26 1086.808c-.138 0-.276-.028-.407-.086L2.693 657.45a1 1 0 0 1 .304-1.908l39.856-4.098a.974.974 0 0 1 .509.081l916.635 408.112a.998.998 0 0 1 .55.623l7.669 25.257a1.002 1.002 0 0 1-.957 1.29zM6.932 657.148l958.736 426.857-6.9-22.726L42.793 653.461z" fill="#111"/><path d="M1464.729 640.758c-.075-.03-.155-.05-.231-.077l.222.099z" fill="#fff"/><path d="M1464.721 641.781c-.139 0-.277-.029-.406-.086l-.223-.099a1.001 1.001 0 0 1 .745-1.855c.127.04.192.062.257.086a1.001 1.001 0 0 1 .569 1.296l-.009.022a1.004 1.004 0 0 1-.932.636z" fill="#111"/></svg></g><g transform="translate(1446.0 945.5999999999999) rotate(0.0 564.0 650.4000000000001) scale(1.1990509639179203 1.1997952378975916)"><svg width="940.744" height="1084.185" viewBox="0 0 940.744 1084.185"><path d="m794.895 244.09-310.796 821.59L1 822.59 311.796 1z" fill="#fff"/><path d="M484.099 1066.68a.996.996 0 0 1-.449-.107L.551 823.483a1 1 0 0 1-.486-1.247L310.861.647a1.002 1.002 0 0 1 1.385-.539l483.099 243.089c.457.23.667.769.486 1.248l-310.797 821.589a1.002 1.002 0 0 1-.935.646zM2.254 822.101l481.302 242.186 310.086-819.709L312.339 2.393z" fill="#111"/><path d="m484.099 1065.679 142.507-376.718c-21.192-40.093-53.44-73.698-94.335-94.276-79.315-39.91-167.737-18.918-222.813 45.187-16.909-32.024-43.465-59.451-77.248-76.451-45.466-22.878-94.02-21.816-132.57-1.59L1 822.59l483.099 243.09z" fill="#b0c3ff"/><path d="M484.1 1066.679a.996.996 0 0 1-.449-.107L.551 823.483a1 1 0 0 1-.486-1.247l98.642-260.758c.087-.229.254-.418.471-.532 40.551-21.275 89.203-20.699 133.483 1.583 32.149 16.176 59.443 42.986 76.996 75.588 27.408-31.447 62.617-52.467 101.911-60.822 40.639-8.642 82.533-2.936 121.153 16.497 39.852 20.053 72.622 52.8 94.77 94.703a.999.999 0 0 1 .052.821l-142.507 376.718a1.005 1.005 0 0 1-.935.646zM2.254 822.101l481.304 242.186 141.954-375.256c-21.949-41.343-54.337-73.65-93.689-93.452-76.416-38.451-165.474-20.39-221.604 44.946a1.003 1.003 0 0 1-1.643-.185c-17.329-32.82-44.609-59.82-76.813-76.024-43.575-21.927-91.416-22.566-131.319-1.773z" fill="#111"/><path d="m794.895 244.09 144.849 17.506-310.796 821.589-144.849-17.505z" fill="#3658c1"/><path d="M628.949 1084.186a.982.982 0 0 1-.121-.007l-144.85-17.506a1 1 0 0 1-.815-1.347l310.797-821.59a1.003 1.003 0 0 1 1.056-.639l144.849 17.506a1 1 0 0 1 .815 1.347l-310.796 821.59a1 1 0 0 1-.935.646zm-143.464-19.346 142.805 17.259 310.067-819.663-142.804-17.259z" fill="#111"/><path d="m801.51 270.691-27.551 72.831 112.944 13.65 27.55-72.831z" fill="#b0c3ff"/><path d="M886.903 358.171a.993.993 0 0 1-.121-.007l-112.943-13.65a1 1 0 0 1-.815-1.347l27.551-72.831a.998.998 0 0 1 1.056-.639l112.943 13.65a1 1 0 0 1 .815 1.347l-27.551 72.831a1 1 0 0 1-.935.646zm-111.558-15.49 110.898 13.403 26.822-70.904-110.898-13.403z" fill="#111"/><path d="m665.548 630.107-156.172 412.839 112.944 13.65 156.171-412.839z" fill="#b0c3ff"/><path d="M622.321 1057.596a.993.993 0 0 1-.121-.007l-112.944-13.65a1 1 0 0 1-.815-1.347l156.172-412.84a.99.99 0 0 1 1.056-.639l112.943 13.65a1 1 0 0 1 .815 1.347l-156.171 412.84a1 1 0 0 1-.935.646zm-111.559-15.49 110.899 13.403 155.442-410.913-110.898-13.403z" fill="#111"/><path d="m311.796 1 144.849 17.506 483.099 243.09-144.849-17.506z" fill="#b0c3ff"/><path d="M939.745 262.596a.993.993 0 0 1-.121-.007l-144.849-17.506a.974.974 0 0 1-.329-.1L311.348 1.893a.999.999 0 0 1 .569-1.886l144.849 17.506a.974.974 0 0 1 .329.1l483.099 243.09a.999.999 0 0 1-.448 1.893zm-144.556-19.478 138.992 16.798-477.83-240.438L317.359 2.68z" fill="#111"/></svg></g><g transform="translate(718.8 634.8) rotate(0.0 294.0 681.0) scale(1.1988720815722351 1.1999386815475508)"><svg width="490.461" height="1135.058" viewBox="0 0 490.461 1135.058"><path d="m488.706 997.833-19.528-102.634c5.776 30.23-22.723 59.829-50.355 77.952-74.524 49.883-200.919 71.692-283.034 49.763-39.574-10.583-61.773-29.451-66.004-51.688l19.528 102.634c4.231 22.238 26.43 41.105 66.004 51.688 82.112 21.929 208.512.119 283.034-49.763 27.661-18.095 56.142-47.759 50.355-77.952z" fill="#fff"/><path d="M227.58 1135.087c-26.491 0-51.144-2.864-72.521-8.573-38.556-10.311-62.253-28.944-66.729-52.468L68.802 971.413a1 1 0 1 1 1.965-.374c4.325 22.728 27.508 40.808 65.28 50.909 82.013 21.901 208.616-.362 282.219-49.628 13.47-8.833 56.829-40.449 49.945-76.85l-.016-.083a1 1 0 1 1 1.965-.374l.019.098 19.509 102.536c7.23 37.721-37.048 69.986-50.79 78.976-36.054 24.133-85.438 42.587-139.046 51.959-24.837 4.342-49.25 6.506-72.272 6.506zM73.218 983.916l17.078 89.757c4.323 22.728 27.507 40.808 65.28 50.909 21.419 5.72 45.893 8.428 71.656 8.429 72.884.002 156.182-21.657 210.562-58.057 13.489-8.824 56.926-40.432 49.93-76.933s-17.06-89.663-17.06-89.663c-3.528 31.756-39.214 57.707-51.292 65.629-36.056 24.133-85.439 42.588-139.047 51.959-53.416 9.337-104.837 8.604-144.794-2.066-31.438-8.408-52.999-22.351-62.313-39.965z" fill="#111"/><path d="m469.178 895.199-47.41-249.18c5.776 30.23-22.722 59.829-50.356 77.951-74.524 49.883-200.919 71.691-283.034 49.764-39.574-10.583-61.773-29.451-66.004-51.688l47.41 249.18c4.231 22.238 26.43 41.105 66.004 51.688 82.112 21.929 208.512.119 283.034-49.763 27.662-18.089 56.142-47.764 50.355-77.952z" fill="#b0c3ff"/><path d="M208.051 1032.453c-26.491 0-51.144-2.864-72.521-8.573-38.555-10.311-62.252-28.944-66.729-52.467l-47.41-249.18a1 1 0 1 1 1.965-.374c4.324 22.728 27.508 40.808 65.28 50.91 82.012 21.898 208.618-.363 282.218-49.629 13.479-8.839 56.893-40.495 49.93-76.933a1 1 0 0 1 1.965-.375l47.411 249.18c7.232 37.733-37.047 69.989-50.791 78.976-36.054 24.132-85.438 42.587-139.046 51.958-24.837 4.342-49.25 6.506-72.272 6.506zM25.807 734.736l44.96 236.303c4.325 22.728 27.508 40.808 65.28 50.909 21.418 5.72 45.893 8.428 71.656 8.429 72.884.002 156.182-21.657 210.563-58.057 13.489-8.821 56.929-40.42 49.93-76.933s-44.942-236.208-44.942-236.208c-3.528 31.757-39.214 57.707-51.293 65.628-36.056 24.134-85.438 42.588-139.046 51.959-53.415 9.338-104.836 8.604-144.794-2.065-31.438-8.408-52.999-22.351-62.313-39.965z" fill="#111"/><path d="m421.768 646.02-13.625-71.608c.069.363.118.682.157.978-9.244-47.634-23.106-86.274-45.873-128.772L184.439 120.662l-9.037-47.496c1.942 10.161-7.638 20.111-16.927 26.203-25.051 16.768-67.537 24.098-95.14 16.728-13.302-3.558-20.764-9.9-22.187-17.375l9.036 47.494c-.117 1.22-45.923 368.652-45.962 369.781a19.3 19.3 0 0 1 .11-1.162c-5.55 47.606-4.229 88.159 4.417 135.602l13.625 71.608c4.231 22.238 26.43 41.105 66.004 51.688 82.113 21.928 208.512.119 283.034-49.763 27.678-18.086 56.13-47.766 50.355-77.952z" fill="#fff"/><path d="M160.641 783.274c-26.491 0-51.144-2.864-72.521-8.573-38.555-10.311-62.252-28.944-66.729-52.467L7.767 650.626C-.88 603.18-2.217 562.612 3.301 515.043c.012-.109.024-.219.038-.33a.96.96 0 0 1 .057-.229c1.641-13.601 14.771-119.1 31.602-254.278 7.695-61.81 13.813-110.942 14.176-113.951l-9.008-47.344a1 1 0 1 1 1.965-.374l.004.021c1.413 7.366 9.032 13.252 21.459 16.575 27.407 7.318 69.722-.125 94.324-16.593 4.449-2.917 18.764-13.341 16.501-25.185a1 1 0 0 1 1.965-.375l9.008 47.342 177.912 325.817c22.809 42.575 36.519 80.875 45.738 127.836a.993.993 0 0 1 .083.25l.006.032 13.618 71.577c7.226 37.765-37.049 69.997-50.79 78.976-36.053 24.133-85.438 42.588-139.046 51.959-24.837 4.342-49.25 6.506-72.272 6.506zM5.166 516.33c-5.352 46.907-3.977 87.048 4.567 133.929l13.623 71.601c4.324 22.728 27.508 40.808 65.28 50.909 21.419 5.72 45.893 8.428 71.656 8.429 72.884.002 156.183-21.657 210.563-58.057 13.488-8.813 56.921-40.389 49.929-76.933s-13.395-70.403-13.395-70.403a.937.937 0 0 1-.071-.225c-9.182-47.312-22.871-85.739-45.773-128.49L183.561 121.142a.99.99 0 0 1-.104-.292l-7.592-39.902c-2.929 9.426-13.133 16.827-16.841 19.259-25.011 16.74-68.056 24.305-95.946 16.857-9.036-2.417-15.697-6.193-19.505-10.952l7.595 39.918a.994.994 0 0 1 .013.283c-.042.442-5.158 41.539-14.197 114.139-13.32 106.99-31.558 253.472-31.762 255.615a1 1 0 0 1-.055.264z" fill="#111"/><ellipse cx="108.275" cy="85.945" fill="#fff" rx="68.332" ry="30.981" transform="matrix(.98237544 -.1869184 .1869184 .98237544 -14.156 21.753)"/><path d="M87.507 119.942c-8.785 0-17.122-.924-24.431-2.879-13.427-3.591-21.585-10.161-22.972-18.5-1.466-8.813 4.719-18.356 17.413-26.875 24.989-16.766 68.032-24.331 95.956-16.863 13.427 3.591 21.585 10.161 22.972 18.5 1.466 8.813-4.719 18.356-17.413 26.875-18.448 12.378-46.745 19.742-71.525 19.742zm41.456-66.011c-24.361 0-52.184 7.243-70.33 19.419-11.832 7.938-17.866 17.008-16.556 24.885 1.251 7.519 8.892 13.52 21.517 16.896 27.434 7.336 69.751-.104 94.323-16.592 11.832-7.938 17.866-17.008 16.556-24.885-1.251-7.519-8.892-13.52-21.517-16.896-7.174-1.918-15.367-2.827-23.993-2.827z" fill="#111"/><path d="m181.624 71.982-9.298-48.87c2.122 11.103-8.346 21.975-18.496 28.632-27.373 18.322-73.798 26.332-103.959 18.278-14.535-3.887-22.689-10.817-24.243-18.985l9.298 48.87c1.554 8.168 9.708 15.098 24.243 18.985 18.524 4.954 43.122 3.819 65.641-1.971 20.448-5.018 59.91-21.519 56.813-44.94z" fill="#3658c1"/><path d="M85.708 123.001c-9.782 0-18.938-1.041-26.798-3.143-14.407-3.853-23.274-10.872-24.967-19.764l-9.298-48.87a1 1 0 1 1 1.965-.374l.003.015c1.547 8.089 9.897 14.549 23.517 18.191 29.967 8 76.24-.136 103.144-18.143 4.87-3.194 20.536-14.603 18.073-27.591l-.003-.02V23.3a1 1 0 0 1 1.965-.375v.006l.004.015 9.295 48.849a.543.543 0 0 1 .009.056c3.353 25.357-40.418 41.833-57.566 46.042-13.188 3.39-26.78 5.107-39.341 5.107zM28.115 58.755l7.794 40.964c1.541 8.097 9.894 14.563 23.52 18.207 17.636 4.716 41.985 3.978 65.134-1.973 16.669-4.091 59.2-19.929 56.075-43.813l-7.785-40.915c-3.037 10.44-14.382 18.671-18.473 21.355-27.312 18.28-74.312 26.54-104.766 18.408-10.043-2.686-17.394-6.91-21.499-12.233z" fill="#111"/><ellipse cx="98.977" cy="37.075" fill="#b0c3ff" rx="74.666" ry="33.853" transform="matrix(.98237544 -.1869184 .1869184 .98237544 -5.185 19.153)"/><path d="M76.287 74.131c-9.589 0-18.696-1.009-26.674-3.143-14.634-3.914-23.524-11.066-25.034-20.14-1.596-9.591 5.148-19.987 18.987-29.273C70.851 3.268 117.85-4.995 148.341 3.161c14.634 3.914 23.524 11.066 25.034 20.14 1.596 9.591-5.148 19.987-18.987 29.273-20.146 13.517-51.041 21.557-78.102 21.557zm45.299-72.129c-26.64 0-57.063 7.919-76.905 21.234-12.96 8.695-19.567 18.64-18.13 27.284 1.373 8.254 9.747 14.837 23.579 18.537 30.002 8.022 76.274-.116 103.143-18.143 12.96-8.695 19.567-18.64 18.13-27.284-1.373-8.254-9.747-14.837-23.579-18.537-7.845-2.098-16.805-3.091-26.237-3.091z" fill="#111"/></svg></g><g transform="translate(1114.8 1351.2) rotate(0.0 311.4 517.7999999999998) scale(1.197800570436174 1.1989871823222327)"><svg width="519.953" height="863.729" viewBox="0 0 519.953 863.729"><path d="m433.853 178.564-64.669-85.401-1.258-8.201c.347 2.264.323 6.563.164 8.485-.67 6.129-3.031 12.528-7.232 19.096-26.958 42.147-119.31 75.257-206.274 73.953-60.559-.908-102.528-18.267-113.332-42.956-.85-2.11-2.037-5.857-2.387-8.138l1.261 8.224L4.01 244.528c-2.922 8.162-3.675 16.05-2.44 23.545-.026-.155-.058-.308-.081-.463 0 0 74.851 487.883 74.98 488.527 6.063 32.418 35.419 103.089 175.525 106.551 7.186.178 176.817 3.156 248.741-100.555l.003-.005-.003.006c.282-.439 1.172-1.803 1.397-2.248 18.646-31.345 17.577-55.598 16.08-70.049v.003c-.082-1.124-74.999-489.939-74.999-489.939.014.092.022.186.035.279-1.122-7.65-4.307-14.897-9.394-21.615z" fill="#fff"/><path d="M256.089 863.729c-2.186 0-3.592-.028-4.121-.042-61.025-1.508-107.676-15.86-138.658-42.66-25.364-21.94-34.569-47.298-37.825-64.707-.127-.634-67.323-438.62-74.984-488.559v-.002a1.011 1.011 0 0 1-.012-.121c-1.142-7.589-.274-15.474 2.58-23.448L39.1 143.526l-1.223-7.974a1 1 0 1 1 1.977-.303c.327 2.133 1.462 5.77 2.326 7.916 11.04 25.225 54.121 41.455 112.419 42.329 1.647.025 3.304.037 4.955.037 85.056 0 174.223-32.504 200.462-73.529 4.033-6.305 6.416-12.585 7.08-18.666.152-1.844.17-6.089-.157-8.225a1 1 0 1 1 1.983-.266l1.214 7.913 64.515 85.199c5.138 6.784 8.342 14.078 9.528 21.683a.837.837 0 0 1 .021.102v.004c7.602 49.593 73.74 481.149 74.991 489.885.007.033.012.066.016.1 1.783 17.21 1.553 40.795-16.215 70.663-.171.343-.754 1.252-1.284 2.073l-.123.191c-.012.018-.023.036-.036.053-66.937 96.492-217.899 101.014-245.458 101.014zM2.57 268.063c3.016 19.656 74.541 485.861 74.884 487.903 3.194 17.083 12.238 41.987 37.165 63.549 30.622 26.488 76.85 40.677 137.398 42.173 7.167.172 176.253 3.15 247.891-100.119l.119-.184c.311-.482 1.039-1.609 1.213-1.952 17.49-29.406 17.729-52.564 15.979-69.465l-.005-.056c-.364-2.931-72.451-473.294-74.931-489.47a.771.771 0 0 1-.024-.118c-1.087-7.411-4.184-14.529-9.202-21.158l-64.093-84.64c-.839 6.098-3.278 12.328-7.262 18.555-26.566 41.535-116.5 74.45-202.168 74.451-1.658 0-3.311-.012-4.964-.037-58.399-.876-101.836-17.186-113.82-42.644L4.952 244.865c-2.813 7.859-3.619 15.613-2.396 23.045.008.052.012.103.013.152z" fill="#111"/><ellipse cx="203.396" cy="110.182" fill="#fff" rx="166.408" ry="72.905" transform="matrix(.98844103 -.15160586 .15160586 .98844103 -14.354 32.11)"/><path d="M159.532 187.534c-1.657 0-3.309-.012-4.962-.037-56.561-.848-99.839-16.517-112.945-40.892-6.479-12.049-5.281-25.647 3.466-39.323 27.081-42.338 120.028-75.724 207.132-74.414 56.561.848 99.839 16.517 112.945 40.892 6.479 12.049 5.281 25.647-3.466 39.322-26.566 41.535-116.501 74.452-202.17 74.452zM247.24 34.831c-85.056 0-174.225 32.505-200.464 73.529-8.333 13.028-9.506 25.925-3.391 37.297 12.764 23.736 55.379 39.001 111.214 39.839 1.647.025 3.302.037 4.953.037 85.056 0 174.225-32.505 200.464-73.529 8.333-13.028 9.506-25.925 3.391-37.297-12.764-23.736-55.379-39.001-111.214-39.839a326.738 326.738 0 0 0-4.953-.037z" fill="#111"/><path d="M363.956 83.496c-28.254 44.173-125.046 78.875-216.192 77.508-70.241-1.053-116.63-23.22-121.282-53.55l4.473 29.16c4.652 30.33 51.041 52.497 121.282 53.55 91.145 1.367 187.938-33.335 216.191-77.508 6.48-10.131 8.792-19.88 7.408-28.907l-4.473-29.16c1.384 9.026-.928 18.776-7.408 28.907z" fill="#3658c1"/><path d="M157.424 191.204c-1.736 0-3.469-.013-5.201-.039-34.144-.512-63.755-6.005-85.634-15.885-21.589-9.75-34.253-23.067-36.622-38.514l-4.47-29.141-.003-.02a1 1 0 1 1 1.977-.304c2.262 14.745 14.526 27.538 35.469 36.995 21.631 9.768 50.969 15.2 84.84 15.708 90.705 1.35 187.284-33.208 215.334-77.047 6.203-9.699 8.646-19.192 7.262-28.217a1 1 0 1 1 1.977-.304l4.473 29.161c1.461 9.521-1.08 19.479-7.553 29.597-27.836 43.519-122.074 78.007-211.848 78.008zM29.25 118.905l2.693 17.559c2.262 14.745 14.526 27.537 35.469 36.994 21.631 9.768 50.969 15.2 84.84 15.708 90.672 1.347 187.291-33.203 215.334-77.047 6.203-9.697 8.646-19.19 7.262-28.216l-2.702-17.614c-1.061 5.82-3.515 11.756-7.347 17.747-28.374 44.361-125.752 79.335-217.049 77.97-34.144-.512-63.755-6.005-85.634-15.885-16.123-7.281-27.269-16.554-32.866-27.215zm334.706-35.408h.01z" fill="#111"/><ellipse cx="198.923" cy="81.022" fill="#b0c3ff" rx="174.408" ry="76.41" transform="matrix(.98844103 -.15160586 .15160586 .98844103 -9.984 31.095)"/><path d="M152.952 162.044c-1.736 0-3.469-.013-5.201-.039-59.262-.889-104.604-17.301-118.334-42.832-6.782-12.612-5.526-26.847 3.631-41.165C61.422 33.648 158.809-1.326 250.096.039 309.358.928 354.7 17.34 368.43 42.871c6.782 12.612 5.526 26.847-3.631 41.165-27.836 43.519-122.074 78.008-211.848 78.008zM244.874 2C155.714 2 62.242 36.077 34.733 79.086c-8.744 13.67-9.973 27.205-3.555 39.14 13.386 24.893 58.064 40.902 116.602 41.779 1.728.026 3.462.039 5.193.039 89.159.001 182.632-34.077 210.141-77.086 8.744-13.67 9.973-27.205 3.555-39.14-13.386-24.893-58.064-40.902-116.602-41.779A345.469 345.469 0 0 0 244.874 2z" fill="#111"/></svg></g><g transform="translate(464.4 1389.6) rotate(0.0 1093.8 672.5999999999999) scale(1.2041613915341003 1.2050524052674012)"><svg width="1816.7" height="1116.3" viewBox="0 0 1816.7 1116.3"><g><g><path style="fill:#b0c3ff" d="m978.5 545 765.4-378.7L1537 736.6l-765.4 378.7z"/><path d="M771.6 1116.3c-.2 0-.5-.1-.7-.3-.3-.3-.4-.7-.3-1.1l207-570.3c.1-.2.3-.4.5-.6l765.4-378.7c.4-.2.8-.1 1.1.2s.4.7.3 1.1l-207 570.3c-.1.2-.3.4-.5.6L772 1116.2c-.1.1-.3.1-.4.1zm207.8-570.5-206 567.6L1536.2 736l206-567.6-762.8 377.4z" style="fill:#111"/></g><g><path style="fill:#fff" d="m978.5 545-206.9 570.3-723-321.9L95.8 152z"/><path d="M771.6 1116.3c-.1 0-.3 0-.4-.1l-723-321.9c-.4-.2-.6-.6-.6-1l47.2-641.4c0-.3.2-.6.5-.8s.6-.2.9-.1L979 544c.5.2.7.8.5 1.3l-207 570.3c-.1.3-.3.5-.5.6-.1.1-.3.1-.4.1zm-722-323.5L771 1114l206.3-568.4L96.7 153.5 49.6 792.8z" style="fill:#111"/></g><g><g><path d="M1402.4 727.9c9.5-4.7 21.5-20.5 26.9-35.4l120.8-333c5.4-14.9 2.1-23.2-7.4-18.5-9.5 4.7-21.5 20.5-26.9 35.4l-120.8 333c-5.3 15-2 23.2 7.4 18.5" style="fill:#111"/><path d="M1397.7 730.3c-1.8 0-3-.7-3.8-1.4-3.3-3-3.2-10.2.2-19.7l120.8-333c5.5-15.1 17.8-31.2 27.4-36 4.8-2.4 7.5-1.3 9 0 3.3 3 3.2 10.2-.2 19.7l-120.8 333c-5.5 15.1-17.8 31.2-27.4 36-2.1 1-3.8 1.4-5.2 1.4zm149.8-389.5c-1.4 0-3 .6-4.3 1.2-9.3 4.6-21.1 20.2-26.4 34.9l-120.8 333c-3.1 8.5-3.4 15.2-.8 17.6 1.8 1.6 4.7.7 6.7-.3 9.3-4.6 21.1-20.2 26.4-34.9l120.8-333c3.1-8.5 3.4-15.2.8-17.6-.6-.7-1.5-.9-2.4-.9z" style="fill:#111"/></g><g><path d="M1316.5 770.5c9.5-4.7 21.5-20.5 26.9-35.4l120.8-333c5.4-14.9 2.1-23.2-7.4-18.5-9.5 4.7-21.5 20.5-26.9 35.4l-120.8 333c-5.4 14.9-2.1 23.1 7.4 18.5" style="fill:#111"/><path d="M1311.8 772.8c-1.8 0-3-.7-3.8-1.4-3.3-3-3.2-10.2.2-19.7l120.8-333c5.5-15.1 17.8-31.2 27.4-36 4.8-2.4 7.5-1.3 9 0 3.3 3 3.2 10.2-.2 19.7l-120.8 333c-5.5 15.1-17.8 31.2-27.4 36-2.2 1-3.8 1.4-5.2 1.4zm149.8-389.5c-1.4 0-3 .6-4.3 1.2-9.3 4.6-21.1 20.2-26.4 34.9l-120.8 333c-3.1 8.5-3.4 15.2-.8 17.6 1.8 1.6 4.7.7 6.7-.3 9.3-4.6 21.1-20.2 26.4-34.9l120.8-333c3.1-8.5 3.4-15.2.8-17.6-.6-.7-1.5-.9-2.4-.9zm-145.1 387.2z" style="fill:#111"/></g><g><path d="M1230.5 813c9.5-4.7 21.5-20.5 26.9-35.4l120.8-333c5.4-14.9 2.1-23.2-7.4-18.5-9.5 4.7-21.5 20.5-26.9 35.4l-120.8 333c-5.3 14.9-2 23.2 7.4 18.5" style="fill:#111"/><path d="M1225.8 815.3c-1.8 0-3-.7-3.8-1.4-3.3-3-3.2-10.2.2-19.7l120.8-333c5.5-15.1 17.8-31.2 27.4-36 4.8-2.4 7.5-1.3 9 0 3.3 3 3.2 10.2-.2 19.7l-120.8 333c-5.5 15.1-17.8 31.2-27.4 36-2.1 1-3.8 1.4-5.2 1.4zm149.8-389.5c-1.4 0-3 .6-4.3 1.2-9.3 4.6-21.1 20.2-26.4 34.9l-120.8 333c-3.1 8.5-3.4 15.2-.8 17.6 1.8 1.6 4.7.7 6.7-.3l.4.9-.4-.9c9.3-4.6 21.1-20.2 26.4-34.9l120.8-333c3.1-8.5 3.4-15.2.8-17.6-.6-.6-1.4-.9-2.4-.9z" style="fill:#111"/></g><g><path d="M1144.6 855.5c9.5-4.7 21.5-20.5 26.9-35.4l120.8-333c5.4-14.9 2.1-23.2-7.4-18.5s-21.5 20.5-26.9 35.4l-120.8 333c-5.4 14.9-2.1 23.2 7.4 18.5" style="fill:#111"/><path d="M1139.9 857.8c-1.8 0-3-.7-3.8-1.4-3.3-3-3.2-10.2.2-19.7l120.8-333c5.5-15.1 17.8-31.2 27.4-36 4.8-2.4 7.5-1.3 9 0 3.3 3 3.2 10.2-.2 19.7l-120.8 333c-5.5 15.1-17.8 31.2-27.4 36-2.2 1.1-3.9 1.4-5.2 1.4zm149.8-389.4c-1.4 0-3 .6-4.3 1.2-9.3 4.6-21.1 20.2-26.4 34.9l-120.8 333c-3.1 8.5-3.4 15.2-.8 17.6 1.8 1.6 4.7.7 6.7-.3 9.3-4.6 21.1-20.2 26.4-34.9l120.8-333c3.1-8.5 3.4-15.2.8-17.6-.6-.7-1.5-.9-2.4-.9z" style="fill:#111"/></g><g><path d="M1058.6 898.1c9.5-4.7 21.5-20.5 26.9-35.4l120.8-333c5.4-14.9 2.1-23.2-7.4-18.5-9.5 4.7-21.5 20.5-26.9 35.4l-120.8 333c-5.3 14.9-2 23.1 7.4 18.5" style="fill:#111"/><path d="M1053.9 900.4c-1.8 0-3-.7-3.8-1.4-3.3-3-3.2-10.2.2-19.7l120.8-333c5.5-15.1 17.8-31.2 27.4-36 4.8-2.4 7.5-1.3 9 0 3.3 3 3.2 10.2-.2 19.7l-120.8 333c-5.5 15.1-17.8 31.2-27.4 36-2.1 1-3.8 1.4-5.2 1.4zm149.8-389.5c-1.4 0-3 .6-4.3 1.2-9.3 4.6-21.1 20.2-26.4 34.9l-120.8 333c-3.1 8.5-3.4 15.2-.8 17.6 1.8 1.6 4.7.7 6.7-.3 9.3-4.6 21.1-20.2 26.4-34.9l120.8-333c3.1-8.5 3.4-15.2.8-17.6-.6-.7-1.5-.9-2.4-.9z" style="fill:#111"/></g><g><path d="M972.7 940.6c9.5-4.7 21.5-20.5 26.9-35.4l120.8-333c5.4-14.9 2.1-23.2-7.4-18.5-9.5 4.7-21.5 20.5-26.9 35.4l-120.8 333c-5.4 14.9-2.1 23.2 7.4 18.5" style="fill:#111"/><path d="M968 942.9c-1.8 0-3-.7-3.8-1.4-3.3-3-3.2-10.2.2-19.7l120.8-333c5.5-15.1 17.8-31.2 27.4-36 4.8-2.4 7.5-1.3 9 0 3.3 3 3.2 10.2-.2 19.7l-120.8 333c-5.5 15.1-17.8 31.2-27.4 36-2.2 1-3.9 1.4-5.2 1.4zm149.8-389.5c-1.4 0-3 .6-4.3 1.2-9.3 4.6-21.1 20.2-26.4 34.9l-120.8 333c-3.1 8.5-3.4 15.2-.8 17.6 1.8 1.6 4.7.7 6.7-.3 9.3-4.6 21.1-20.2 26.4-34.9l120.8-333c3.1-8.5 3.4-15.2.8-17.6-.6-.6-1.5-.9-2.4-.9z" style="fill:#111"/></g></g><g><linearGradient id="b" gradientUnits="userSpaceOnUse" x1="1054.696" y1="791.56" x2="1863.167" y2="836.368" gradientTransform="matrix(1 0 0 -1 0 1117.2911)"><stop offset=".347" style="stop-color:#3658c1"/><stop offset="1" style="stop-color:#111"/></linearGradient><path style="fill:url(#b)" d="m1050.3 433.4 765.4-378.7-44.3 123.9L1006 557.3z"/><path d="M1006 558.3c-.2 0-.5-.1-.7-.3-.3-.3-.4-.7-.3-1.1l44.3-123.8c.1-.2.3-.4.5-.6l765.4-378.7c.4-.2.8-.1 1.1.2.3.3.4.7.3 1.1l-44.3 123.8c-.1.2-.3.4-.5.6l-765.4 378.7c-.1 0-.2.1-.4.1zm45.1-124.2-43.4 121.1 762.8-377.4 43.4-121.1-762.8 377.4z" style="fill:#111"/></g><g><path style="fill:#3658c1" d="M1050.3 433.4 1006 557.3 978.5 545 95.8 152l-27.5-12.2L79.1 1z"/><path d="M1006 558.3c-.1 0-.3 0-.4-.1L67.9 140.7c-.4-.2-.6-.6-.6-1L78.1.9c0-.3.2-.6.5-.8.3-.1.6-.1.9 0l971.2 432.4c.5.2.7.8.5 1.3l-44.3 123.8c-.1.3-.3.5-.5.6-.1 0-.3.1-.4.1zM69.4 139.2l936 416.8 43.7-122L80 2.5 69.4 139.2z" style="fill:#111"/></g><g><path d="m79.1 1 971.2 432.4 765.4-378.7-85.5-3.5-691.8 342.3-873.8-389L79.1 1z" style="fill:#fff"/><path d="M1050.3 434.4c-.1 0-.3 0-.4-.1L78.7 1.9c-.4-.2-.7-.7-.6-1.1s.6-.8 1-.8l85.5 3.5c.1 0 .3 0 .4.1l873.5 388.9 691.4-342.1c.2-.1.3-.1.5-.1l85.5 3.5c.5 0 .8.3.9.8.1.4-.1.9-.5 1.1l-765.4 378.7h-.6zM84.3 2.2l966 430.1 761.4-376.8-81.3-3.3-691.6 342.2c-.3.1-.6.1-.9 0L164.3 5.5l-80-3.3z" style="fill:#111"/></g><path d="M1050.3 434.4c-.4 0-.8-.3-1-.7l-11.9-39.9c-.2-.5.1-1.1.7-1.2.5-.2 1.1.1 1.2.7l11.9 39.9c.2.5-.1 1.1-.7 1.2h-.2z" style="fill:#111"/></g><g><g><path d="M1448.6 268.1c13.4-12.2 23.6-7.1 23 11.5-.6 18.6-11.7 43.2-25.1 55.4L965.2 774l2.1-66.9 481.3-439z" style="fill:#3658c1"/><path d="M965.2 775c-.1 0-.3 0-.4-.1-.4-.2-.6-.5-.6-.9l2.1-66.9c0-.3.1-.5.3-.7l481.3-439c6.7-6.1 12.9-8.3 17.6-6.1 4.9 2.2 7.4 8.7 7.1 18.3-.6 19-11.8 43.7-25.4 56.1l-481.3 439c-.3.2-.5.3-.7.3zm3-67.5-2 64.1 479.6-437.4c13.1-11.9 24.2-36.5 24.8-54.7.3-8.6-1.9-14.6-5.9-16.4-3.9-1.8-9.4.2-15.4 5.8l-.7-.7.7.7-481.1 438.6z" style="fill:#111"/></g><g><path style="fill:#3658c1" d="m967.3 707.1-2.1 66.9L1 344.7l2.1-66.9z"/><path d="M965.2 775c-.1 0-.3 0-.4-.1L.6 345.6c-.4-.2-.6-.5-.6-.9l2.1-66.9c0-.3.2-.6.5-.8.3-.2.6-.2.9-.1l964.2 429.3c.4.2.6.5.6.9l-2.1 66.9c0 .3-.2.6-.5.8-.2.1-.4.2-.5.2zM2 344.1l962.2 428.4 2-64.7L4.1 279.3 2 344.1z" style="fill:#111"/></g><g><path d="M1448.5 311.7c4.9-4.5 9.1-13.7 9.3-20.6.2-6.8-3.6-8.8-8.6-4.2-4.9 4.5-9.1 13.7-9.3 20.6-.2 6.9 3.7 8.7 8.6 4.2" style="fill:#111"/><path d="M1443.7 315.2c-.6 0-1.2-.1-1.7-.4-2.1-.9-3.1-3.6-3-7.4.2-7.1 4.6-16.6 9.7-21.3 2.7-2.4 5.2-3.3 7.2-2.3 2.1.9 3.1 3.6 3 7.4-.2 7.2-4.5 16.5-9.7 21.3-2 1.8-3.9 2.7-5.5 2.7zm10.4-29.7c-1.1 0-2.6.8-4.2 2.2-4.8 4.3-8.8 13.2-9 19.8-.1 2.9.6 4.9 1.8 5.5 1.2.6 3-.2 5-2 4.8-4.3 8.8-13.2 9-19.8.1-2.9-.6-4.9-1.8-5.5-.2-.2-.5-.2-.8-.2z" style="fill:#111"/></g><g><g><path d="m967.3 707.1 481.3-439c6.3-5.7 11.8-7.6 15.9-6.2l-23.5-10.5c-4.1-1.6-9.8.3-16.2 6.1L959.6 681.8l7.7 25.3z" style="fill:#b0c3ff"/><path d="M967.3 708.1h-.3c-.3-.1-.6-.3-.7-.7l-7.7-25.3c-.1-.4 0-.8.3-1l465.2-424.3c6.4-5.9 12.6-8.1 17.2-6.3l23.6 10.5c.5.2.7.8.5 1.3-.2.5-.8.8-1.3.6-3.9-1.4-9.2.7-14.9 6l-481.3 439c-.2.1-.4.2-.6.2zm-6.6-25.9 7 23.1 480.1-437.9c4-3.7 7.9-5.9 11.4-6.6l-18.8-8.4c-3.8-1.5-9.2.6-15.1 5.9L960.7 682.2z" style="fill:#111"/></g><g><path style="fill:#b0c3ff" d="M959.6 681.8 43 273.7l-39.9 4.1 964.2 429.3z"/><path d="M967.3 708.1c-.1 0-.3 0-.4-.1L2.7 278.7c-.4-.2-.7-.6-.6-1.1s.4-.8.9-.8l39.9-4.1c.2 0 .3 0 .5.1L960 680.9c.3.1.5.3.5.6l7.7 25.3c.1.4 0 .8-.3 1-.2.2-.4.3-.6.3zM6.9 278.4l958.7 426.9-6.9-22.7-916-407.8-35.8 3.6z" style="fill:#111"/></g><g><path d="M1464.7 262c-.1 0-.2 0-.2-.1l.2.1z" style="fill:#fff"/><path d="M1464.7 263.1c-.1 0-.3 0-.4-.1l-.2-.1c-.5-.2-.7-.8-.5-1.3.2-.5.8-.8 1.3-.6.1 0 .2.1.3.1.2.1.4.3.6.5.1.2.1.5 0 .8-.1.3-.3.5-.6.6-.2 0-.4.1-.5.1z" style="fill:#111"/></g></g></g></svg></g><g transform="translate(1081.2 330.0) rotate(0.0 299.4 484.19999999999993) scale(1.1977676874762466 1.1986528152373972)"><svg width="499.93" height="807.907" viewBox="0 0 499.93 807.907"><path d="M24.465 22.773 257.314 1l13.063 54.526L37.528 77.299z" fill="#3658c1"/><g fill="#111"><path d="M37.528 78.299a1 1 0 0 1-.972-.767L23.492 23.006a1.001 1.001 0 0 1 .88-1.229L257.221.004a1 1 0 0 1 1.065.763l13.063 54.526a1.001 1.001 0 0 1-.88 1.229L37.62 78.295a.985.985 0 0 1-.094.004zM25.706 23.661 38.3 76.223l230.837-21.585-12.593-52.562z"/><path d="m24.465 22.773 13.063 54.526-1.406.863-13.069-54.55z"/><path d="M36.122 79.162a.999.999 0 0 1-.973-.767L22.08 23.845a1 1 0 0 1 .462-1.093l1.412-.839a1 1 0 0 1 1.483.626l13.064 54.526a1 1 0 0 1-.45 1.085l-1.407.863a.996.996 0 0 1-.522.147z"/></g><path d="m37.528 77.299 232.849-21.773 90.686 78.555-232.849 21.773z" fill="#b0c3ff"/><path d="M128.213 156.854a.997.997 0 0 1-.654-.244L36.875 78.055a1 1 0 0 1 .561-1.751l232.849-21.773a1.01 1.01 0 0 1 .747.24l90.686 78.554a1 1 0 0 1-.561 1.751l-232.85 21.773a.964.964 0 0 1-.093.004zM39.954 78.077l88.592 76.741 230.093-21.516-88.593-76.741L39.954 78.076z" fill="#111"/><path d="m37.528 77.299 90.686 78.555L1 231.464 36.122 78.162z" fill="#3658c1"/><path d="M1 232.464a1 1 0 0 1-.975-1.223L35.147 77.939a.999.999 0 0 1 .452-.629l1.407-.863a1 1 0 0 1 1.177.097l90.685 78.555a1 1 0 0 1-.143 1.616L1.511 232.324a.996.996 0 0 1-.511.14zM37.002 78.795 2.497 229.411l124.015-73.709-89.085-77.167z" fill="#111"/><path d="m128.214 155.854 137.867 575.442-127.214 75.611L1 231.464z" fill="#3658c1"/><path d="M138.867 807.907a1 1 0 0 1-.973-.767L.028 231.697a1 1 0 0 1 .462-1.093l127.213-75.61a.998.998 0 0 1 1.483.626l137.867 575.442a1 1 0 0 1-.462 1.093l-127.214 75.611a.998.998 0 0 1-.511.14zM2.145 231.948l137.378 573.406 125.413-74.541-137.379-573.406z" fill="#111"/><path d="m120.9 731.899 17.97 75.006 127.21-75.609-49.509-206.647c-50.462 29.999-43.362 176.16-95.671 207.25z" fill="#fff"/><path d="M138.871 807.905a1 1 0 0 1-.973-.767l-17.97-75.006a.998.998 0 0 1 .462-1.092c26.031-15.472 37.386-60.787 48.367-104.609 10.787-43.049 21.941-87.564 47.304-102.641a1 1 0 0 1 1.483.626l49.509 206.647a.998.998 0 0 1-.462 1.092l-127.21 75.609a.999.999 0 0 1-.511.141zm-16.827-75.529 17.483 72.976 125.409-74.539-49.015-204.585c-23.834 15.332-34.706 58.714-45.225 100.689-10.992 43.869-22.358 89.221-48.653 105.459z" fill="#111"/><path d="m139.552 203.179-11.339-47.326-127.21 75.609 32.98 137.656S48.024 257.582 139.552 203.18z" fill="#fff"/><path d="M33.983 370.118c-.459 0-.863-.315-.972-.767L.031 231.695a1 1 0 0 1 .462-1.093l127.21-75.608a.998.998 0 0 1 1.483.626l11.339 47.326a1 1 0 0 1-.462 1.093c-47.05 27.965-73.116 71.396-86.699 102.906-14.725 34.159-18.353 62.02-18.388 62.297a1.002 1.002 0 0 1-.938.874l-.056.001zM2.148 231.946l31.645 132.082c1.721-9.575 6.557-31.944 17.734-57.874 13.639-31.64 39.771-75.205 86.882-103.456l-10.852-45.291z" fill="#111"/><path d="m128.214 155.854 232.849-21.773L498.93 709.523l-232.849 21.773z" fill="#3658c1"/><path d="M266.08 732.296a1 1 0 0 1-.972-.767L127.241 156.087a1.001 1.001 0 0 1 .88-1.229l232.85-21.773c.496-.042.95.279 1.065.763L499.903 709.29a1.001 1.001 0 0 1-.88 1.229l-232.85 21.773a.985.985 0 0 1-.094.004zM129.455 156.742l137.396 573.477 230.838-21.584-137.397-573.478-230.838 21.585z" fill="#111"/><path d="m216.571 524.649 49.509 206.647 232.842-21.772-20.574-85.872S345.304 512.614 216.57 524.649z" fill="#fff"/><path d="M266.08 732.296a1 1 0 0 1-.972-.767l-49.509-206.647a1.001 1.001 0 0 1 .88-1.229c66.737-6.241 134.576 21.082 179.727 45.101 48.878 26.003 82.451 53.852 82.784 54.13.165.138.281.325.332.535l20.574 85.872a1.001 1.001 0 0 1-.88 1.229l-232.843 21.772a.985.985 0 0 1-.094.004zm-48.266-206.755 49.037 204.679 230.831-21.584-20.228-84.425c-3.185-2.614-35.759-28.995-82.227-53.71-44.639-23.743-111.542-50.733-177.414-44.959z" fill="#111"/><path d="m406.52 323.842-45.464-189.761-232.842 21.773 11.516 48.067c79.005-7.382 154.675 130.405 266.79 119.921z" fill="#fff"/><path d="M394.463 325.405c-55.996 0-103.356-35.983-145.479-67.985-37.796-28.715-73.502-55.84-109.161-52.503a1.009 1.009 0 0 1-1.065-.763l-11.517-48.067a1.001 1.001 0 0 1 .88-1.229l232.843-21.773c.488-.042.949.279 1.065.763l45.464 189.761a1.001 1.001 0 0 1-.88 1.229c-4.092.383-8.146.567-12.149.567zm-248.61-122.767c34.329 0 68.395 25.88 104.341 53.189 44.56 33.853 95.042 72.196 155.084 67.122l-44.992-187.791-230.831 21.584 11.047 46.108a66.973 66.973 0 0 1 5.352-.213z" fill="#111"/><path d="m266.081 731.296 232.849-21.773-127.214 75.61-232.849 21.774z" fill="#b0c3ff"/><path d="M138.866 807.907a1.001 1.001 0 0 1-.51-1.859l127.214-75.61a.987.987 0 0 1 .418-.136l232.85-21.773a1 1 0 0 1 .604 1.855l-127.214 75.61a.982.982 0 0 1-.418.136l-232.85 21.773a.985.985 0 0 1-.094.004zm127.532-75.636-123.203 73.227 228.204-21.338 123.203-73.227z" fill="#111"/></svg></g><g transform="translate(1848.0 764.4) rotate(0.0 312.5999999999999 317.40000000000003) scale(1.198378393919935 1.1984933873297274)"><svg width="521.705" height="529.665" viewBox="0 0 521.705 529.665"><linearGradient id="c" gradientUnits="userSpaceOnUse" x1="104.062" x2="363.849" y1="150.754" y2="415.771"><stop offset="0" stop-color="#3658c1"/><stop offset=".222" stop-color="#b0c3ff"/><stop offset=".746" stop-color="#3658c1"/></linearGradient><path d="M511.453 246.551c-8.359 9.366-22.328 13.953-41.683 12.351-59.55-4.929-147.53-66.587-196.508-137.717-33.059-48.011-39.899-88.065-22.541-107.515L10.247 283.119c-9.595 10.752-11.796 27.8-6.261 49.01 23.449 83.376 139.858 187.006 225.309 196.223 19.356 1.602 33.325-2.986 41.684-12.353l240.473-269.448z" fill="url(#c)"/><path d="M236.545 529.66c-2.366 0-4.81-.104-7.331-.313-40.648-4.384-90.386-30.097-136.483-70.547-45.023-39.505-78.558-86.759-89.707-126.401-5.641-21.614-3.399-38.879 6.478-49.946L249.974 13.005a1 1 0 1 1 1.492 1.332c-17.605 19.728-8.938 60.452 22.619 106.282 48.752 70.801 136.572 132.388 195.767 137.288 18.369 1.52 32.482-2.638 40.854-12.021a.999.999 0 1 1 1.492 1.332L271.725 516.666c-7.64 8.56-19.713 12.996-35.181 12.996zm7.302-506.787L10.993 283.785c-9.41 10.543-11.498 27.173-6.039 48.091 11.043 39.267 44.352 86.161 89.095 125.422 45.796 40.185 95.131 65.721 135.354 70.06 18.325 1.514 32.455-2.641 40.83-12.024l232.878-260.938c-8.588 4.73-19.921 6.622-33.424 5.504-59.716-4.942-148.202-66.915-197.249-138.146-27.581-40.053-37.82-76.45-28.592-98.879z" fill="#111"/><path d="M64.023 222.863c-17.358 19.45-10.518 59.504 22.541 107.515 48.978 71.13 136.958 132.788 196.508 137.717 19.355 1.602 33.325-2.986 41.683-12.352l162.487-182.066c-8.359 9.366-22.328 13.954-41.683 12.352-59.55-4.929-147.53-66.587-196.508-137.717-33.059-48.011-39.9-88.066-22.541-107.515z" fill="#b0c3ff"/><path d="M290.323 469.404c-2.367 0-4.811-.104-7.333-.313-59.716-4.943-148.201-66.915-197.249-138.146-32.107-46.629-40.715-88.299-22.464-108.749l.746.666-.746-.666L225.765 40.132a.999.999 0 1 1 1.492 1.332c-17.606 19.727-8.939 60.452 22.618 106.282 48.752 70.801 136.573 132.388 195.767 137.288 18.361 1.519 32.48-2.637 40.855-12.021a1 1 0 1 1 1.492 1.332L325.502 456.41c-7.639 8.56-19.713 12.994-35.179 12.995zM64.77 223.529c-17.605 19.727-8.938 60.452 22.618 106.282 48.752 70.8 136.573 132.387 195.767 137.287 18.368 1.519 32.482-2.638 40.855-12.021l154.894-173.556c-8.588 4.731-19.919 6.623-33.426 5.505-59.716-4.943-148.201-66.915-197.249-138.146-27.581-40.054-37.82-76.449-28.591-98.878z" fill="#111"/><ellipse cx="381.091" cy="130.106" fill="#fff" rx="74.932" ry="174.766" transform="matrix(.66585562 -.74608062 .74608062 .66585562 30.271 327.8)"/><g fill="#111"><path d="M477.142 260.213c-2.399 0-4.882-.106-7.45-.318-59.716-4.943-148.201-66.915-197.249-138.146-29.336-42.604-39.232-81.184-26.474-103.202C253.956 4.764 270.045-1.539 292.49.318c59.715 4.942 148.2 66.914 197.249 138.146 29.336 42.604 39.232 81.185 26.474 103.203-7.073 12.206-20.502 18.547-39.071 18.547zM285.052 2c-17.826 0-30.659 5.998-37.353 17.549-12.361 21.332-2.496 59.114 26.39 101.065 48.752 70.8 136.573 132.387 195.767 137.287 21.624 1.789 37.054-4.171 44.627-17.238 12.361-21.333 2.496-59.114-26.39-101.065C439.34 68.797 351.52 7.21 292.326 2.311A88.112 88.112 0 0 0 285.052 2z"/><path d="M289.905 123.031c-7.691-11.17-3.879-17.87 11.948-20.975l32.075 46.582c-22.275-6.259-36.333-14.438-44.023-25.607m16.674-21.687c8.465-.852 17.028 1.278 24.875 6.306 6.917 4.426 13.64 11.324 19.938 20.471 6.297 9.145 8.822 15.678 7.547 19.444-1.454 4.257-7.94 5.142-18.673 2.701l-33.686-48.922m50.343 27.234c-7.705-11.189-16.268-19.849-25.428-25.715-10.655-6.831-21.849-9.554-32.394-7.9-20.752 3.277-25.435 12.057-14.725 27.61 10.709 15.553 28.766 26.195 56.813 33.512 14.234 3.703 22.805 2.617 24.786-3.149 1.702-4.966-1.347-13.17-9.051-24.358"/><path d="M355.082 159.223c-3.602 0-8.224-.629-14.146-2.17-28.303-7.384-46.537-18.16-57.385-33.913-5.341-7.755-6.935-13.858-4.875-18.656 2.266-5.276 8.896-8.714 20.268-10.51 10.797-1.694 22.238 1.09 33.091 8.046 9.276 5.94 17.928 14.684 25.711 25.99 7.898 11.469 10.984 19.964 9.174 25.25-1.038 3.022-4.051 5.962-11.837 5.962zm-49.916-63.73c-1.989 0-3.962.152-5.911.458-10.638 1.68-16.769 4.729-18.741 9.323-1.767 4.116-.235 9.589 4.684 16.732 10.561 15.334 28.432 25.856 56.242 33.111 13.452 3.499 21.83 2.611 23.588-2.506 1.571-4.586-1.516-12.701-8.929-23.466-7.633-11.085-16.092-19.644-25.144-25.44-8.46-5.423-17.268-8.212-25.789-8.212zm45.177 57.121c-2.836 0-6.271-.458-10.3-1.374a.999.999 0 0 1-.602-.408l-33.686-48.922a1 1 0 0 1 .723-1.562c8.724-.876 17.547 1.355 25.515 6.458 7.042 4.507 13.846 11.487 20.222 20.746 6.565 9.535 9.074 16.185 7.671 20.332-1.076 3.15-4.274 4.729-9.543 4.729zm-9.477-3.238c9.836 2.183 15.91 1.427 17.126-2.135.804-2.375.169-7.525-7.424-18.554-6.225-9.038-12.837-15.833-19.653-20.195-7.062-4.524-14.808-6.685-22.526-6.283l32.478 47.167zm-6.938.262c-.09 0-.181-.012-.271-.037-22.561-6.339-36.727-14.603-44.576-26.003-3.767-5.469-4.872-9.907-3.381-13.567 1.736-4.26 6.957-7.189 15.96-8.956.399-.072.791.087 1.016.415l32.075 46.582a.998.998 0 0 1-.823 1.566zm-32.524-46.471c-7.789 1.613-12.447 4.174-13.851 7.618-1.218 2.987-.179 6.807 3.175 11.679 7.26 10.542 20.259 18.342 40.79 24.437z"/></g></svg></g></svg>