<svg xmlns="http://www.w3.org/2000/svg"  viewBox="0 0 100 100" width="100px" height="100px" baseProfile="basic"><path d="M9.5,93C5.916,93,3,90.084,3,86.5v-4c0-7.553,4.334-13.981,11.049-16.403l7.33-2.887c-1.289-2.1-2.085-4.148-2.576-5.912 c-1.212-0.581-0.228-2.522-1.151-3.579c-3.5-4.008-6.834-10.102-3.122-14.441c0.324-0.38,0.681-0.729,1.065-1.043 c-0.024-0.481-0.036-0.96-0.036-1.449c0-12.445,8.797-21.978,20.932-22.702c0.729-0.065,1.452-0.099,2.149-0.099 c3.764,0,6.478,0.933,8.425,2.184c3.026-3.838,7.157-6.07,10.126-6.864c1.757-0.47,4.89-1.308,8.335-1.308 c1.76,0,3.413,0.222,4.916,0.659c3.783,0.884,7.212,2.703,9.959,5.281c4.005,2.777,6.282,7.063,6.606,12.442 c0.254,1.446,0.383,2.927,0.383,4.407c0,0.485-0.012,0.96-0.036,1.438c0.39,0.318,0.751,0.671,1.081,1.055 c3.71,4.339,2.456,11.544-1.044,15.551c-0.927,1.062-2.028,1.896-3.248,2.477c-0.492,1.762-1.287,3.808-2.573,5.904l7.378,2.906 C95.833,62.594,100,69.181,100,76.535V80.5c0,3.584-2.465,6.5-6.049,6.5h-20.97c-0.256,3.352-3.065,6-6.481,6H9.5z" opacity=".35"/><path fill="#f2f2f2" d="M7.5,91C3.916,91,1,88.084,1,84.5v-4c0-7.553,4.334-13.981,11.049-16.403l7.33-2.887 c-1.289-2.1-2.085-4.148-2.576-5.912c-1.212-0.581-2.307-1.412-3.23-2.468c-3.5-4.008-4.755-11.213-1.043-15.552 c0.324-0.38,0.681-0.729,1.065-1.043c-0.024-0.481-0.036-0.96-0.036-1.449c0-12.445,8.797-21.978,20.932-22.702 c0.729-0.065,1.452-0.099,2.149-0.099c3.764,0,6.478,0.933,8.425,2.184c3.026-3.838,7.157-6.07,10.126-6.864 c1.757-0.47,4.89-1.308,8.335-1.308c1.76,0,3.413,0.222,4.916,0.659c3.783,0.884,7.212,2.703,9.959,5.281 c4.005,2.777,6.282,7.063,6.606,12.442c0.254,1.446,0.383,2.927,0.383,4.407c0,0.485-0.012,0.96-0.036,1.438 c0.39,0.318,0.751,0.671,1.081,1.055c3.71,4.339,2.456,11.544-1.044,15.551c-0.927,1.062-2.028,1.896-3.248,2.477 c-0.492,1.762-1.287,3.808-2.573,5.904l7.378,2.906C93.833,60.594,98,67.181,98,74.535V78.5c0,3.584-2.465,6.5-6.049,6.5h-20.97 c-0.256,3.352-3.065,6-6.481,6H7.5z"/><path fill="#707cc0" d="M90.459,71.494c-0.004-0.048-0.012-0.095-0.017-0.144c-0.024-0.244-0.055-0.486-0.096-0.726 c-0.005-0.028-0.012-0.056-0.017-0.084c-0.047-0.263-0.105-0.522-0.172-0.778c-0.002-0.006-0.004-0.012-0.005-0.018 c-0.85-3.213-3.23-5.682-6.467-6.828l-12.143-4.427v-5.483c0,0,3.643-3.614,3.891-9.686c0.003-0.001,0,0,0.003-0.001 c0.693,1.466,2.547,1.724,3.965,0.143c1.592-1.774,2.679-5.715,1.057-7.787c-1.049-1.34-2.9-0.989-3.221,0.208 c0.48-2.519,0.257-4.14,0.257-6.165c0-9.213-6.25-14.78-14.453-14.78s-14.453,5.567-14.453,14.78c0,2.025-0.298,3.653,0.182,6.172 c-0.32-1.197-2.035-1.554-3.084-0.214c-1.622,2.072-0.694,6.107,0.995,7.787c1.581,1.573,3.25,1.314,3.944-0.152 c0.003,0.001,0,0,0.003,0c0.271,6.08,3.914,9.723,3.914,9.723l-0.006,4.364c-0.001,0.636-0.403,1.203-1.004,1.414l-11.134,3.905 c-3.237,1.146-5.617,3.813-6.467,7.027c-0.002,0.006-0.004,0.012-0.005,0.018c-0.067,0.256-0.125,0.516-0.172,0.778 c-0.005,0.028-0.012,0.056-0.017,0.084c-0.041,0.24-0.072,0.482-0.096,0.726c-0.005,0.048-0.013,0.095-0.017,0.144 c-0.024,0.285-0.038,0.862-0.038,0.862h54.91l0,0C90.497,72.066,90.483,71.779,90.459,71.494z"/><path fill="#40396e" d="M63.042,55.463c4.857,0,8.5-2.429,8.5-2.429s-2.429,6.071-8.5,6.071s-8.5-6.071-8.5-6.071 S58.185,55.463,63.042,55.463z" opacity=".35"/><path fill="#707cc0" d="M71.171,14.117c-4.002-4.914-11.728-2.773-14.687-1.982c-3.208,0.858-15.019,6.667-8.568,22.802 v-0.001c0.012,0.065,0.023,0.124,0.036,0.191c0.103,0.541,0.576,0.918,1.108,0.918c0.07,0,0.141-0.007,0.212-0.02 c0.409-0.078,0.708-0.376,0.837-0.742l0.015,0.012c0,0,1.101-2.578,0.664-5.439c0.103-0.062,0.206-0.109,0.308-0.134 c0,0,14.634-0.897,19.276-7.654c0.439,1.424,1.592,3.915,4.634,7.651l0.253,0.416c-0.318,2.777,0.744,5.258,0.744,5.258 l0.015-0.014c0.148,0.317,0.423,0.57,0.793,0.641c0.071,0.014,0.143,0.02,0.212,0.02c0.531,0,1.005-0.377,1.108-0.918 c0.013-0.069,0.024-0.13,0.037-0.198l0,0c0,0,0.745-1.171,1.038-3.147C80.559,26.652,81.641,16.811,71.171,14.117z"/><path fill="#707cc0" d="M90.538,78.034l-0.041-5.678c0-0.29-0.014-0.577-0.038-0.862c-0.004-0.048-0.012-0.095-0.017-0.143 c-0.024-0.244-0.055-0.486-0.096-0.726c-0.005-0.028-0.011-0.056-0.017-0.084c-0.047-0.263-0.105-0.522-0.172-0.778 c-0.002-0.006-0.003-0.012-0.005-0.018c-0.85-3.214-3.23-5.682-6.467-6.828l-9.227-3.364c-1.718,4.62-6.197,8.054-11.415,8.054 c-5.245,0-9.745-3.458-11.443-8.115l-9.2,3.227c-3.237,1.146-5.617,3.813-6.467,7.027c-0.002,0.006-0.003,0.012-0.005,0.018 c-0.067,0.256-0.125,0.516-0.172,0.778c-0.005,0.028-0.012,0.056-0.017,0.084c-0.041,0.24-0.072,0.482-0.096,0.726 c-0.005,0.048-0.013,0.095-0.017,0.143c-0.016,0.177-0.092,3.606-0.335,6.539H90.538z"/><path fill="#ffc7a3" d="M63.459,77.494c-0.004-0.048-0.012-0.095-0.017-0.144c-0.024-0.244-0.055-0.486-0.096-0.726 c-0.005-0.028-0.012-0.056-0.017-0.084c-0.047-0.263-0.105-0.522-0.172-0.778c-0.002-0.006-0.004-0.012-0.005-0.018 c-0.85-3.213-3.23-5.682-6.467-6.828l-12.143-4.427v-5.483c0,0,3.643-3.614,3.891-9.686c0.004,0.006,0.008,0.012,0.012,0.018 c0.7,1.45,2.544,1.699,3.957,0.125c1.592-1.774,2.679-5.715,1.057-7.787c-1.049-1.34-2.9-0.989-3.221,0.208 c0.48-2.519,0.257-4.14,0.257-6.165c0-9.213-6.25-14.78-14.453-14.78s-14.453,5.567-14.453,14.78c0,2.025-0.298,3.653,0.182,6.172 c-0.32-1.197-2.035-1.554-3.084-0.214c-1.622,2.072-0.694,6.107,0.995,7.787c1.574,1.566,3.236,1.316,3.936-0.134 c0.003-0.006,0.007-0.012,0.012-0.018c0.269,6.079,3.912,9.722,3.912,9.722l-0.007,5.427l-12.136,4.256 c-3.237,1.146-5.617,3.813-6.467,7.027c-0.002,0.006-0.004,0.012-0.005,0.018c-0.067,0.256-0.125,0.516-0.172,0.778 c-0.005,0.028-0.012,0.056-0.017,0.084c-0.041,0.24-0.072,0.482-0.096,0.726c-0.005,0.048-0.013,0.095-0.017,0.144 c-0.024,0.285-0.038,0.862-0.038,0.862h54.91l0,0C63.497,78.066,63.483,77.779,63.459,77.494z"/><path fill="#40396e" d="M36.042,61.463c4.857,0,8.5-2.429,8.5-2.429s-2.429,6.071-8.5,6.071s-8.5-6.071-8.5-6.071 S31.185,61.463,36.042,61.463z" opacity=".35"/><path fill="#40396e" d="M44.176,20.126c-2.895-4.216-9.81-3.238-12.771-2.447c-4.871,1.345-15.135,9.153-10.489,23.258 v-0.001c0.012,0.065,0.023,0.124,0.036,0.191c0.103,0.541,0.576,0.918,1.108,0.918c0.07,0,0.141-0.007,0.212-0.02 c0.409-0.078,0.708-0.376,0.837-0.742l0.015,0.012c0,0,1.101-2.578,0.664-5.439c0.103-0.062,0.206-0.109,0.308-0.134 c0,0,14.634-0.897,19.276-7.654c0.439,1.424,1.592,3.915,4.634,7.651l0.253,0.416c-0.318,2.777,0.744,5.258,0.744,5.258 l0.015-0.014c0.148,0.317,0.423,0.57,0.793,0.641c0.071,0.014,0.143,0.02,0.212,0.02c0.531,0,1.005-0.377,1.108-0.918 c0.013-0.069,0.024-0.13,0.037-0.198l0,0c0,0,0.601-1.272,1.063-3.223C53.435,32.629,54.134,23.078,44.176,20.126z"/><path fill="#70bfff" d="M63.538,84.034l-0.041-5.678c0-0.29-0.014-0.577-0.038-0.862c-0.004-0.048-0.012-0.095-0.017-0.143 c-0.024-0.244-0.055-0.486-0.096-0.726c-0.005-0.028-0.011-0.056-0.017-0.084c-0.047-0.263-0.105-0.522-0.172-0.778 c-0.002-0.006-0.003-0.012-0.005-0.018c-0.85-3.214-3.23-5.682-6.467-6.828l-9.227-3.364c-1.718,4.62-6.197,8.054-11.415,8.054 c-5.245,0-9.745-3.458-11.443-8.115l-9.2,3.227c-3.237,1.146-5.617,3.813-6.467,7.027c-0.002,0.006-0.003,0.012-0.005,0.018 c-0.067,0.256-0.125,0.516-0.172,0.778c-0.005,0.028-0.012,0.056-0.017,0.084c-0.041,0.24-0.072,0.482-0.096,0.726 C8.638,77.4,8.63,77.447,8.626,77.495c-0.016,0.177-0.092,3.606-0.335,6.539H63.538z"/><path fill="#40396e" d="M66.448,77.242c-0.007-0.076-0.015-0.145-0.024-0.215c-0.03-0.302-0.071-0.609-0.122-0.909 c-0.006-0.034-0.021-0.115-0.028-0.148c-0.054-0.299-0.129-0.638-0.215-0.969c-0.004-0.015-0.009-0.033-0.014-0.05 c-0.417-1.556-1.104-2.985-2.047-4.26c-0.31-0.419-0.65-0.824-1.011-1.203c-0.719-0.755-1.535-1.427-2.428-1.999 c-0.442-0.283-0.909-0.545-1.387-0.778s-0.978-0.442-1.485-0.622L47.02,62.318v-1.22l-2.477,0.861v2.531l12.143,4.427 c0.405,0.143,0.796,0.307,1.172,0.491c0.377,0.184,0.738,0.387,1.084,0.608c0.692,0.443,1.319,0.959,1.872,1.54 c0.276,0.291,0.534,0.597,0.772,0.919c0.714,0.965,1.247,2.065,1.566,3.27c0.002,0.006,0.004,0.012,0.005,0.018 c0.067,0.256,0.125,0.516,0.172,0.778c0.005,0.028,0.012,0.056,0.017,0.084c0.041,0.24,0.072,0.482,0.096,0.726 c0.005,0.048,0.013,0.095,0.017,0.143c0.015,0.178,0.018,0.359,0.024,0.54h3.001C66.477,77.779,66.472,77.525,66.448,77.242z" opacity=".35"/><path fill="#40396e" d="M7.5,82C6.672,82,6,81.329,6,80.5c0-5.524,2.992-10.016,7.809-11.722l12.097-4.765V61.56 c-3.567-3.812-4.552-7.961-4.812-10.289c-1.208-0.012-2.614-0.425-3.755-1.731c-1.995-2.285-2.89-6.814-1.009-9.012 c0.613-0.718,1.569-1.217,2.638-1.278c-0.259-1.554-0.407-2.889-0.407-4.464c0-10.295,7.324-17.767,17.416-17.767 c0.828,0,1.5,0.671,1.5,1.5s-0.672,1.5-1.5,1.5c-8.354,0-14.416,6.21-14.416,14.767c0,2.051,0.285,3.646,0.79,6.291 c0.116,0.61-0.155,1.229-0.684,1.556c-0.528,0.327-1.203,0.295-1.697-0.081c-0.849-0.644-1.338-0.097-1.36-0.074 c-0.612,0.717-0.35,3.556,0.989,5.089c0.927,1.061,2.221,0.617,2.365,0.563c0.335-0.125,0.72-0.135,1.058-0.012 c0.614,0.223,1.013,0.833,0.985,1.485c-0.023,0.573-0.1,5.725,4.461,10.291c0.28,0.281,0.438,0.663,0.438,1.06v4.081 c0,0.616-0.377,1.17-0.95,1.396l-13.096,5.158C11.227,72.875,9,76.283,9,80.5C9,81.329,8.328,82,7.5,82z"/><path fill="#40396e" d="M91.506,76.035c-0.828,0-1.5-0.671-1.5-1.5c0-4.226-2.247-7.647-5.865-8.929L70.996,60.43 c-0.573-0.226-0.95-0.779-0.95-1.396v-4.081c0-0.397,0.158-0.779,0.438-1.06c4.574-4.581,4.485-9.719,4.46-10.29 c-0.03-0.683,0.404-1.311,1.058-1.511c0.329-0.1,0.682-0.085,0.999,0.042c0.131,0.048,1.439,0.494,2.365-0.568 c1.339-1.533,1.603-4.373,0.99-5.089c-0.004-0.004-0.518-0.575-1.374,0.074c-0.495,0.376-1.17,0.407-1.697,0.081 c-0.528-0.327-0.8-0.946-0.684-1.556c0.505-2.649,0.79-4.248,0.79-6.291c0-8.557-6.062-14.767-14.416-14.767 c-0.562,0.012-14.431,0.428-14.431,12.6c0,0.829-0.672,1.5-1.5,1.5s-1.5-0.671-1.5-1.5c0-12.106,11.385-15.498,17.405-15.6 c10.117,0,17.441,7.472,17.441,17.767c0,1.57-0.148,2.905-0.407,4.461c1.073,0.06,2.034,0.56,2.65,1.28 c1.882,2.201,0.986,6.729-1.009,9.013c-1.142,1.308-2.554,1.72-3.766,1.731c-0.259,2.329-1.241,6.472-4.814,10.289v2.453 l12.146,4.784c4.728,1.674,7.814,6.289,7.814,11.738C93.006,75.364,92.334,76.035,91.506,76.035z"/><path fill="#40396e" d="M64.5,86h-57C6.672,86,6,85.329,6,84.5v-4C6,79.671,6.672,79,7.5,79S9,79.671,9,80.5V83h54v-4.5 c0-0.829,0.672-1.5,1.5-1.5h25.506v-2.465c0-0.829,0.672-1.5,1.5-1.5s1.5,0.671,1.5,1.5V78.5c0,0.829-0.672,1.5-1.5,1.5H66v4.5 C66,85.329,65.328,86,64.5,86z"/><path fill="#40396e" d="M47.715,19.042c-0.752,6.511,4.35,19.23,4.35,19.23c-0.479,1.749-0.967,2.889-0.967,2.889l0,0 c0,0.001-0.001,0.003-0.001,0.004c0.194-0.069,0.405-0.106,0.622-0.106c0.578,0,1.202,0.259,1.668,0.854 c1.622,2.072,0.534,6.013-1.057,7.787c-0.055,0.061-0.114,0.103-0.17,0.159l0.018,0.001c0.437,0.872,1.065,1.856,1.604,2.581 c0.272-0.222,0.535-0.464,0.781-0.737c2.037-2.27,3.637-7.071,1.853-10.592c-0.611-1.045-1.84-2.668-1.469-2.205 C55.319,39.37,59.719,19.042,47.715,19.042z" opacity=".35"/></svg>