<svg xmlns="http://www.w3.org/2000/svg"  viewBox="0 0 256 256" width="128px" height="128px"><path fill="#e0ebfc" d="M171.478,26.333l-44.33,37.33c-2.094,1.763-3.302,4.361-3.302,7.098v114.484c0,3.844,3.116,6.96,6.96,6.96 h93.3c3.844,0,6.96-3.116,6.96-6.96V70.762c0-2.737-1.209-5.335-3.302-7.098l-44.33-37.33 C179.979,23.424,174.932,23.424,171.478,26.333z"/><path fill="#6bdddd" d="M184.148,112.78h-0.187v-20.45h0.187c5.638,0,10.225,4.587,10.225,10.225c0,3.593,2.913,6.506,6.506,6.506 s6.506-2.913,6.506-6.506c0-12.812-10.424-23.236-23.236-23.236h-0.187v-0.187c0-3.593-2.913-6.506-6.506-6.506 s-6.506,2.913-6.506,6.506v0.187h-0.187c-12.812,0-23.236,10.424-23.236,23.236s10.424,23.236,23.236,23.236h0.187v27.143h-0.187 c-5.638,0-10.225-4.587-10.225-10.225c0-3.593-2.913-6.506-6.506-6.506c-3.593,0-6.506,2.913-6.506,6.506 c0,12.812,10.424,23.236,23.236,23.236h0.187v0.187c0,3.593,2.913,6.506,6.506,6.506s6.506-2.913,6.506-6.506v-0.187h0.187 c12.812,0,23.236-10.424,23.236-23.236v-6.693C207.384,123.204,196.96,112.78,184.148,112.78z M170.763,112.78 c-5.638,0-10.225-4.587-10.225-10.225c0-5.638,4.587-10.225,10.225-10.225h0.187v20.45H170.763z M194.373,142.71 c0,5.638-4.587,10.225-10.225,10.225h-0.187v-27.143h0.187c5.638,0,10.225,4.587,10.225,10.225V142.71z"/><path fill="#3762cc" d="M224.104,194.206h-93.299c-4.941,0-8.96-4.02-8.96-8.96V70.762c0-3.335,1.463-6.48,4.015-8.628l44.33-37.331 l0,0c4.209-3.545,10.322-3.545,14.531,0l44.33,37.331c2.552,2.148,4.015,5.293,4.015,8.628v114.484 C233.065,190.186,229.046,194.206,224.104,194.206z M171.478,26.333l1.288,1.53l-44.33,37.331 c-1.646,1.386-2.591,3.416-2.591,5.569v114.484c0,2.735,2.225,4.96,4.96,4.96h93.299c2.735,0,4.961-2.225,4.961-4.96V70.762 c0-2.152-0.944-4.182-2.591-5.569l-44.33-37.331c-2.717-2.288-6.662-2.288-9.379,0L171.478,26.333z"/><path fill="#3762cc" d="M177.455,174.638c-4.087,0-7.51-2.896-8.322-6.745c-13.158-0.843-23.606-11.816-23.606-25.184 c0-4.69,3.815-8.505,8.506-8.505s8.506,3.815,8.506,8.505c0,3.913,2.745,7.196,6.411,8.023v-23.006 c-13.072-0.933-23.423-11.866-23.423-25.171c0-13.368,10.448-24.341,23.606-25.184c0.813-3.848,4.235-6.745,8.322-6.745 s7.51,2.896,8.322,6.745c13.158,0.843,23.606,11.816,23.606,25.184c0,4.69-3.815,8.505-8.506,8.505 c-4.69,0-8.506-3.815-8.506-8.505c0-3.913-2.745-7.196-6.411-8.023v16.313c13.072,0.933,23.423,11.867,23.423,25.172v6.692 c0,13.368-10.448,24.341-23.606,25.184C184.965,171.742,181.542,174.638,177.455,174.638z M154.032,138.204 c-2.484,0-4.506,2.021-4.506,4.505c0,11.71,9.526,21.236,21.236,21.236h0.187c1.104,0,2,0.896,2,2v0.187 c0,2.484,2.021,4.505,4.506,4.505s4.506-2.021,4.506-4.505v-0.187c0-1.104,0.896-2,2-2h0.187c11.71,0,21.236-9.526,21.236-21.236 v-6.692c0-11.71-9.526-21.237-21.236-21.237h-0.187c-1.104,0-2-0.896-2-2v-20.45c0-1.104,0.896-2,2-2h0.187 c6.74,0,12.225,5.484,12.225,12.225c0,2.484,2.021,4.505,4.506,4.505s4.506-2.021,4.506-4.505c0-11.71-9.526-21.236-21.236-21.236 h-0.187c-1.104,0-2-0.896-2-2v-0.187c0-2.484-2.021-4.505-4.506-4.505s-4.506,2.021-4.506,4.505v0.187c0,1.104-0.896,2-2,2h-0.187 c-11.71,0-21.236,9.526-21.236,21.236c0,11.709,9.526,21.236,21.236,21.236h0.187c1.104,0,2,0.896,2,2v27.143c0,1.104-0.896,2-2,2 h-0.187c-6.74,0-12.225-5.484-12.225-12.225C158.538,140.225,156.517,138.204,154.032,138.204z M184.147,154.935h-0.187 c-1.104,0-2-0.896-2-2v-27.143c0-1.104,0.896-2,2-2h0.187c6.74,0,12.225,5.484,12.225,12.226v6.692 C196.372,149.45,190.888,154.935,184.147,154.935z M185.961,127.993v22.74c3.666-0.828,6.411-4.111,6.411-8.023v-6.692 C192.372,132.104,189.627,128.821,185.961,127.993z M170.949,114.78h-0.187c-6.74,0-12.225-5.484-12.225-12.225 s5.484-12.225,12.225-12.225h0.187c1.104,0,2,0.896,2,2v20.45C172.949,113.885,172.054,114.78,170.949,114.78z M168.949,94.532 c-3.666,0.828-6.411,4.111-6.411,8.023c0,3.912,2.745,7.195,6.411,8.023V94.532z"/><path fill="#a4c9ff" d="M74.567,45.85l-44.33,37.33c-2.094,1.763-3.302,4.361-3.302,7.098v114.484c0,3.844,3.116,6.96,6.96,6.96h93.3 c3.844,0,6.96-3.116,6.96-6.96V90.278c0-2.737-1.209-5.335-3.302-7.098l-44.33-37.33C83.068,42.941,78.021,42.941,74.567,45.85z"/><path fill="#e0ebfc" d="M87.237,132.297H87.05v-20.45h0.187c5.638,0,10.225,4.587,10.225,10.225c0,3.593,2.913,6.506,6.506,6.506 c3.593,0,6.506-2.913,6.506-6.506c0-12.812-10.424-23.236-23.236-23.236H87.05v-0.187c0-3.593-2.913-6.506-6.506-6.506 s-6.506,2.913-6.506,6.506v0.187h-0.187c-12.812,0-23.236,10.424-23.236,23.236c0,12.812,10.424,23.236,23.236,23.236h0.187 v27.143h-0.187c-5.638,0-10.225-4.587-10.225-10.225c0-3.593-2.913-6.506-6.506-6.506s-6.506,2.913-6.506,6.506 c0,12.812,10.424,23.236,23.236,23.236h0.187v0.187c0,3.593,2.913,6.506,6.506,6.506s6.506-2.913,6.506-6.506v-0.187h0.187 c12.812,0,23.236-10.424,23.236-23.236v-6.693C110.474,142.721,100.05,132.297,87.237,132.297z M73.852,132.297 c-5.638,0-10.225-4.587-10.225-10.225c0-5.638,4.587-10.225,10.225-10.225h0.187v20.45H73.852z M97.462,162.227 c0,5.638-4.587,10.225-10.225,10.225H87.05v-27.143h0.187c5.638,0,10.225,4.587,10.225,10.225V162.227z"/><path fill="#3762cc" d="M127.195,213.722h-93.3c-4.94,0-8.96-4.02-8.96-8.96V90.278c0-3.335,1.463-6.48,4.014-8.628l44.33-37.331 c4.21-3.545,10.321-3.545,14.531,0l44.33,37.331c2.551,2.148,4.014,5.292,4.014,8.628v114.484 C136.154,209.703,132.135,213.722,127.195,213.722z M74.567,45.85l1.288,1.53L31.525,84.71c-1.646,1.386-2.59,3.416-2.59,5.568 v114.484c0,2.735,2.225,4.96,4.96,4.96h93.3c2.735,0,4.959-2.225,4.959-4.96V90.278c0-2.153-0.944-4.182-2.59-5.568l-44.33-37.331 c-2.718-2.288-6.661-2.288-9.379,0L74.567,45.85z"/><path fill="#3762cc" d="M80.545,194.155c-4.086,0-7.509-2.896-8.322-6.745c-13.159-0.843-23.606-11.816-23.606-25.184 c0-4.69,3.815-8.506,8.505-8.506s8.506,3.816,8.506,8.506c0,3.912,2.746,7.195,6.412,8.023v-23.005 c-13.072-0.933-23.423-11.866-23.423-25.172c0-13.367,10.448-24.34,23.606-25.184c0.813-3.849,4.236-6.745,8.323-6.745 c4.086,0,7.509,2.896,8.322,6.745c13.158,0.843,23.606,11.816,23.606,25.184c0,4.69-3.816,8.506-8.506,8.506 s-8.505-3.816-8.505-8.506c0-3.912-2.746-7.195-6.412-8.023v16.313c13.072,0.933,23.423,11.867,23.423,25.172v6.692 c0,13.368-10.447,24.342-23.607,25.184C88.054,191.259,84.631,194.155,80.545,194.155z M57.122,157.721 c-2.484,0-4.505,2.021-4.505,4.506c0,11.71,9.526,21.236,21.236,21.236h0.187c1.104,0,2,0.896,2,2v0.187 c0,2.484,2.021,4.506,4.506,4.506s4.505-2.021,4.505-4.506v-0.187c0-1.104,0.896-2,2-2h0.187c11.71,0,21.236-9.526,21.236-21.236 v-6.692c0-11.71-9.526-21.237-21.236-21.237H87.05c-1.104,0-2-0.896-2-2v-20.45c0-1.104,0.896-2,2-2h0.187 c6.741,0,12.225,5.484,12.225,12.225c0,2.484,2.021,4.506,4.505,4.506s4.506-2.021,4.506-4.506 c0-11.709-9.526-21.236-21.236-21.236H87.05c-1.104,0-2-0.896-2-2v-0.187c0-2.484-2.021-4.506-4.505-4.506 s-4.506,2.021-4.506,4.506v0.187c0,1.104-0.896,2-2,2h-0.187c-11.71,0-21.236,9.526-21.236,21.236 c0,11.71,9.526,21.236,21.236,21.236h0.187c1.104,0,2,0.896,2,2v27.143c0,1.104-0.896,2-2,2h-0.187 c-6.741,0-12.225-5.484-12.225-12.225C61.627,159.742,59.606,157.721,57.122,157.721z M87.237,174.451H87.05c-1.104,0-2-0.896-2-2 v-27.143c0-1.104,0.896-2,2-2h0.187c6.741,0,12.225,5.484,12.225,12.226v6.692C99.462,168.967,93.978,174.451,87.237,174.451z M89.05,147.51v22.74c3.666-0.828,6.412-4.111,6.412-8.023v-6.692C95.462,151.622,92.716,148.338,89.05,147.51z M74.039,134.297 h-0.187c-6.741,0-12.225-5.484-12.225-12.225s5.484-12.225,12.225-12.225h0.187c1.104,0,2,0.896,2,2v20.45 C76.039,133.402,75.144,134.297,74.039,134.297z M72.039,114.049c-3.666,0.828-6.412,4.111-6.412,8.023 c0,3.913,2.746,7.196,6.412,8.023V114.049z"/><path fill="#6bdddd" d="M177.455,47.331c-3.593,0-6.506-2.913-6.506-6.506V9.506c0-3.593,2.913-6.506,6.506-6.506 s6.506,2.913,6.506,6.506v31.32C183.961,44.418,181.048,47.331,177.455,47.331z"/><path fill="#3762cc" d="M177.455,49.331c-4.69,0-8.506-3.815-8.506-8.505V9.506c0-4.69,3.815-8.506,8.506-8.506 s8.506,3.816,8.506,8.506v31.32C185.961,45.516,182.146,49.331,177.455,49.331z M177.455,5c-2.484,0-4.506,2.021-4.506,4.506 v31.32c0,2.484,2.021,4.505,4.506,4.505s4.506-2.021,4.506-4.505V9.506C181.961,7.021,179.939,5,177.455,5z"/><path fill="#4671c6" d="M80.545,66.848c-3.593,0-6.506-2.913-6.506-6.506v-31.32c0-3.593,2.913-6.506,6.506-6.506 s6.506,2.913,6.506,6.506v31.32C87.05,63.935,84.138,66.848,80.545,66.848z"/><path fill="#3762cc" d="M80.545,68.848c-4.69,0-8.506-3.815-8.506-8.505v-31.32c0-4.69,3.816-8.505,8.506-8.505 s8.505,3.815,8.505,8.505v31.32C89.05,65.033,85.235,68.848,80.545,68.848z M80.545,24.517c-2.484,0-4.506,2.021-4.506,4.505 v31.32c0,2.484,2.021,4.505,4.506,4.505s4.505-2.021,4.505-4.505v-31.32C85.05,26.538,83.029,24.517,80.545,24.517z"/><path fill="#f9a7a7" d="M173.867,203.989h-55.228v-3.106c0-1.746-1.958-2.776-3.397-1.787l-14.243,9.792 c-1.253,0.862-1.253,2.712,0,3.574l14.243,9.792c1.439,0.989,3.397-0.041,3.397-1.787v-3.106h55.228 c1.198,0,2.169-0.971,2.169-2.169v-9.036C176.036,204.96,175.065,203.989,173.867,203.989z"/><path fill="#f9cfcf" d="M175.311,239.248l-14.243-9.792c-1.439-0.989-3.397,0.041-3.397,1.787v3.106h-55.444 c-1.198,0-2.169,0.971-2.169,2.169v9.036c0,1.198,0.971,2.169,2.169,2.169h55.444v3.106c0,1.746,1.958,2.776,3.397,1.787 l14.243-9.792C176.564,241.961,176.564,240.11,175.311,239.248z"/><path fill="#3762cc" d="M116.469,224.638c-0.827,0-1.65-0.247-2.36-0.735l-14.244-9.792c-1.132-0.778-1.807-2.062-1.807-3.435 s0.675-2.657,1.807-3.435l14.244-9.792c1.28-0.879,2.929-0.976,4.302-0.254c1.374,0.723,2.228,2.136,2.228,3.689v1.106h53.229 c2.298,0,4.168,1.87,4.168,4.168v9.036c0,2.299-1.87,4.169-4.168,4.169h-53.229v1.106c0,1.553-0.854,2.966-2.228,3.689 C117.799,224.479,117.133,224.638,116.469,224.638z M116.465,200.711c-0.042,0-0.071,0.02-0.091,0.034l-14.243,9.792 c-0.022,0.015-0.073,0.05-0.073,0.139s0.051,0.124,0.073,0.139l14.243,9.792c0.032,0.021,0.085,0.057,0.174,0.01 c0.09-0.047,0.09-0.111,0.09-0.149v-3.106c0-1.104,0.896-2,2-2h55.229c0.093,0,0.168-0.076,0.168-0.169v-9.036 c0-0.093-0.075-0.168-0.168-0.168h-55.229c-1.104,0-2-0.896-2-2v-3.106c0-0.038,0-0.102-0.09-0.149 C116.516,200.717,116.489,200.711,116.465,200.711z"/><path fill="#3762cc" d="M159.841,254.998c-0.664,0-1.33-0.159-1.941-0.481c-1.375-0.723-2.229-2.137-2.229-3.689v-1.106h-53.444 c-2.298,0-4.168-1.87-4.168-4.168v-9.036c0-2.298,1.87-4.168,4.168-4.168h53.444v-1.106c0-1.553,0.854-2.967,2.229-3.689 c1.375-0.723,3.023-0.625,4.301,0.254l14.244,9.792c1.132,0.777,1.807,2.062,1.807,3.435c0,1.374-0.675,2.658-1.807,3.435 l-14.244,9.792C161.491,254.751,160.667,254.998,159.841,254.998z M102.227,236.349c-0.093,0-0.168,0.076-0.168,0.168v9.036 c0,0.093,0.076,0.168,0.168,0.168h55.444c1.104,0,2,0.896,2,2v3.106c0,0.038,0,0.102,0.09,0.149c0.09,0.048,0.142,0.01,0.174-0.01 l14.244-9.792c0.021-0.015,0.072-0.05,0.072-0.139c0-0.088-0.051-0.124-0.072-0.139l0,0l-14.244-9.792 c-0.032-0.021-0.084-0.058-0.174-0.01c-0.09,0.047-0.09,0.111-0.09,0.149v3.106c0,1.104-0.896,2-2,2H102.227z"/></svg>