<svg xmlns="http://www.w3.org/2000/svg" width="32" height="32"><g transform="translate(0 -1020.362)"><circle cx="657.054" cy="437.094" r="15.268" fill="#9257a2" fill-rule="evenodd" transform="translate(-672.561 578.308) scale(1.04795)"/><path style="line-height:normal;text-indent:0;text-align:start;text-decoration-line:none;text-decoration-style:solid;text-decoration-color:#000;text-transform:none;block-progression:tb;isolation:auto;mix-blend-mode:normal" fill="#6c4676" d="M20.693 31.295a16 16 0 0 0 .036-.01 16 16 0 0 0 1.501-.549 16 16 0 0 0 1.44-.695 16 16 0 0 0 1.365-.836 16 16 0 0 0 1.272-.967 16 16 0 0 0 1.172-1.092 16 16 0 0 0 1.054-1.2 16 16 0 0 0 .93-1.301 16 16 0 0 0 .797-1.387 16 16 0 0 0 .652-1.461 16 16 0 0 0 .371-1.115l-9.982-9.983A7.476 7.476 0 0 0 16 8.5c-4.136 0-7.5 3.364-7.5 7.5 0 2.068.841 3.943 2.2 5.3l9.993 9.995z" color="#000" font-family="sans-serif" font-weight="400" transform="translate(0 1020.362)"/><path style="line-height:normal;text-indent:0;text-align:start;text-decoration-line:none;text-decoration-style:solid;text-decoration-color:#000;text-transform:none;block-progression:tb;isolation:auto;mix-blend-mode:normal" fill="#fff" d="M8.5 1C4.364 1 1 4.364 1 8.5S4.364 16 8.5 16 16 12.636 16 8.5 12.636 1 8.5 1Zm0 1C12.096 2 15 4.904 15 8.5S12.096 15 8.5 15a6.492 6.492 0 0 1-6.467-7.166A6.492 6.492 0 0 1 8.5 2Zm-.008 2.494A.5.5 0 0 0 8 5v3H5a.5.5 0 1 0 0 1h3v3a.5.5 0 1 0 1 0V9h3a.5.5 0 1 0 0-1H9V5a.5.5 0 0 0-.508-.506Z" color="#000" font-family="sans-serif" font-weight="400" overflow="visible" transform="translate(7.5 1027.862)"/></g></svg>