<svg xmlns="http://www.w3.org/2000/svg" data-name="Layer 1" viewBox="0 0 64 64"><path fill="#e6e6e6" d="M41.29,2H13.89A5.07,5.07,0,0,0,8.81,7.08V56.92A5.07,5.07,0,0,0,13.89,62H50.11a5.07,5.07,0,0,0,5.08-5.08v-41Z"/><path fill="#ccc" d="M55.19,15.9v41A5.07,5.07,0,0,1,50.11,62H13.89a5.07,5.07,0,0,1-4.17-2.18H50a2.47,2.47,0,0,0,2.46-2.47V13.72L40.77,2h.52Z"/><path fill="#33313a" d="M50.11,62.63H13.89a5.71,5.71,0,0,1-5.71-5.71V7.08a5.71,5.71,0,0,1,5.71-5.7h27.4a.62.62,0,0,1,.44.18l13.9,13.9a.63.63,0,0,1,.19.44v41A5.71,5.71,0,0,1,50.11,62.63Zm-36.22-60A4.46,4.46,0,0,0,9.43,7.08V56.92a4.46,4.46,0,0,0,4.46,4.46H50.11a4.46,4.46,0,0,0,4.46-4.46V16.16L41,2.63Z"/><path fill="#95c0b3" d="M41.29,2v8.83a5.07,5.07,0,0,0,5.08,5.07h8.82Z"/><path fill="#33313a" d="M55.19 16.53H46.37a5.71 5.71 0 01-5.71-5.7V2a.64.64 0 01.39-.58.64.64 0 01.68.14l13.9 13.9a.63.63 0 01-.44 1.07zm-13.28-13v7.32a4.46 4.46 0 004.46 4.45h7.31zM32 29.55a3.86 3.86 0 01-3.85-3.86.63.63 0 011.25 0 2.6 2.6 0 102.6-2.6 3.86 3.86 0 113.85-3.86.63.63 0 11-1.25 0A2.6 2.6 0 1032 21.84a3.86 3.86 0 010 7.71z"/><path fill="#33313a" d="M32 16.63a.62.62 0 01-.62-.62v-1.8a.62.62 0 01.62-.62.63.63 0 01.63.62V16A.63.63 0 0132 16.63zM32 31.34a.62.62 0 01-.62-.63V28.92A.62.62 0 0132 28.3a.63.63 0 01.63.62v1.79A.63.63 0 0132 31.34zM48.24 38.29H15.93a.63.63 0 010-1.25H48.24a.63.63 0 110 1.25zM48.24 46.67H15.93a.63.63 0 010-1.25H48.24a.63.63 0 110 1.25zM48.24 55H15.93a.63.63 0 010-1.25H48.24a.63.63 0 110 1.25z"/></svg>