<svg xmlns="http://www.w3.org/2000/svg"  viewBox="0 0 50 50" width="50px" height="50px"><path d="M 37.322266 6.9003906 A 1.0001 1.0001 0 0 0 37.066406 6.9277344 C 34.564489 7.5281945 31.583917 9.0621454 29.78125 12.542969 C 28.007376 12.149061 26.196738 11.900391 24.300781 11.900391 C 18.594721 11.900391 14.24073 13.693753 10.796875 16.302734 A 1.0001 1.0001 0 0 0 10.791016 16.306641 C 8.8386945 17.803443 7.5007007 19.925995 6.7617188 22.537109 C 6.4921033 22.452438 6.0319502 22.288411 5.4648438 21.900391 C 4.6825005 21.365103 4 20.628232 4 19.300781 C 4 18.234115 4.4949165 17.335129 5.4199219 16.908203 A 1.0001 1.0001 0 0 0 5.0371094 14.994141 A 1.0001 1.0001 0 0 0 4.5800781 15.091797 C 2.9050835 15.864867 2 17.567448 2 19.300781 C 2 21.37333 3.2182807 22.786069 4.3359375 23.550781 C 5.260884 24.18364 6.0388333 24.414681 6.3300781 24.494141 C 6.1293199 25.783931 6.0459211 27.164175 6.1015625 28.638672 A 1.0001 1.0001 0 0 0 6.1015625 28.650391 C 6.3202009 33.023159 8.9020754 36.346916 11.289062 38.191406 A 1.0001 1.0001 0 0 0 11.345703 38.232422 C 11.495703 38.332422 11.554549 38.391047 11.568359 38.414062 C 11.582169 38.437083 11.629699 38.423762 11.542969 38.712891 C 11.274603 39.607442 10.681641 41.005859 10.681641 41.005859 A 1.0001 1.0001 0 0 0 10.650391 41.083984 C 10.19579 42.447785 10.835075 44.066119 12.283203 44.548828 L 12.248047 44.537109 L 15.449219 45.736328 A 1.0001 1.0001 0 0 0 15.484375 45.748047 C 16.848176 46.202647 18.466509 45.565315 18.949219 44.117188 C 18.959359 44.089438 19.34015 43.045698 19.712891 42.207031 A 1.0001 1.0001 0 0 0 19.724609 42.181641 C 19.776484 42.05566 19.800666 42.019343 19.826172 41.974609 C 19.86988 41.978255 19.892309 41.977423 19.994141 41.996094 C 20.638052 42.114144 22.046687 42.5 24.400391 42.5 C 26.81422 42.5 28.215416 42.264415 28.841797 42.222656 C 28.942714 42.215928 28.967941 42.220739 29.011719 42.222656 C 29.026907 42.255837 29.031724 42.260701 29.058594 42.335938 C 29.362466 43.243606 29.730548 44.16329 29.751953 44.216797 C 30.234663 45.664925 31.852996 46.30421 33.216797 45.849609 A 1.0001 1.0001 0 0 0 33.251953 45.835938 L 36.451172 44.636719 L 36.416016 44.648438 C 37.864144 44.165728 38.503428 42.547394 38.048828 41.183594 A 1.0001 1.0001 0 0 0 38.041016 41.164062 L 37.541016 39.763672 A 1.0001 1.0001 0 0 0 37.474609 39.615234 C 37.474609 39.615234 37.486238 39.619288 37.486328 39.617188 C 37.486418 39.614987 37.37013 39.647368 37.679688 39.478516 C 40.079124 38.169732 41.921025 36.099258 43.101562 33.630859 A 1.0001 1.0001 0 0 0 43.128906 33.572266 C 43.203296 33.386299 43.298724 33.222169 43.388672 33.136719 C 43.478613 33.05121 43.534115 33 43.800781 33 L 45.400391 33 C 46.818909 33 48 31.818909 48 30.400391 L 48 25.5 C 48 24.133333 46.892983 23 45.400391 23 L 43.800781 23 C 43.597246 23 43.502021 22.951784 43.455078 22.927734 C 42.998614 20.008735 40.992094 16.475256 36.761719 14.640625 C 36.833649 12.580728 37.242682 10.959411 38.238281 8.2441406 A 1.0001 1.0001 0 0 0 37.322266 6.9003906 z M 35.699219 9.6660156 C 35.101547 11.570126 34.699219 13.265259 34.699219 15.199219 A 1.0001 1.0001 0 0 0 35.365234 16.142578 C 39.502834 17.613724 41.155492 20.861881 41.509766 23.341797 L 41.5 23.199219 C 41.5 23.815885 41.870799 24.299282 42.294922 24.582031 C 42.719045 24.86478 43.234115 25 43.800781 25 L 45.400391 25 C 45.707798 25 46 25.466667 46 25.5 L 46 30.400391 C 46 30.781872 45.781872 31 45.400391 31 L 43.800781 31 C 43.067448 31 42.421771 31.29795 42.011719 31.6875 C 41.601666 32.07705 41.397098 32.514092 41.271484 32.828125 L 41.298828 32.767578 C 40.279366 34.89918 38.721266 36.63144 36.720703 37.722656 C 35.93026 38.153807 35.513191 38.935368 35.488281 39.533203 C 35.463371 40.131038 35.726562 40.585938 35.726562 40.585938 L 35.658203 40.435547 L 36.150391 41.816406 C 36.29579 42.252606 36.135071 42.634663 35.783203 42.751953 A 1.0001 1.0001 0 0 0 35.748047 42.763672 L 32.582031 43.951172 C 32.146819 44.095202 31.765515 43.935222 31.648438 43.583984 A 1.0001 1.0001 0 0 0 31.628906 43.529297 C 31.628906 43.529297 31.235164 42.54143 30.949219 41.683594 A 1.0001 1.0001 0 0 0 30.941406 41.664062 C 30.790788 41.242331 30.581828 40.780517 30.101562 40.482422 C 29.621298 40.184326 29.145794 40.197443 28.708984 40.226562 C 27.835359 40.284808 26.686561 40.5 24.400391 40.5 C 22.254094 40.5 21.211557 40.186246 20.355469 40.029297 C 19.927425 39.950827 19.417764 39.866673 18.875 40.150391 C 18.334078 40.433145 18.084672 40.917134 17.878906 41.416016 C 17.461335 42.359696 17.060547 43.458984 17.060547 43.458984 A 1.0001 1.0001 0 0 0 17.050781 43.484375 C 16.933491 43.836247 16.553387 43.996963 16.117188 43.851562 L 12.951172 42.664062 A 1.0001 1.0001 0 0 0 12.916016 42.650391 C 12.564144 42.5331 12.403428 42.152996 12.548828 41.716797 C 12.583938 41.635457 13.135512 40.35884 13.457031 39.287109 C 13.670301 38.576212 13.569393 37.861749 13.283203 37.384766 C 13.019191 36.944745 12.68276 36.722104 12.511719 36.609375 C 10.499076 35.054151 8.2816851 32.179025 8.0996094 28.552734 C 8.0996094 28.552734 8.0996094 28.550781 8.0996094 28.550781 C 7.910221 23.464381 9.315495 19.958642 12.007812 17.894531 C 15.163315 15.504948 19.008761 13.900391 24.300781 13.900391 C 26.337289 13.900391 28.248477 14.093658 30.044922 14.566406 A 1.0001 1.0001 0 0 0 31.21875 13.996094 C 32.295521 11.506061 33.972149 10.400886 35.699219 9.6660156 z M 36 23 C 34.9 23 34 23.9 34 25 C 34 26.1 34.9 27 36 27 C 37.1 27 38 26.1 38 25 C 38 23.9 37.1 23 36 23 z"/></svg>