<svg xmlns="http://www.w3.org/2000/svg" width="32" height="32"><path fill-rule="evenodd" d="M13.992 1.004c-1.5.038-3.011.44-4.4 1.242-4.445 2.568-5.972 8.271-3.406 12.719 2.07 3.59 6.183 5.274 10.029 4.441l1.615 2.801a.5.5 0 0 0 .684.184l.162-.094.931 1.615 2.266 3.928 1.22 2.115a2.1 2.1 0 0 0 2.862.766 2.102 2.102 0 0 0 .766-2.862l-4.418-7.656.164-.096a.5.5 0 0 0 .181-.683l-1.597-2.77c2.71-2.915 3.34-7.374 1.248-11a9.304 9.304 0 0 0-8.307-4.65zm.03.994a8.293 8.293 0 0 1 7.412 4.156 8.306 8.306 0 0 1-3.04 11.352 8.291 8.291 0 0 1-11.341-3.041 8.306 8.306 0 0 1 3.039-11.352 8.27 8.27 0 0 1 3.93-1.115zm.025 1.078a7.184 7.184 0 0 0-3.42.967c-3.454 1.996-4.64 6.428-2.647 9.885 1.994 3.456 6.425 4.646 9.88 2.65 3.453-1.996 4.64-6.43 2.646-9.887a7.236 7.236 0 0 0-6.46-3.615zm.03.996a6.224 6.224 0 0 1 5.564 3.12 6.23 6.23 0 0 1-.703 7.214 2.206 2.206 0 0 0-.545-.459l-2.284-1.367v-.959a2.726 2.726 0 0 0 .586-1.68V6.78l-.006-.033c-.057-.447-.193-.87-.48-1.205A1.616 1.616 0 0 0 14.971 5h-.467l-.03.465c0 .012.008.01-.04.043a.51.51 0 0 1-.221.074h-1.19c-.948 0-1.718.788-1.718 1.738V9.941c0 .664.246 1.268.638 1.743v.896l-2.297 1.348c-.11.064-.201.15-.298.23a6.29 6.29 0 0 1-.502-.73 6.231 6.231 0 0 1 2.281-8.52 6.206 6.206 0 0 1 2.95-.836zm1.081 2.002c.1.03.224.038.291.117.109.127.204.36.246.674v1.477l-.002-.405v.405c-.048-.014-.097-.032-.144-.041-.357-.066-.692-.039-.992-.026-.301.013-.564.01-.748-.04-.185-.052-.296-.116-.42-.333a.5.5 0 0 0-.46-.25V7.65a.5.5 0 0 0-.456.371c.031-.118.005-.023-.057.051-.028.033-.074.075-.111.114v-.864c0-.422.316-.738.718-.738h1.25c.256-.017.51-.095.739-.258.073-.052.083-.177.146-.252zm-2.086 2.754c.165.116.294.319.469.367.38.106.742.091 1.059.078.317-.013.591-.024.765.01.174.032.226.054.303.19a.5.5 0 0 0 .027.043v.423c0 .972-.752 1.73-1.695 1.73-.943 0-1.695-.758-1.695-1.73v-.48l.127-.076c.14-.09.274-.198.402-.313.087-.078.162-.16.238-.242zm2.037 3.596v.51c-.218.406-.39.795-.82 1.164l-.025.021-.02.022-.234.218-.244-.24-.014-.012c-.345-.368-.64-.772-.809-1.16v-.494a2.643 2.643 0 0 0 2.166-.03zm.774 1.187 2.006 1.203h.004c.13.075.235.177.328.29-.268.221-.55.43-.862.609a6.21 6.21 0 0 1-2.859.83v-.133h.004v-1.142l.457-.428.027-.03-.049.047c.519-.444.76-.883.944-1.246zm-3.73.006c.235.444.552.837.876 1.184l.018.02.043.036.41.403v1.238a6.23 6.23 0 0 1-3.486-1.603c.045-.035.085-.073.134-.102h.002l2.002-1.176zm8.154 3.746 1.226 2.127-3.086 1.785-1.236-2.142a9.31 9.31 0 0 0 1.684-.76c.511-.296.98-.638 1.412-1.01zm1.13 3.338 4.418 7.658h-.001a1.083 1.083 0 0 1-.4 1.496 1.08 1.08 0 0 1-1.495-.4L22.74 27.34l-2.265-3.928-.932-1.615 1.895-1.096z" color="#fff" font-family="sans-serif" font-weight="400" overflow="visible" style="line-height:normal;text-indent:0;text-align:start;text-decoration-line:none;text-decoration-style:solid;text-decoration-color:#fff;text-transform:none;block-progression:tb;isolation:auto;mix-blend-mode:normal"/></svg>