<svg xmlns="http://www.w3.org/2000/svg" enable-background="new 0 0 68 68" viewBox="0 0 68 68"><path fill="#010101" d="M60.33032,7.67709C51.42538-1.22886,37.01118-1.22984,28.10474,7.6766
		c-7.9115,7.91193-8.75836,20.23248-2.57941,29.11164l-3.93842,3.93842c-1.28607-0.64935-2.95697-0.46637-4.00415,0.58081
		C12.75174,46.13849,6.84759,52.04263,2.00659,56.88364c-1.33398,1.3335-1.33398,3.50391,0,4.8374l4.2793,4.27979
		c1.33508,1.33508,3.5006,1.3368,4.8374,0c0.18849-0.18848,13.58214-13.58214,15.57617-15.57617
		c1.01857-1.01858,1.34033-2.60297,0.59052-4.01428l3.92358-3.92322c8.82514,6.1651,21.12888,5.40382,29.11676-2.58496
		C69.21509,31.01791,69.21509,16.56137,60.33032,7.67709z M18.99683,42.72153c0.47571-0.47485,1.24835-0.50385,1.79523-0.13879
		c0.20406,0.35043-0.27562-0.24806,4.4201,4.49133c0.7035,0.7035,0.49772,1.51118,0.07324,1.93604l-1.56616,1.56616
		l-6.28833-6.28882L18.99683,42.72153z M12.68939,61.60648l-6.28876-6.28876l9.61621-9.61621l6.28839,6.28882L12.68939,61.60648z
		 M3.42065,60.30698c-0.55371-0.5542-0.55371-1.45508,0-2.00928l1.56592-1.56592l6.28857,6.28857l-1.56592,1.56641
		c-0.53977,0.53878-1.47472,0.53358-2.00928,0L3.42065,60.30698z M25.99243,44.87973L23.1272,42.0145l3.61749-3.61749
		c0.43091,0.51477,0.87646,1.02161,1.36005,1.50519c0.48163,0.48169,0.98688,0.93054,1.50256,1.36316L25.99243,44.87973z
		 M58.91626,38.48813c-3.92627,3.92627-9.146,6.08838-14.69824,6.08838c-4.85242,0-9.45038-1.65192-13.15332-4.68854
		l-2.91772-2.91809c-6.69989-8.15717-6.24493-20.26203,1.37183-27.87921c8.12489-8.12388,21.27259-8.12438,29.39746,0.00049
		C67.02075,17.19613,67.02075,30.38315,58.91626,38.48813z"/><path fill="#010101" d="M56.94556,11.06186c-7.03505-7.03505-18.42043-7.03563-25.45605,0
		c-7.01807,7.01807-7.01807,18.43701,0,25.45557c7.03505,7.03505,18.42043,7.03563,25.45605,0
		C63.96362,29.49887,63.96362,18.07992,56.94556,11.06186z M55.53149,35.10336c-6.25337,6.25336-16.37437,6.25356-22.62793,0
		c-6.23828-6.23877-6.23828-16.38916,0-22.62744c6.25337-6.25337,16.37437-6.25355,22.62793,0
		C61.76978,18.7142,61.76978,28.86459,55.53149,35.10336z"/><path fill="#010101" d="M47.56079 11.47494c-.49414-.24268-1.09473-.03955-1.33936.45459-.24414.49512-.04102 1.09473.45459 1.33936 1.26416.62354 2.45264 1.41455 3.53223 2.35107.41763.36166 1.04867.3173 1.41064-.1001.36182-.41748.31689-1.04883-.1001-1.41064C50.30981 13.06088 48.97827 12.17465 47.56079 11.47494zM56.82642 21.66195c-.59521-1.51904-1.38281-2.96484-2.33984-4.29736-.32227-.44873-.94629-.55127-1.39551-.22852-.44824.32178-.55078.94678-.22852 1.39551.85986 1.19727 1.56689 2.49609 2.10156 3.85986.20141.51338.78018.76848 1.2959.56641C56.77417 22.75619 57.02808 22.17612 56.82642 21.66195z"/></svg>