<svg xmlns="http://www.w3.org/2000/svg" viewBox="0 0 1500 1500" width="1500" height="1500"><g transform="translate(668.0 510.0) rotate(0.0 316.5 405.0) scale(4.416566660154614 4.412173240441653)"><svg width="143.324" height="183.583" viewBox="0 0 143.324 183.583"><path d="M14 183.583h115.324c7.732 0 14-6.268 14-14V14c0-7.732-6.268-14-14-14H14C6.268 0 0 6.268 0 14v155.583c0 7.732 6.268 14 14 14z" fill="#eff0f2"/><path d="M15.955 15.529h111.414V46.41H15.955z" fill="#016eea"/><g opacity=".5"><g fill="#93c3ff"><path d="M34.378 82.577H19.166a3 3 0 0 1-3-3V64.364a3 3 0 0 1 3-3h15.212a3 3 0 0 1 3 3v15.212a3 3 0 0 1-3 3.001zm29.462 0H48.627a3 3 0 0 1-3-3V64.364a3 3 0 0 1 3-3H63.84a3 3 0 0 1 3 3v15.212a3 3 0 0 1-3 3.001zm29.461 0H78.089a3 3 0 0 1-3-3V64.364a3 3 0 0 1 3-3h15.212a3 3 0 0 1 3 3v15.212a3 3 0 0 1-3 3.001z"/></g><path d="M122.763 82.577h-15.212a3 3 0 0 1-3-3V64.364a3 3 0 0 1 3-3h15.212a3 3 0 0 1 3 3v15.212a3 3 0 0 1-3 3.001z" fill="#fff"/><path d="M34.378 112.038H19.166a3 3 0 0 1-3-3V93.826a3 3 0 0 1 3-3h15.212a3 3 0 0 1 3 3v15.212a3 3 0 0 1-3 3zm29.462 0H48.627a3 3 0 0 1-3-3V93.826a3 3 0 0 1 3-3H63.84a3 3 0 0 1 3 3v15.212a3 3 0 0 1-3 3zm29.461 0H78.089a3 3 0 0 1-3-3V93.826a3 3 0 0 1 3-3h15.212a3 3 0 0 1 3 3v15.212a3 3 0 0 1-3 3z" fill="#dddee3"/><path d="M122.763 112.038h-15.212a3 3 0 0 1-3-3V93.826a3 3 0 0 1 3-3h15.212a3 3 0 0 1 3 3v15.212a3 3 0 0 1-3 3z" fill="#fff"/><path d="M34.378 141.5H19.166a3 3 0 0 1-3-3v-15.212a3 3 0 0 1 3-3h15.212a3 3 0 0 1 3 3V138.5a3 3 0 0 1-3 3zm29.462 0H48.627a3 3 0 0 1-3-3v-15.212a3 3 0 0 1 3-3H63.84a3 3 0 0 1 3 3V138.5a3 3 0 0 1-3 3zm29.461 0H78.089a3 3 0 0 1-3-3v-15.212a3 3 0 0 1 3-3h15.212a3 3 0 0 1 3 3V138.5a3 3 0 0 1-3 3z" fill="#dddee3"/><path d="M122.763 155.5h-15.212a3 3 0 0 1-3-3v-29.212a3 3 0 0 1 3-3h15.212a3 3 0 0 1 3 3V152.5a3 3 0 0 1-3 3z" fill="#fff"/><path d="M34.378 170.962H19.166a3 3 0 0 1-3-3V152.75a3 3 0 0 1 3-3h15.212a3 3 0 0 1 3 3v15.212a3 3 0 0 1-3 3zm29.462 0H48.627a3 3 0 0 1-3-3V152.75a3 3 0 0 1 3-3H63.84a3 3 0 0 1 3 3v15.212a3 3 0 0 1-3 3z" fill="#dddee3"/><path d="M93.301 170.962H78.089a3 3 0 0 1-3-3V152.75a3 3 0 0 1 3-3h15.212a3 3 0 0 1 3 3v15.212a3 3 0 0 1-3 3zm29.462 0h-15.212a3 3 0 0 1-3-3V152.75a3 3 0 0 1 3-3h15.212a3 3 0 0 1 3 3v15.212a3 3 0 0 1-3 3z" fill="#fff"/></g><path d="M114.074 139.046h2v9.823h-2z" fill="#b2bdcb"/><path d="M110.163 142.957h9.823v2h-9.823zm7.677-76.32 1.415 1.414-6.946 6.946-1.414-1.415z" fill="#b2bdcb"/><path d="m112.31 66.636 6.946 6.946-1.414 1.414-6.946-6.946zm-2.147 33.59h9.823v2h-9.823z" fill="#b2bdcb"/><path d="M81.163 70.226h9.823v2h-9.823z" fill="#fff"/><g fill="#b2bdcb"><path d="M81.184 157.201h9.823v2h-9.823zm0 3.929h9.823v2h-9.823zm-50.669 6.482h-7.223v-14.767h7.223zm-5.222-2h3.223v-10.767h-3.223zm5.222-28.332h-2v-10.74l-3.614 2.768-1.216-1.588 6.83-5.231zm0-28.331h-2v-4.766h-6.216l8.216-11.013v9.013h1.081v2h-1.081zm-4.229-6.766h2.229v-2.987zm33.11 36.097h-6.423l-.126-4.531 5.014-3.585.069-4.65h-3.207v3.54h-2v-5.54h7.237l-.114 7.689-4.97 3.554.042 1.523h4.478zm0-29.409H53.15v-2h4.246v-4.519h-4.708l.04-7.169h6.217v2h-4.228l-.018 3.169h4.697zm30.361 29.409h-7.152v-4.729h2v2.729h3.152v-4.977l-2.12-.023.009-2 2.154-.003.015-3.763h-3.218v1.885h-2v-3.885h7.227zm-.486-29.409h-6.733l.026-6.519h-.002l.041-7.169h6.217v2h-4.228l-.018 3.169h4.698v8.519zm-4.726-2h2.725v-4.519h-2.707z"/><circle cx="55.767" cy="160.015" r="1.63"/></g><circle cx="86.314" cy="67.051" fill="#fff" r="1"/><circle cx="86.314" cy="76.051" fill="#fff" r="1"/><path d="m26.774 79.081-3.713-8.663 1.838-.787 1.454 3.391 2.03-7.443h5.93v2h-4.402zm26.131-6.255h-1.254a2.078 2.078 0 0 1-2.075-2.075v-3.225c0-1.144.931-2.074 2.075-2.074h1.254c1.144 0 2.075.931 2.075 2.074v3.225a2.078 2.078 0 0 1-2.075 2.075zm-1.254-5.374a.075.075 0 0 0-.075.074v3.225c0 .041.033.075.075.075h1.254a.076.076 0 0 0 .075-.075v-3.225a.074.074 0 0 0-.075-.074zm9.887 11.828h-1.254a2.077 2.077 0 0 1-2.075-2.074v-3.225c0-1.144.931-2.074 2.075-2.074h1.254c1.144 0 2.075.931 2.075 2.074v3.225a2.077 2.077 0 0 1-2.075 2.074zm-1.254-5.373a.075.075 0 0 0-.075.074v3.225c0 .041.034.074.075.074h1.254a.075.075 0 0 0 .075-.074v-3.225a.074.074 0 0 0-.075-.074zm-1.357-8.484 1.792.889-6.459 13.023-1.792-.888z" fill="#fff"/></svg></g><g transform="translate(269.0 285.0) rotate(0.0 279.0 514.5) scale(3.026112421703408 3.0342346592752043)"><svg width="184.395" height="339.13" viewBox="0 0 184.395 339.13"><path d="m100.802 258.536 4.041 35.45 1.378 12.077.754 6.596.222 1.952.718 6.309.356 3.112.543 4.733.029.271-6.999.194c-1.656.048-3.412.097-5.03.149-.917.024-1.783.053-2.571.077a194.94 194.94 0 0 0-3.659.129l-.172-.586-.489-1.661-3.852-13.059-4.318-14.647-18.035-45.329-7.539-41.107 26.939-.812 15.824 39.573c.986 2.206 1.614 4.429 1.86 6.579z" fill="#c78982"/><path d="M101.973 297.552H80.92l-17.2-43.25-7.54-41.11 26.94-.81 15.82 39.57c.99 2.21 1.62 4.43 1.86 6.58l7.815 30.459c1.113 4.338-2.163 8.561-6.642 8.561z" fill="#013b84"/><path d="M18.389 75.456 7.179 60.023l.915 1.131a2.642 2.642 0 0 0 4.014.095l.042-.025a3.165 3.165 0 0 0 .77-2.499l-.575-4.328a6.117 6.117 0 0 1 .412-3.228c.314-.686.741-1.3 1.269-1.684.282-.205.589-.345.927-.397a1.043 1.043 0 0 1 1.177 1.035l1.264 13.37.996 3.045c.62 1.865.785 3.85.484 5.793l-.463 2.922c-.01.067-.017.133-.022.203z" fill="#c78982"/><path d="M18.098 80.653c2.685-2.615.338-2.742.428-5.421l-.104-.575L3.767 53.116l-.175-1.111-1.611 1.54a1.562 1.562 0 0 0-.379 1.689l.424 1.104-.717.842a1.562 1.562 0 0 0-.287 1.521l.658 1.912-1.293 2.934a4.486 4.486 0 0 0-.158 3.232l2.556 9.662 12.782 19.458 6.285-7.163z" fill="#c78982"/><path d="m9.486 88.401 22.006 33.476a20.006 20.006 0 0 0 9.777 7.773l9.317 3.445 16.579-14.809-21.799-15.718-25.354-23.659z" fill="#2888ff"/><path d="m78.713 16.561-.129 22.124c.066 2.616 2.662 4.409 5.132 3.544l22.904-8.024z" fill="#c78982"/><path d="m80.516 30.004-3.918-.094c-1.632-.039-2.436-2.003-1.3-3.176l4.972-5.129zm11.149-27.23.504-.013a3.858 3.858 0 0 1 3.953 3.759l.336 13.392-17.857.448-.094-3.751C78.32 9.155 84.211 2.961 91.665 2.774z" fill="#c78982"/><path d="M179.386 52.941h-53.88v33.33l-28.96-1.86-5.3-.34-20.69-1.33-5.31-.34-3.66-.24 7.31-16.07c1.18-2.59 3.26-4.65 5.86-5.79l5.8-2.56h.01l9.31-4.1.01-.01 29.16-12.88 7.3-3.22 2.16-.95c2.76-1.22 5.88-1.31 8.71-.25l42.314 15.815c.428.16.313.795-.144.795z" fill="#2888ff"/><path d="M112.24 20.392H91.379v41.291c0 1.002 1.212 1.503 1.92.793l18.942-19.012V20.392zm-33.736-2.581 11.194-.28.357 14.23-11.194.28z" fill="#c78982"/><path d="M96.424 0h5.3c5.792 0 10.487 4.695 10.487 10.487v26.217H78.503V17.921C78.503 8.024 86.526 0 96.424 0z" fill="#c78982"/><path d="m82.975 88.083-16.529 38.02-20.096-8.736 16.529-38.02z" fill="#2888ff"/><path d="m91.478 39.368.297-.122c1.791-.737 3.48 1.247 2.465 2.897l-2.649 4.309M78.573 20.64h2.565c.298 0 .584.118.795.329l1.068 1.068c.708.708.207 1.918-.795 1.918h-3.66" fill="#002652" opacity=".1"/><path d="M92.659 24.554v3.972a9.167 9.167 0 0 1-5.542 8.42 5.202 5.202 0 0 0-5.201-5.201h-3.413v7.24c0 2.639 2.657 4.451 5.114 3.486l9.737-3.822a3.745 3.745 0 0 0 2.377-3.486v-13.68a3.071 3.071 0 0 0-3.072 3.071z" fill="#002652"/><path d="m82.423 37.672-2.579.595a1.095 1.095 0 0 1-1.341-1.067v-3.118h2.472a2.397 2.397 0 0 1 2.397 2.397 1.226 1.226 0 0 1-.949 1.193z" fill="#c78982"/><path d="m46.019 125.529-.037 17.958 14.366 97.615s27.751-9.844 27.706-10.37l-3.82-105.39z" fill="#013b84"/><path d="m80.453 305.382 2.622 8.899 3.854 13.056.487 1.663.172.584c.184-.015 1.64-.067 3.659-.127.79-.026 1.655-.052 2.573-.079 1.618-.052 3.375-.101 5.03-.15 3.757-.105 6.996-.191 6.996-.191l-.026-.273-.543-4.73-.356-3.112-.719-6.311-.225-1.951-.753-6.595-.079-.682H80.453z" fill="#ed956e"/><path d="m65.167 335.975-4.399-2.62c-1.213-.723-2.057-1.958-2.244-3.284-.274-1.949.927-3.602 2.818-3.878l8.342-1.216c5.272-.769 9.621-3.836 11.919-8.407l2.751-5.472 3.66 2.059c.882.496 1.337 1.523 1.057 2.387l-.801 2.472 5.018 1.97c3.399 1.334 7.004.72 9.286-1.583l3.524-3.555c.617-.623 1.795-.156 1.976.784l3.079 15.996-.434 3.765z" fill="#93c3ff"/><path d="m112.534 332.68-.523 1.583c-.942 2.848-3.552 4.665-6.7 4.665H71.838a4.15 4.15 0 0 1-1.905-.481l-7.997-4.17h27.561c.488 0 .93-.191 1.232-.531 1.516-1.71 3.736-2.668 6.188-2.668h14.375c.825-.001 1.489.857 1.242 1.602z" fill="#2888ff"/><path d="m91.348 290.789 6.202 11.108 6.059 5.481-17.31 13.704-11.829-18.031z" fill="#c78982"/><path d="m110.547 314.561-11.521 10.813-14.581 13.685c-.858.023-5.805-.352-5.805-.352l.105-1.539.816-12.101.918-13.573.61-.12a1.875 1.875 0 0 1 2.146 1.274l.82 2.599 4.828-1.749a9.086 9.086 0 0 0 5.948-7.584l.569-5.341c.097-.933 1.236-1.341 1.906-.682l6.464 6.371 4.551 4.487.393.386z" fill="#93c3ff"/><path d="m98.611 320.824-2.618 10.539-18.217 4.603-12.618.161h-.03l-.195-.127-2.419-1.573-1.416-.921a3.919 3.919 0 0 1-.824-5.851 3.928 3.928 0 0 1 2.404-1.311l8.513-1.217a18.73 18.73 0 0 0 13.101-8.405l6.888-3.412a1.87 1.87 0 0 1 .723 2.386l-1.146 2.472 4.742 1.97a8.908 8.908 0 0 0 3.112.686z" fill="#93c3ff"/><path d="M88.298 334.427v4.652H70.927a3.77 3.77 0 0 1-1.839-.479l-4.389-2.472-.225-.128-2.794-1.573z" fill="#2888ff"/><path d="M108.577 321.157 97.574 331.22l-8.416 7.7c-1.551.045-3.195.09-4.712.138-.858.023-1.67.049-2.408.071l12.214-11.176c.36-.33.577-.787.607-1.273a9.402 9.402 0 0 1 3.041-6.397l3.094-2.831 7.33-6.704.184-.169a1.126 1.126 0 0 1 1.832.498l.517 1.67a8.142 8.142 0 0 1-2.28 8.41z" fill="#2888ff"/><path d="M60.552 138.801 31.23 236.028a20.003 20.003 0 0 0 2.433 16.758l33.476 50.948c2.253 3.43 6.96 4.194 10.183 1.654l15.552-12.258-2.247-3.995-19.216-42.269c-.412-.94-.9-1.845-1.461-2.706l-7.151-10.982 33.32-52.681a40 40 0 0 0 5.6-28.252l-4.652-26.679-32.591-.08z" fill="#013b84"/><path d="M123.676 73.489h48.368c6.821 0 12.35-5.529 12.35-12.35V59.28a7.704 7.704 0 0 0-7.704-7.704h-53.014z" fill="#2888ff"/><path d="M46.009 125.534h30.173a29.996 29.996 0 0 1 16.44 4.906l5.752 3.768 17.609-20.548a100.003 100.003 0 0 0 16.143-26.056l14.284-33.71-78.427 25.53z" fill="#2888ff"/><g fill="#c78982"><path d="M138.112 98.539c.996-.027 1.927-.85 2.194-2.047l2.589-18.44-5.117-3.393-.26 23.191a.635.635 0 0 0 .594.689zm3.381-5.86c.984.153 2.05-.487 2.528-1.615l5.888-17.666-4.418-4.264-4.458 22.76a.634.634 0 0 0 .46.785z"/><path d="M145.352 89.924c.989.115 2.029-.565 2.464-1.711l5.203-17.879-4.578-4.091-3.579 22.915a.635.635 0 0 0 .49.766z"/><path d="M149.258 85.523c.989.115 2.029-.565 2.464-1.711l4.852-16.671a1.994 1.994 0 0 0-.587-2.046l-3.64-3.253-3.579 22.915a.635.635 0 0 0 .49.766z"/><path d="M150.687 73.886h-5.791c-3.369 0-6.125-2.756-6.125-6.125v-5.123c0-3.369 2.756-6.125 6.125-6.125h1.443c5.76 0 10.472 4.713 10.472 10.472v.775c.001 3.369-2.755 6.126-6.124 6.126z"/><path d="M140.455 58.608v16.434l-.065-1.252a2.318 2.318 0 0 0-.05-.358c-.266-1.225-1.08-1.763-2.305-1.501l-.438-.244c-.766.169-1.03.902-1.407 1.592l-1.791 3.308a5.26 5.26 0 0 1-1.922 2.041c-.566.32-1.57.292-2.132.292-.3 0-.585-.058-.847-.193a.899.899 0 0 1-.296-1.318l5.889-9.96.847-2.627a10.643 10.643 0 0 1 2.596-4.283l1.802-1.802c.042-.041.08-.083.119-.129z"/><path d="M153.732 70.254c0 5.389-4.041 9.757-9.025 9.757-.277 0-.551-.013-.821-.04-.168-.016-.516.103-.5-.064.049-.52-.625-.6-.722-.147-.032.148-.292-.077-.436-.122-1.598-.493-3.016-1.45-4.119-2.727-.119-.138-.347-.242-.347-.426.007-3.045-1.07-3.98-1.649-3.06-.135.215-.085-.475-.145-.726-.186-.781-.286-1.6-.286-2.445 0-5.389 4.041-9.757 9.025-9.757s9.025 4.369 9.025 9.757z"/></g><path d="m125.986 39.831-19.56 26.15a63.984 63.984 0 0 0-7.38 12.68l-2.5 5.75-19.54 44.86c-.41.94-1.33 1.5-2.3 1.5-.33 0-.67-.07-.99-.21a2.502 2.502 0 0 1-1.3-3.29l18.83-43.2 3.22-7.4c2.11-4.85 4.79-9.46 7.96-13.69l16.62-22.23 7.3-3.22c.26.75.15 1.62-.36 2.3zm-36.11 13.81-11.48 15.34a63.94 63.94 0 0 0-7.37 12.68l-.47 1.08-19.231 43.198-5.306-.334 19.227-43.203 1.19-2.73c2.12-4.85 4.79-9.46 7.96-13.69l6.16-8.24h.01z" fill="#013b84"/><path d="m3.893 57.651 5.944-9.091c.55-1.007.4-2.162-.285-2.795l-.012-.009a.594.594 0 0 0-.831.128l-5.498 6.431z" fill="#c78982"/><path d="m4.027 58.697 7.18-5.352c.863-.757 1.119-1.892.694-2.722l-.008-.013a.595.595 0 0 0-.824-.166l-7.554 4.248z" fill="#c78982"/><path d="m4.518 62.535 6.252-4.66c.863-.757 1.119-1.892.694-2.722l-.008-.013a.595.595 0 0 0-.824-.166l-6.605 3.714z" fill="#c78982"/><path d="m4.685 66.562-3.678-1.214 2.428-7.355 3.678 1.214z" fill="#c78982"/><path d="m8.818 75.212-4.802 1.416L.464 64.576l4.802-1.416z" fill="#c78982"/></svg></g><g transform="translate(212.0 267.0) rotate(12.49574133234971 92.5 89.0) scale(6.082125127395864 5.983193277310924)"><svg width="30.417" height="29.75" viewBox="0 0 30.417 29.75"><circle cx="14.875" cy="14.875" fill="#d2d3da" r="13.875"/><path d="M19.615 12.805V9.58a2.84 2.84 0 0 0-2.836-2.836h-.154v-2.68h-2v2.68h-.001a2.84 2.84 0 0 0-2.836 2.836v1.188c0 1.201.526 2.333 1.445 3.105l3.649 3.073c.465.393.733.967.733 1.575v1.494a.837.837 0 0 1-.836.836H14.47a.837.837 0 0 1-.836-.836v-3.526h-2v3.526a2.84 2.84 0 0 0 2.836 2.836h.154v2.834h2v-2.834h.154a2.84 2.84 0 0 0 2.836-2.836v-1.494c0-1.2-.527-2.332-1.445-3.104l-3.65-3.073a2.06 2.06 0 0 1-.732-1.576V9.58c0-.461.375-.836.836-.836h2.155c.461 0 .836.375.836.836v3.225z" fill="#c6c8d0"/><path d="M15.542 29.75C7.34 29.75.667 23.077.667 14.875S7.34 0 15.542 0s14.875 6.673 14.875 14.875S23.744 29.75 15.542 29.75zm0-27.75C8.442 2 2.667 7.775 2.667 14.875S8.442 27.75 15.542 27.75s12.875-5.775 12.875-12.875S22.641 2 15.542 2z" fill="#c6c8d0"/><g fill="#dddee3"><path d="M18.865 12.805V9.58a2.84 2.84 0 0 0-2.836-2.836h-.154v-2.68h-2v2.68h-.001a2.84 2.84 0 0 0-2.836 2.836v1.188c0 1.201.526 2.333 1.445 3.105l3.649 3.073c.465.393.733.967.733 1.575v1.494a.837.837 0 0 1-.836.836H13.72a.837.837 0 0 1-.836-.836v-3.526h-2v3.526a2.84 2.84 0 0 0 2.836 2.836h.154v2.834h2v-2.834h.154a2.84 2.84 0 0 0 2.836-2.836v-1.494c0-1.2-.527-2.332-1.445-3.104l-3.65-3.073a2.06 2.06 0 0 1-.732-1.576V9.58c0-.461.375-.836.836-.836h2.155c.461 0 .836.375.836.836v3.225z"/><path d="M14.875 29.75C6.673 29.75 0 23.077 0 14.875S6.673 0 14.875 0 29.75 6.673 29.75 14.875 23.077 29.75 14.875 29.75zm0-27.75C7.776 2 2 7.775 2 14.875S7.776 27.75 14.875 27.75 27.75 21.975 27.75 14.875 21.974 2 14.875 2z"/></g></svg></g></svg>