<svg xmlns="http://www.w3.org/2000/svg" viewBox="0 0 800 800" width="800" height="800"><g transform="translate(167.0 381.0) rotate(0.0 229.0 182.5) scale(8.275513154090778 8.240021672385769)"><svg width="55.344" height="44.296" viewBox="0 0 55.344 44.296"><path d="M55.344 21.015c0-11.441-11.17-20.716-24.95-20.716-9.239 0-17.3 4.172-21.612 10.369-.742 1.066-1.925 1.737-3.224 1.737H1.965v13l5.707 4.165c1.982 3.623 5.182 6.688 9.168 8.834.557.3.954.828 1.056 1.452l.583 3.6a1 1 0 0 0 .987.84h7.902a1 1 0 0 0 .987-.84l.008-.047c.159-.982 1.015-1.68 2.01-1.679h.022c1.942 0 3.83-.186 5.644-.536a1.997 1.997 0 0 1 2.362 1.636l.101.626a1 1 0 0 0 .987.84h7.902a1 1 0 0 0 .987-.84l1.454-8.973c.062-.384.241-.737.502-1.025 3.143-3.464 5.01-7.772 5.01-12.443z" fill="#93c3ff"/><ellipse cx="2.08" cy="18.905" fill="#bedbff" rx="2.08" ry="6.5"/><path d="M12.294 10.399 9.094.436c-.07-.218.081-.441.293-.436 4.739.124 8.974 3.309 10.743 8.078l.26.7c.072.195-.038.41-.229.445l-7.523 1.395c-.149.028-.294-.065-.344-.219z" fill="#2888ff"/><path d="M11.886 10.698 9.092.436c-.059-.218.06-.44.233-.432l.165.008c3.753.176 7.144 3.325 8.6 7.987l.284.908c.061.195-.026.409-.181.442z" fill="#bedbff"/><ellipse cx="20.368" cy="9.161" fill="#93c3ff" rx="10.323" ry="3.718" transform="matrix(.9529 -.3034 .3034 .9529 -1.8193 6.6107)"/><g fill="#2888ff"><path d="M40.334 5.379C34.632 1.981 28.582 1.557 21.84 4.083l-.351-.936C28.437.542 34.948 1.003 40.846 4.519z"/><ellipse cx="1.097" cy="18.732" rx=".561" ry="1.433"/><ellipse cx="2.923" cy="18.732" rx=".561" ry="1.433"/></g></svg></g><g transform="translate(228.0 104.0) rotate(60.31390998225321 80.5 44.0) scale(1.199755577745652 1.1963999238654595)"><svg width="134.194" height="73.554" viewBox="0 0 134.194 73.554"><path d="M0 0h134.194v73.554H0z" fill="#93c3ff"/><g fill="#bedbff"><path d="M67.097 7.277c10.936 0 19.833 13.234 19.833 29.5s-8.897 29.5-19.833 29.5-19.833-13.234-19.833-29.5 8.897-29.5 19.833-29.5m0-3c-12.611 0-22.833 14.551-22.833 32.5s10.223 32.5 22.833 32.5 22.833-14.551 22.833-32.5-10.222-32.5-22.833-32.5zm44.357 37.93c-2.994 0-5.43-2.437-5.43-5.431s2.436-5.43 5.43-5.43 5.43 2.436 5.43 5.43-2.435 5.431-5.43 5.431zm0-7.86c-1.34 0-2.43 1.09-2.43 2.43s1.09 2.431 2.43 2.431 2.43-1.091 2.43-2.431-1.09-2.43-2.43-2.43zm-88.714 7.86c-2.994 0-5.43-2.437-5.43-5.431s2.436-5.43 5.43-5.43 5.43 2.436 5.43 5.43-2.436 5.431-5.43 5.431zm0-7.86c-1.34 0-2.43 1.09-2.43 2.43s1.09 2.431 2.43 2.431 2.43-1.091 2.43-2.431-1.09-2.43-2.43-2.43z"/><path d="M126.141 7.277v59H8.053v-59zm3-3H5.053v65h124.088z"/><circle cx="8.984" cy="8.208" r="3.93"/><circle cx="8.984" cy="65.178" r="3.93"/><circle cx="124.984" cy="8.208" r="3.93"/><circle cx="124.984" cy="65.178" r="3.93"/><path d="M67.097 15.138c7.403 0 13.657 9.91 13.657 21.639S74.5 58.416 67.097 58.416 53.44 48.507 53.44 36.777s6.254-21.639 13.657-21.639m0-3c-9.2 0-16.657 11.031-16.657 24.639s7.458 24.639 16.657 24.639 16.657-11.031 16.657-24.639-7.457-24.639-16.657-24.639z"/></g></svg></g><g transform="translate(323.0 131.0) rotate(-25.049570813701262 48.5 46.5) scale(3.1890061478778313 3.1260504201680672)"><svg width="30.417" height="29.75" viewBox="0 0 30.417 29.75"><circle cx="14.875" cy="14.875" fill="#d2d3da" r="13.875"/><path d="M15.542 29.75C7.34 29.75.667 23.077.667 14.875S7.34 0 15.542 0s14.875 6.673 14.875 14.875S23.744 29.75 15.542 29.75zm0-27.75C8.442 2 2.667 7.775 2.667 14.875S8.442 27.75 15.542 27.75s12.875-5.775 12.875-12.875S22.641 2 15.542 2z" fill="#c6c8d0"/><path d="M14.875 29.75C6.673 29.75 0 23.077 0 14.875S6.673 0 14.875 0 29.75 6.673 29.75 14.875 23.077 29.75 14.875 29.75zm0-27.75C7.776 2 2 7.775 2 14.875S7.776 27.75 14.875 27.75 27.75 21.975 27.75 14.875 21.974 2 14.875 2z" fill="#dddee3"/><g fill="#c6c8d0"><path d="M10.352 12.204h6.884v2h-6.884zm0 3.342h6.884v2h-6.884z"/><path d="M17.301 23.557h-2.74a3.058 3.058 0 0 1-3.055-3.055V9.248a3.059 3.059 0 0 1 3.055-3.055h2.965a3.058 3.058 0 0 1 3.055 3.055v.442h-2v-.442c0-.582-.473-1.055-1.055-1.055h-2.965c-.582 0-1.055.473-1.055 1.055v11.255c0 .582.473 1.055 1.055 1.055h2.74c.582 0 1.055-.473 1.055-1.055v-1.557h2v1.557a3.057 3.057 0 0 1-3.055 3.054z"/></g><path d="M9.473 12.204h6.884v2H9.473zm0 3.342h6.884v2H9.473z" fill="#dddee3"/><path d="M16.423 23.557h-2.74a3.058 3.058 0 0 1-3.055-3.055V9.248a3.059 3.059 0 0 1 3.055-3.055h2.965a3.058 3.058 0 0 1 3.055 3.055v.442h-2v-.442c0-.582-.473-1.055-1.055-1.055h-2.965c-.582 0-1.055.473-1.055 1.055v11.255c0 .582.473 1.055 1.055 1.055h2.74c.582 0 1.055-.473 1.055-1.055v-1.557h2v1.557a3.058 3.058 0 0 1-3.055 3.054z" fill="#dddee3"/></svg></g><g transform="translate(339.0 194.0) rotate(111.66024956184953 92.0 50.0) scale(1.3711492317093166 1.3595453680289311)"><svg width="134.194" height="73.554" viewBox="0 0 134.194 73.554"><path d="M0 0h134.194v73.554H0z" fill="#93c3ff"/><g fill="#bedbff"><path d="M67.097 7.277c10.936 0 19.833 13.234 19.833 29.5s-8.897 29.5-19.833 29.5-19.833-13.234-19.833-29.5 8.897-29.5 19.833-29.5m0-3c-12.611 0-22.833 14.551-22.833 32.5s10.223 32.5 22.833 32.5 22.833-14.551 22.833-32.5-10.222-32.5-22.833-32.5zm44.357 37.93c-2.994 0-5.43-2.437-5.43-5.431s2.436-5.43 5.43-5.43 5.43 2.436 5.43 5.43-2.435 5.431-5.43 5.431zm0-7.86c-1.34 0-2.43 1.09-2.43 2.43s1.09 2.431 2.43 2.431 2.43-1.091 2.43-2.431-1.09-2.43-2.43-2.43zm-88.714 7.86c-2.994 0-5.43-2.437-5.43-5.431s2.436-5.43 5.43-5.43 5.43 2.436 5.43 5.43-2.436 5.431-5.43 5.431zm0-7.86c-1.34 0-2.43 1.09-2.43 2.43s1.09 2.431 2.43 2.431 2.43-1.091 2.43-2.431-1.09-2.43-2.43-2.43z"/><path d="M126.141 7.277v59H8.053v-59zm3-3H5.053v65h124.088z"/><circle cx="8.984" cy="8.208" r="3.93"/><circle cx="8.984" cy="65.178" r="3.93"/><circle cx="124.984" cy="8.208" r="3.93"/><circle cx="124.984" cy="65.178" r="3.93"/><path d="M67.097 15.138c7.403 0 13.657 9.91 13.657 21.639S74.5 58.416 67.097 58.416 53.44 48.507 53.44 36.777s6.254-21.639 13.657-21.639m0-3c-9.2 0-16.657 11.031-16.657 24.639s7.458 24.639 16.657 24.639 16.657-11.031 16.657-24.639-7.457-24.639-16.657-24.639z"/></g></svg></g><g transform="translate(397.0 279.0) rotate(34.443915859050634 64.5 62.0) scale(4.241049413157116 4.168067226890757)"><svg width="30.417" height="29.75" viewBox="0 0 30.417 29.75"><circle cx="14.875" cy="14.875" fill="#d2d3da" r="13.875"/><path d="M19.615 12.805V9.58a2.84 2.84 0 0 0-2.836-2.836h-.154v-2.68h-2v2.68h-.001a2.84 2.84 0 0 0-2.836 2.836v1.188c0 1.201.526 2.333 1.445 3.105l3.649 3.073c.465.393.733.967.733 1.575v1.494a.837.837 0 0 1-.836.836H14.47a.837.837 0 0 1-.836-.836v-3.526h-2v3.526a2.84 2.84 0 0 0 2.836 2.836h.154v2.834h2v-2.834h.154a2.84 2.84 0 0 0 2.836-2.836v-1.494c0-1.2-.527-2.332-1.445-3.104l-3.65-3.073a2.06 2.06 0 0 1-.732-1.576V9.58c0-.461.375-.836.836-.836h2.155c.461 0 .836.375.836.836v3.225z" fill="#c6c8d0"/><path d="M15.542 29.75C7.34 29.75.667 23.077.667 14.875S7.34 0 15.542 0s14.875 6.673 14.875 14.875S23.744 29.75 15.542 29.75zm0-27.75C8.442 2 2.667 7.775 2.667 14.875S8.442 27.75 15.542 27.75s12.875-5.775 12.875-12.875S22.641 2 15.542 2z" fill="#c6c8d0"/><g fill="#dddee3"><path d="M18.865 12.805V9.58a2.84 2.84 0 0 0-2.836-2.836h-.154v-2.68h-2v2.68h-.001a2.84 2.84 0 0 0-2.836 2.836v1.188c0 1.201.526 2.333 1.445 3.105l3.649 3.073c.465.393.733.967.733 1.575v1.494a.837.837 0 0 1-.836.836H13.72a.837.837 0 0 1-.836-.836v-3.526h-2v3.526a2.84 2.84 0 0 0 2.836 2.836h.154v2.834h2v-2.834h.154a2.84 2.84 0 0 0 2.836-2.836v-1.494c0-1.2-.527-2.332-1.445-3.104l-3.65-3.073a2.06 2.06 0 0 1-.732-1.576V9.58c0-.461.375-.836.836-.836h2.155c.461 0 .836.375.836.836v3.225z"/><path d="M14.875 29.75C6.673 29.75 0 23.077 0 14.875S6.673 0 14.875 0 29.75 6.673 29.75 14.875 23.077 29.75 14.875 29.75zm0-27.75C7.776 2 2 7.775 2 14.875S7.776 27.75 14.875 27.75 27.75 21.975 27.75 14.875 21.974 2 14.875 2z"/></g></svg></g><g transform="translate(264.0 264.0) rotate(39.65209488577219 62.0 25.0) scale(3.516134520501333 3.481409274474307)"><svg width="35.266" height="14.362" viewBox="0 0 35.266 14.362"><g fill="#bbbdc7"><path d="M0 5.975h1.049v2.691H0zm34.205-.188h1.049v2.582h-1.049z"/><path d="M14.395 14.295C4.838 13.805-1.484 10.747.302 7.479s11.013-5.528 20.569-5.038S36.75 5.989 34.964 9.258c-1.785 3.268-11.012 5.528-20.569 5.037z"/></g><path d="M33.809 6.823c-1.668 3.053-10.258 5.157-19.187 4.699S-.191 8.218 1.477 5.164 11.735.007 20.664.465 35.477 3.77 33.809 6.823z" fill="#d2d3da"/><path d="M14.395 12.515C4.839 12.024-1.484 8.966.302 5.698S11.314.17 20.871.66 36.75 4.209 34.964 7.477c-1.785 3.268-11.012 5.528-20.569 5.038zm6.041-11.058C12.164 1.033 4.177 2.989 2.632 5.818s3.927 5.476 12.198 5.9 16.258-1.531 17.804-4.36c1.546-2.83-3.927-5.476-12.198-5.901z" fill="#bbbdc7"/><path d="M14.395 11.921C4.839 11.431-1.484 8.373.302 5.105S11.315-.423 20.871.067 36.75 3.615 34.964 6.883c-1.785 3.269-11.012 5.529-20.569 5.038zM20.436.864C12.164.439 4.177 2.395 2.632 5.224s3.927 5.476 12.198 5.9 16.258-1.531 17.804-4.36-3.927-5.476-12.198-5.9z" fill="#dddee3"/></svg></g><g transform="translate(410.0 62.0) rotate(-51.01973602475173 38.0 15.5) scale(2.155050189984688 2.1584737501740703)"><svg width="35.266" height="14.362" viewBox="0 0 35.266 14.362"><g fill="#bbbdc7"><path d="M0 5.975h1.049v2.691H0zm34.205-.188h1.049v2.582h-1.049z"/><path d="M14.395 14.295C4.838 13.805-1.484 10.747.302 7.479s11.013-5.528 20.569-5.038S36.75 5.989 34.964 9.258c-1.785 3.268-11.012 5.528-20.569 5.037z"/></g><path d="M33.809 6.823c-1.668 3.053-10.258 5.157-19.187 4.699S-.191 8.218 1.477 5.164 11.735.007 20.664.465 35.477 3.77 33.809 6.823z" fill="#d2d3da"/><path d="M14.395 12.515C4.839 12.024-1.484 8.966.302 5.698S11.314.17 20.871.66 36.75 4.209 34.964 7.477c-1.785 3.268-11.012 5.528-20.569 5.038zm6.041-11.058C12.164 1.033 4.177 2.989 2.632 5.818s3.927 5.476 12.198 5.9 16.258-1.531 17.804-4.36c1.546-2.83-3.927-5.476-12.198-5.901z" fill="#bbbdc7"/><path d="M14.395 11.921C4.839 11.431-1.484 8.373.302 5.105S11.315-.423 20.871.067 36.75 3.615 34.964 6.883c-1.785 3.269-11.012 5.529-20.569 5.038zM20.436.864C12.164.439 4.177 2.395 2.632 5.224s3.927 5.476 12.198 5.9 16.258-1.531 17.804-4.36-3.927-5.476-12.198-5.9z" fill="#dddee3"/></svg></g></svg>