<svg xmlns="http://www.w3.org/2000/svg" viewBox="0 0 800 600" width="800" height="600"><g transform="translate(346.0 358.0) rotate(-13.76554928013023 190.0 40.5) scale(2.283887175973507 2.2090708266288486)"><svg width="166.383" height="36.667" viewBox="0 0 166.383 36.667"><path d="M98.428.03h19.165v15.333H98.428z" fill="#013b84"/><path d="m134.178 35.946 32.098-20.881V1.098l-32.098 20.881z" fill="#a6ceff"/><path d="M0 21.979h134.178v13.967H0z" fill="#68abff"/><path d="M134.194 22.009H0L46.973 1.121h119.41z" fill="#93c3ff"/><g fill="#bedbff"><path d="M103.155 2.98c9.838 0 11.598 3.488 3.563 7.976-8.46 4.725-24.47 8.758-35.274 8.758s-11.529-4.033-2.08-8.758c8.974-4.488 23.953-7.976 33.791-7.976m1.462-.771c-11.294 0-28.123 3.808-38.078 8.747-10.538 5.229-9.395 9.697 3.126 9.697s30.6-4.469 39.879-9.697c8.765-4.939 6.367-8.747-4.927-8.747zm22.621 10.297c-2.844 0-3.977-.699-2.539-1.55 1.425-.843 4.849-1.524 7.644-1.524 2.796 0 3.96.68 2.583 1.524-1.389.851-4.844 1.55-7.688 1.55zm3.713-2.235c-1.257 0-2.793.307-3.426.685-.636.38-.125.691 1.141.691 1.267 0 2.809-.311 3.436-.691.623-.379.106-.685-1.151-.685zM42.97 12.506c-2.844 0-3.65-.699-1.813-1.55 1.82-.843 5.562-1.524 8.357-1.524 2.796 0 3.642.68 1.87 1.524-1.788.851-5.57 1.55-8.414 1.55zm4.759-2.235c-1.257 0-2.937.307-3.747.685-.814.38-.448.691.819.691s2.955-.311 3.759-.691c.8-.379.426-.685-.831-.685z"/><path d="m156.273 2.98-26.499 16.734H13.115L50.037 2.98zm3.909-.771H49.053L8.065 20.653h123.201z"/><path d="M53.886 3.221c-1.23.564-3.828 1.024-5.796 1.024-1.967 0-2.54-.46-1.286-1.024 1.245-.56 3.825-1.012 5.769-1.012s2.535.451 1.313 1.012zM18.663 19.373c-1.474.676-4.424 1.228-6.578 1.228s-2.675-.552-1.173-1.228c1.492-.671 4.417-1.212 6.543-1.212s2.671.54 1.208 1.212zM158.391 3.221c-.885.564-3.202 1.024-5.169 1.024s-2.821-.46-1.913-1.024c.902-.56 3.206-1.012 5.15-1.012 1.943 0 2.811.451 1.932 1.012zM133.05 19.373c-1.061.676-3.673 1.228-5.827 1.228s-3.013-.552-1.924-1.228c1.081-.671 3.675-1.212 5.802-1.212s3.002.54 1.949 1.212zM99.262 5.035c6.74 0 7.582 2.662 1.641 5.921-6.166 3.383-17.659 6.342-24.878 6.342s-7.497-2.959-.844-6.342c6.41-3.259 17.341-5.921 24.081-5.921m1.497-.79c-8.338 0-20.928 2.941-28.403 6.711-7.805 3.936-7.08 7.257 1.935 7.257s22.324-3.32 29.437-7.257c6.812-3.77 5.369-6.711-2.969-6.711z"/></g><path d="M57.506 21.333h19.165v15.333H57.506z" fill="#013b84"/><path d="M58.589 21.333h1v15.333h-1zm15.916 0h1v15.333h-1z" fill="#016eea"/><path d="M117.671 0H98.506l-41 21.333h19.165z" fill="#1a4e90"/><path d="M100.589 0h-1l-41 21.333h1zm15.916 0h-1l-41 21.333h1z" fill="#2888ff"/></svg></g><g transform="translate(473.0 197.0) rotate(19.541580255921932 90.0 80.5) scale(4.584118575867163 4.537895656585586)"><svg width="39.266" height="35.479" viewBox="0 0 39.266 35.479"><g fill="#bbbdc7"><path d="M2 27.092h1.049v2.691H2zm34.205-.188h1.049v2.582h-1.049z"/><path d="M16.395 35.412c-9.557-.49-15.879-3.548-14.093-6.816s11.013-5.528 20.569-5.038c9.557.49 15.879 3.548 14.093 6.816s-11.012 5.529-20.569 5.038z"/></g><path d="M35.809 27.941c-1.668 3.053-10.258 5.157-19.187 4.699S1.809 29.335 3.477 26.281s10.258-5.157 19.187-4.699 14.813 3.305 13.145 6.359z" fill="#d2d3da"/><path d="M16.395 33.632c-9.557-.49-15.879-3.548-14.093-6.816s11.013-5.528 20.569-5.038 15.879 3.548 14.093 6.816-11.012 5.528-20.569 5.038zm6.041-11.058c-8.272-.424-16.258 1.531-17.804 4.36s3.927 5.476 12.198 5.9c8.272.424 16.258-1.531 17.804-4.36 1.546-2.828-3.927-5.475-12.198-5.9z" fill="#bbbdc7"/><path d="M16.395 33.038C6.838 32.548.516 29.49 2.302 26.222s11.013-5.528 20.569-5.038c9.557.49 15.879 3.548 14.093 6.816s-11.012 5.529-20.569 5.038zm6.041-11.057c-8.272-.424-16.258 1.531-17.804 4.36s3.927 5.476 12.198 5.9c8.272.424 16.258-1.531 17.804-4.36s-3.927-5.476-12.198-5.9z" fill="#dddee3"/><path d="M2 24.452h1.049v2.691H2zm34.205-.187h1.049v2.582h-1.049z" fill="#bbbdc7"/><path d="M16.395 32.773c-9.557-.49-15.879-3.548-14.093-6.816s11.013-5.528 20.569-5.038c9.557.49 15.879 3.548 14.093 6.816s-11.012 5.528-20.569 5.038z" fill="#bbbdc7"/><path d="M35.809 25.301C34.141 28.354 25.551 30.458 16.623 30S1.809 26.695 3.477 23.642s10.258-5.157 19.187-4.699 14.813 3.305 13.145 6.358z" fill="#d2d3da"/><path d="M16.395 30.992c-9.557-.49-15.879-3.548-14.093-6.816s11.013-5.528 20.569-5.038 15.879 3.548 14.093 6.816-11.012 5.529-20.569 5.038zm6.041-11.057c-8.272-.424-16.258 1.531-17.804 4.36s3.927 5.476 12.198 5.9 16.258-1.531 17.804-4.36-3.927-5.476-12.198-5.9z" fill="#bbbdc7"/><path d="M16.395 30.399c-9.557-.49-15.879-3.548-14.093-6.816s11.013-5.528 20.569-5.038c9.557.49 15.879 3.548 14.093 6.816s-11.012 5.528-20.569 5.038zm6.041-11.058c-8.272-.424-16.258 1.531-17.804 4.36s3.927 5.476 12.198 5.9c8.272.424 16.258-1.531 17.804-4.36s-3.927-5.475-12.198-5.9z" fill="#dddee3"/><path d="M2 21.813h1.049v2.691H2zm34.205-.188h1.049v2.582h-1.049z" fill="#bbbdc7"/><path d="M16.395 30.133c-9.557-.49-15.879-3.548-14.093-6.816s11.013-5.528 20.569-5.038 15.879 3.548 14.093 6.816-11.012 5.529-20.569 5.038z" fill="#bbbdc7"/><path d="M35.809 22.661c-1.668 3.053-10.258 5.157-19.187 4.699-8.928-.458-14.814-3.305-13.146-6.358s10.258-5.157 19.187-4.699 14.814 3.305 13.146 6.358z" fill="#d2d3da"/><path d="M16.395 28.353c-9.557-.49-15.879-3.548-14.093-6.816s11.013-5.528 20.569-5.038c9.557.49 15.879 3.548 14.093 6.816s-11.012 5.528-20.569 5.038zm6.041-11.058c-8.272-.424-16.258 1.531-17.804 4.36s3.927 5.476 12.198 5.9c8.272.424 16.258-1.531 17.804-4.36s-3.927-5.475-12.198-5.9z" fill="#bbbdc7"/><path d="M16.395 27.759c-9.557-.49-15.879-3.548-14.093-6.816s11.013-5.528 20.569-5.038c9.557.49 15.879 3.548 14.093 6.816s-11.012 5.528-20.569 5.038zm6.041-11.057c-8.272-.424-16.258 1.531-17.804 4.36s3.927 5.476 12.198 5.9c8.272.424 16.258-1.531 17.804-4.36s-3.927-5.476-12.198-5.9z" fill="#dddee3"/><path d="M2 19.173h1.049v2.691H2zm34.205-.188h1.049v2.582h-1.049z" fill="#bbbdc7"/><path d="M16.395 27.493c-9.557-.49-15.879-3.548-14.093-6.816s11.013-5.528 20.569-5.038c9.557.49 15.879 3.548 14.093 6.816s-11.012 5.529-20.569 5.038z" fill="#bbbdc7"/><path d="M35.809 20.022c-1.668 3.053-10.258 5.157-19.187 4.699-8.928-.458-14.814-3.305-13.146-6.358s10.258-5.157 19.187-4.699 14.814 3.304 13.146 6.358z" fill="#d2d3da"/><path d="M16.395 25.713c-9.557-.49-15.879-3.548-14.093-6.816s11.013-5.528 20.569-5.038c9.557.49 15.879 3.548 14.093 6.816s-11.012 5.528-20.569 5.038zm6.041-11.057c-8.272-.424-16.258 1.531-17.804 4.36s3.927 5.476 12.198 5.9c8.272.424 16.258-1.531 17.804-4.36s-3.927-5.476-12.198-5.9z" fill="#bbbdc7"/><path d="M16.395 25.119c-9.557-.49-15.879-3.548-14.093-6.816s11.013-5.528 20.569-5.038c9.557.49 15.879 3.548 14.093 6.816s-11.012 5.529-20.569 5.038zm6.041-11.057c-8.272-.424-16.258 1.531-17.804 4.36s3.927 5.476 12.198 5.9c8.272.424 16.258-1.531 17.804-4.36s-3.927-5.476-12.198-5.9z" fill="#dddee3"/><path d="M0 16.533h1.049v2.691H0zm34.205-.187h1.049v2.582h-1.049z" fill="#bbbdc7"/><path d="M14.395 24.854c-9.557-.49-15.879-3.548-14.093-6.816S11.314 12.509 20.871 13c9.557.49 15.879 3.548 14.093 6.816s-11.012 5.528-20.569 5.038z" fill="#bbbdc7"/><path d="M33.809 17.382c-1.668 3.053-10.258 5.157-19.187 4.699-8.928-.458-14.814-3.305-13.146-6.358s10.258-5.157 19.187-4.699 14.814 3.305 13.146 6.358z" fill="#d2d3da"/><path d="M14.395 23.073c-9.557-.49-15.879-3.548-14.093-6.816s11.013-5.528 20.569-5.038 15.879 3.548 14.093 6.816-11.012 5.529-20.569 5.038zm6.041-11.057c-8.272-.424-16.258 1.531-17.804 4.36s3.927 5.476 12.198 5.9c8.272.424 16.258-1.531 17.804-4.36s-3.927-5.476-12.198-5.9z" fill="#bbbdc7"/><path d="M14.395 22.48C4.838 21.99-1.484 18.932.302 15.664s11.013-5.528 20.569-5.038 15.879 3.548 14.093 6.816-11.012 5.528-20.569 5.038zm6.041-11.058c-8.272-.424-16.258 1.531-17.804 4.36s3.927 5.476 12.198 5.9c8.272.424 16.258-1.531 17.804-4.36s-3.927-5.475-12.198-5.9z" fill="#dddee3"/><path d="M2 13.894h1.049v2.691H2zm34.205-.188h1.049v2.582h-1.049z" fill="#bbbdc7"/><path d="M16.395 22.214c-9.557-.49-15.879-3.548-14.093-6.816S13.314 9.87 22.871 10.36s15.879 3.548 14.093 6.816-11.012 5.529-20.569 5.038z" fill="#bbbdc7"/><path d="M35.809 14.742c-1.668 3.053-10.258 5.157-19.187 4.699-8.928-.458-14.814-3.305-13.146-6.358s10.258-5.157 19.187-4.699 14.814 3.305 13.146 6.358z" fill="#d2d3da"/><path d="M16.395 20.434c-9.557-.49-15.879-3.548-14.093-6.816S13.315 8.09 22.871 8.58c9.557.49 15.879 3.548 14.093 6.816s-11.012 5.528-20.569 5.038zm6.041-11.058c-8.272-.424-16.258 1.531-17.804 4.36s3.927 5.476 12.198 5.9c8.272.424 16.258-1.531 17.804-4.36s-3.927-5.475-12.198-5.9z" fill="#bbbdc7"/><path d="M16.395 19.84C6.838 19.35.516 16.292 2.302 13.024s11.013-5.528 20.569-5.038 15.879 3.548 14.093 6.816-11.012 5.528-20.569 5.038zm6.041-11.057c-8.272-.424-16.258 1.531-17.804 4.36s3.927 5.476 12.198 5.9 16.258-1.531 17.804-4.36-3.927-5.476-12.198-5.9z" fill="#dddee3"/><path d="M2 11.254h1.049v2.691H2zm34.205-.187h1.049v2.582h-1.049z" fill="#bbbdc7"/><path d="M16.395 19.575c-9.557-.49-15.879-3.548-14.093-6.816S13.314 7.23 22.871 7.72s15.879 3.548 14.093 6.816-11.012 5.529-20.569 5.039z" fill="#bbbdc7"/><path d="M35.809 12.103c-1.668 3.053-10.258 5.157-19.187 4.699-8.928-.458-14.814-3.305-13.146-6.358s10.258-5.157 19.187-4.699 14.814 3.304 13.146 6.358z" fill="#d2d3da"/><path d="M16.395 17.794c-9.557-.49-15.879-3.548-14.093-6.816S13.314 5.449 22.871 5.94s15.879 3.548 14.093 6.816-11.012 5.528-20.569 5.038zm6.041-11.057c-8.272-.424-16.258 1.531-17.804 4.36s3.927 5.476 12.198 5.9c8.272.424 16.258-1.531 17.804-4.36s-3.927-5.476-12.198-5.9z" fill="#bbbdc7"/><path d="M16.395 17.2C6.838 16.71.516 13.652 2.302 10.384s11.013-5.528 20.569-5.038 15.879 3.548 14.093 6.816-11.012 5.529-20.569 5.038zm6.041-11.057c-8.272-.424-16.258 1.531-17.804 4.36s3.927 5.476 12.198 5.9c8.272.424 16.258-1.531 17.804-4.36s-3.927-5.475-12.198-5.9z" fill="#dddee3"/><path d="M2 8.614h1.049v2.691H2zm34.205-.187h1.049v2.582h-1.049z" fill="#bbbdc7"/><path d="M16.395 16.935c-9.557-.49-15.879-3.548-14.093-6.816S13.314 4.59 22.871 5.081s15.879 3.548 14.093 6.816-11.012 5.528-20.569 5.038z" fill="#bbbdc7"/><path d="M35.809 9.463c-1.668 3.053-10.258 5.157-19.187 4.699-8.928-.458-14.813-3.305-13.145-6.358s10.258-5.157 19.187-4.699S37.477 6.41 35.809 9.463z" fill="#d2d3da"/><path d="M16.395 15.154C6.838 14.664.516 11.606 2.302 8.338S13.314 2.81 22.871 3.3s15.879 3.548 14.093 6.816-11.012 5.529-20.569 5.038zm6.041-11.057c-8.272-.424-16.259 1.531-17.804 4.36s3.927 5.476 12.198 5.9c8.272.424 16.258-1.531 17.804-4.36s-3.927-5.476-12.198-5.9z" fill="#bbbdc7"/><path d="M16.395 14.561C6.839 14.07.516 11.013 2.302 7.744s11.013-5.528 20.569-5.038S38.75 6.255 36.964 9.523s-11.012 5.528-20.569 5.038zm6.041-11.058C14.164 3.079 6.177 5.035 4.632 7.864s3.927 5.476 12.198 5.9c8.272.424 16.258-1.531 17.804-4.36s-3.927-5.476-12.198-5.901z" fill="#dddee3"/><path d="M4 5.975h1.049v2.691H4zm34.205-.188h1.049v2.582h-1.049z" fill="#bbbdc7"/><path d="M18.395 14.295c-9.557-.49-15.879-3.548-14.093-6.816s11.013-5.528 20.569-5.038S40.75 5.989 38.964 9.258s-11.012 5.528-20.569 5.037z" fill="#bbbdc7"/><path d="M37.809 6.823c-1.668 3.053-10.258 5.157-19.187 4.699S3.809 8.218 5.477 5.164 15.735.007 24.664.465 39.477 3.77 37.809 6.823z" fill="#d2d3da"/><path d="M18.395 12.515C8.839 12.024 2.516 8.966 4.302 5.698S15.314.17 24.871.66 40.75 4.209 38.964 7.477s-11.012 5.528-20.569 5.038zm6.041-11.058C16.164 1.033 8.177 2.989 6.632 5.818s3.927 5.476 12.198 5.9 16.258-1.531 17.804-4.36c1.546-2.83-3.927-5.476-12.198-5.901z" fill="#bbbdc7"/><path d="M18.395 11.921c-9.556-.49-15.879-3.548-14.093-6.816S15.315-.423 24.871.067 40.75 3.615 38.964 6.883s-11.012 5.529-20.569 5.038zM24.436.864C16.164.439 8.177 2.395 6.632 5.224s3.927 5.476 12.198 5.9 16.258-1.531 17.804-4.36-3.927-5.476-12.198-5.9z" fill="#dddee3"/></svg></g><g transform="translate(132.0 106.0) rotate(28.344320175739583 133.0 84.0) scale(1.4571350314982197 1.458966565349544)"><svg width="182.55" height="115.15" viewBox="0 0 182.55 115.15"><path d="M182.55 8v99.15c0 4.42-3.58 8-8 8H8c-4.42 0-8-3.58-8-8V8c0-4.42 3.58-8 8-8h166.55c4.42 0 8 3.58 8 8z" fill="#063f86"/><circle cx="164.773" cy="90.92" fill="#2888ff" r="12.362"/><circle cx="149.871" cy="90.92" fill="#016eea" r="12.362"/><path d="M50.499 104.827H25.711a2 2 0 0 1-2-2v-5.822a2 2 0 0 1 2-2h24.788a2 2 0 0 1 2 2v5.822a2 2 0 0 1-2 2zm50.667 0H62.711a2 2 0 0 1-2-2v-5.822a2 2 0 0 1 2-2h38.455a2 2 0 0 1 2 2v5.822a2 2 0 0 1-2 2z" fill="#93c3ff"/><path d="M0 12.065v38.108c6.42-3.748 15.64-7.718 26.72-8.463 22-1.471 40.33 19.915 70 12.232 14.75-3.81 22.17-6.318 28.35-7.692h.01c6.04-1.338 10.91-1.595 20.3-.939h.01c.33.018.66.044 1 .071 15.39 1.134 28.61 6.114 36.16 11.582v-9.739a79.666 79.666 0 0 0-8.03-2.144c-.01-.009-.03-.009-.04-.009-6.73-1.444-14.88-2.428-24.76-2.65-45.75-1.028-56.29-5.84-72.69-12.902h-.01c-2.47-1.063-5.08-2.18-7.97-3.341-22-8.861-30.66-15.658-43.66-17.723C18.01 7.288 7.61 9.734 0 12.065z" fill="#2888ff" opacity=".1"/><path d="M46.316 58.341H25.711a2 2 0 0 1-2-2V41.966a2 2 0 0 1 2-2h20.605a2 2 0 0 1 2 2V56.34a2 2 0 0 1-2 2.001z" fill="#a5a7b5"/><path d="M23.711 45.079h24.605v8.149H23.711z" fill="#c6c8d0"/><path d="M31.055 42.662h9.917v12.983h-9.917z" fill="#d6d7dd"/><g fill="#93c3ff"><path d="M50.499 73.494H25.711a2 2 0 0 1-2-2v-5.822a2 2 0 0 1 2-2h24.788a2 2 0 0 1 2 2v5.822a2 2 0 0 1-2 2zm33.868 0H59.579a2 2 0 0 1-2-2v-5.822a2 2 0 0 1 2-2h24.788a2 2 0 0 1 2 2v5.822a2 2 0 0 1-2 2zm33.869 0H93.448a2 2 0 0 1-2-2v-5.822a2 2 0 0 1 2-2h24.788a2 2 0 0 1 2 2v5.822a2 2 0 0 1-2 2zm33.868 0h-24.788a2 2 0 0 1-2-2v-5.822a2 2 0 0 1 2-2h24.788a2 2 0 0 1 2 2v5.822a2 2 0 0 1-2 2z"/></g></svg></g><g transform="translate(95.0 267.0) rotate(-17.654980205977555 128.0 112.5) scale(1.2307692307692308 1.2295081967213115)"><svg width="208" height="183" viewBox="0 0 208 183"><g fill="#e8e9ec"><path d="M9.5 183h-1v-79h1zm0-91h-1V82h1zm0-22h-1V0h1zm47 108h-1v-12h1zm0-22h-1v-12h1zm0-42h-1V64h1zm0-62h-1V42h1zm0-22h-1V0h1zm46-30h1v183h-1zm48 183h-1v-79h1zm0-91h-1V82h1zm0-22h-1V0h1zm47 113h-1v-30h1zm0-42h-1v-10h1zm0-22h-1V69h1zm0-80h-1V27h1zm0-22h-1V5h1z"/><path d="M138 28.5h-30v-1h30zm-42 0H86v-1h10zm-22 0H24v-1h50zm-74 46h208v1H0zm208 48h-70v-1h70zm-82 0h-10v-1h10zm-22 0H24v-1h80zm74 47h-12v-1h12zm-22 0h-12v-1h12zm-42 0H64v-1h50zm-62 0H42v-1h10zm-22 0H0v-1h30z"/></g><path d="m7.929 127.771-1.858-3.542 63.252-33.182 2.983 11.931 9.155-26.55 14.786 23.234 12.84-14.816 23.265 30.05 27.599-76.665 12.228 32.237 18.16-6.356 1.322 3.776-21.84 7.644-9.772-25.763-26.401 73.335-24.735-31.95-13.16 15.184-13.214-20.766-10.845 31.45-5.017-20.069z" fill="#2888ff"/></svg></g><g transform="translate(293.0 78.0) rotate(0.0 121.5 224.0) scale(1.2272727272727273 1.2240437158469946)"><svg width="198" height="366" viewBox="0 0 198 366"><path d="M20.5 361.5h157c8.837 0 16-7.163 16-16v-325c0-8.837-7.163-16-16-16h-157c-8.837 0-16 7.163-16 16v325c0 8.836 7.163 16 16 16z" fill="#BEDBFF"/><g fill="#016EEA"><path d="M177.5 366h-157C9.196 366 0 356.804 0 345.5v-325C0 9.196 9.196 0 20.5 0h157C188.804 0 198 9.196 198 20.5v325c0 11.304-9.196 20.5-20.5 20.5zM20.5 9C14.159 9 9 14.159 9 20.5v325c0 6.341 5.159 11.5 11.5 11.5h157c6.341 0 11.5-5.159 11.5-11.5v-325c0-6.341-5.159-11.5-11.5-11.5z"/><path d="M99 2.228H58.683l3.15 6.719h14.43c4.554 0 9.002 1.369 12.768 3.93l3.798 2.582a10.976 10.976 0 0 0 12.344 0l3.798-2.582a22.704 22.704 0 0 1 12.768-3.93h14.43l3.15-6.719z"/></g></svg></g><g transform="translate(356.0 179.0) rotate(0.0 57.0 39.5) scale(1.4193403802338176 1.3950695768877588)"><svg width="80.319" height="56.628" viewBox="0 0 80.319 56.628"><path d="M0 29.47h12.135v27.158H0zm17.046 0h12.135v27.158H17.046z" fill="#013b84"/><path d="M34.092 24.847h12.135v31.781H34.092zm17.046-13.29h12.135v45.071H51.138z" fill="#2888ff"/><path d="M68.184 0h12.135v56.628H68.184z" fill="#93c3ff"/></svg></g><g transform="translate(360.0 319.0) rotate(0.0 50.5 52.5) scale(1.4815901422913305 1.496365968362548)"><svg width="68.17" height="70.17" viewBox="0 0 68.17 70.17"><path d="M12.623 60.987c5.788 5.678 13.716 9.183 22.466 9.183 17.637 0 31.947-14.237 32.075-31.852H35.292zM33.186.002 33.089 0C24.268 0 16.281 3.56 10.48 9.318l22.705 22.705V.002z" fill="#76b3ff"/><path d="M36.186 3.002v32.02l-.016.295h31.994c.001-.079.006-.158.006-.237 0-17.683-14.312-32.025-31.984-32.078z" fill="#2888ff"/><path d="M32.186 36.023 9.481 13.318C3.626 19.13 0 27.181 0 36.081c0 8.974 3.686 17.083 9.623 22.906l22.743-22.743z" fill="#edeef0"/></svg></g></svg>