<svg xmlns="http://www.w3.org/2000/svg"  viewBox="0 0 512 512" width="64px" height="64px"><path fill="#463C4B" d="M336,112c-8.836,0-16-7.163-16-16s7.164-16,16-16c8.822,0,16-7.178,16-16s-7.178-16-16-16 c-8.836,0-16-7.163-16-16s7.164-16,16-16c26.467,0,48,21.532,48,48S362.467,112,336,112z"/><path fill="#463C4B" d="M144,112c-8.836,0-16-7.163-16-16s7.164-16,16-16c8.822,0,16-7.178,16-16s-7.178-16-16-16 c-8.836,0-16-7.163-16-16s7.164-16,16-16c26.467,0,48,21.532,48,48S170.467,112,144,112z"/><path fill="#A5C3DC" d="M448,432H64c-17.673,0-32-14.327-32-32V128h448v272C480,417.673,465.673,432,448,432z"/><path fill="#D7E6F0" d="M400,432H64c-17.673,0-32-14.327-32-32V128h400v272C432,417.673,417.673,432,400,432z"/><path fill="#23AAE6" d="M448,64H64c-17.673,0-32,14.327-32,32v32h448V96C480,78.327,465.673,64,448,64z"/><path fill="#5AD7FF" d="M400,64H64c-17.673,0-32,14.327-32,32v32h400V96C432,78.327,417.673,64,400,64z"/><path fill="#555A6E" d="M144,112c-26.467,0-48-21.532-48-48s21.533-48,48-48c8.836,0,16,7.163,16,16s-7.164,16-16,16 c-8.822,0-16,7.178-16,16s7.178,16,16,16c8.836,0,16,7.163,16,16S152.836,112,144,112z"/><path fill="#555A6E" d="M336,112c-26.467,0-48-21.532-48-48s21.533-48,48-48c8.836,0,16,7.163,16,16s-7.164,16-16,16 c-8.822,0-16,7.178-16,16s7.178,16,16,16c8.836,0,16,7.163,16,16S344.836,112,336,112z"/><g><path fill="#E1322D" d="M366.782,377.877C364.306,371.898,358.471,368,352,368h-32V176c0-8.837-7.164-16-16-16H160 c-8.836,0-16,7.163-16,16v192h-32c-6.471,0-12.306,3.898-14.782,9.877s-1.107,12.86,3.469,17.437l96,96 c3,3.001,7.07,4.687,11.313,4.687h48c4.244,0,8.313-1.686,11.313-4.687l96-96C367.89,390.737,369.259,383.855,366.782,377.877z"/><path fill="#F04B37" d="M318.782,377.877C316.306,371.898,310.471,368,304,368h-32V176c0-8.837-7.164-16-16-16h-96 c-8.836,0-16,7.163-16,16v192h-32c-6.471,0-12.306,3.898-14.782,9.877s-1.107,12.86,3.469,17.437l96,96 C199.811,494.438,203.905,496,208,496s8.189-1.563,11.313-4.687l96-96C319.89,390.737,321.259,383.855,318.782,377.877z"/></g><path fill="#D7E6F0" d="M216,272h-16c-8.822,0-16-7.178-16-16v-8c0-8.822,7.178-16,16-16h16c8.822,0,16,7.178,16,16 c0,4.418,3.582,8,8,8s8-3.582,8-8c0-17.645-14.355-32-32-32v-16c0-4.418-3.582-8-8-8s-8,3.582-8,8v16c-17.645,0-32,14.355-32,32v8 c0,17.645,14.355,32,32,32h16c8.822,0,16,7.178,16,16v8c0,8.822-7.178,16-16,16h-16c-8.822,0-16-7.178-16-16c0-4.418-3.582-8-8-8 s-8,3.582-8,8c0,17.645,14.355,32,32,32v16c0,4.418,3.582,8,8,8s8-3.582,8-8v-16c17.645,0,32-14.355,32-32v-8 C248,286.355,233.645,272,216,272z"/></svg>