<svg xmlns="http://www.w3.org/2000/svg"  viewBox="0 0 64 64" width="64px" height="64px"><linearGradient id="Ayrsa0gC3P5cYYxh8NZLaa" x1="32" x2="32" y1="24" y2="47.001" gradientUnits="userSpaceOnUse" spreadMethod="reflect"><stop offset="0" stop-color="#6dc7ff"/><stop offset="1" stop-color="#e6abff"/></linearGradient><path fill="url(#Ayrsa0gC3P5cYYxh8NZLaa)" d="M29,28h9v-2h-5v-2h-2v2h-2c-1.654,0-3,1.346-3,3v4c0,1.654,1.346,3,3,3h6c0.552,0,1,0.448,1,1 v4c0,0.552-0.448,1-1,1h-9v2h5v2h2v-2h2c1.654,0,3-1.346,3-3v-4c0-1.654-1.346-3-3-3h-6c-0.552,0-1-0.448-1-1v-4 C28,28.448,28.448,28,29,28z"/><linearGradient id="Ayrsa0gC3P5cYYxh8NZLab" x1="32" x2="32" y1="4.5" y2="60.064" gradientUnits="userSpaceOnUse" spreadMethod="reflect"><stop offset="0" stop-color="#1a6dff"/><stop offset="1" stop-color="#c822ff"/></linearGradient><path fill="url(#Ayrsa0gC3P5cYYxh8NZLab)" d="M51,16.056V16h-0.04c-1.604-2.333-3.627-4.356-5.96-5.96V10h-0.055 C41.254,7.478,36.797,6,32,6c-7.861,0-14.811,3.966-18.96,10H13v0.056C10.478,19.746,9,24.203,9,29v6c0,12.683,10.317,23,23,23 s23-10.317,23-23v-6C55,24.203,53.522,19.746,51,16.056z M49,16.721v2.804c-1.208-1.326-2.57-2.509-4.055-3.524H45v-3.46 C46.519,13.742,47.862,15.15,49,16.721z M21,14.806v-3.661c1.253-0.775,2.591-1.42,4-1.92v3.868 C23.604,13.54,22.266,14.114,21,14.806z M27,8.627c1.292-0.317,2.628-0.511,4-0.576v3.975c-1.368,0.059-2.704,0.24-4,0.528V8.627z M33,8.051c1.372,0.065,2.708,0.259,4,0.576v3.927c-1.296-0.289-2.632-0.47-4-0.528V8.051z M39,9.225c1.409,0.5,2.747,1.146,4,1.92 v3.661c-1.266-0.692-2.604-1.267-4-1.713V9.225z M19,12.54v3.5c-1.464,1.006-2.807,2.175-4,3.485v-2.804 C16.138,15.15,17.481,13.742,19,12.54z M13,20.114V22h0.04c-0.59,0.857-1.12,1.757-1.591,2.692 C11.784,23.089,12.32,21.562,13,20.114z M32,56c-11.579,0-21-9.421-21-21s9.421-21,21-21s21,9.421,21,21S43.579,56,32,56z M50.96,22 H51v-1.886c0.68,1.448,1.216,2.975,1.552,4.578C52.081,23.757,51.55,22.857,50.96,22z"/><linearGradient id="Ayrsa0gC3P5cYYxh8NZLac" x1="32" x2="32" y1="4.5" y2="60.064" gradientUnits="userSpaceOnUse" spreadMethod="reflect"><stop offset="0" stop-color="#1a6dff"/><stop offset="1" stop-color="#c822ff"/></linearGradient><path fill="url(#Ayrsa0gC3P5cYYxh8NZLac)" d="M32,16c-10.477,0-19,8.523-19,19s8.523,19,19,19s19-8.523,19-19S42.477,16,32,16z M32,52 c-9.374,0-17-7.626-17-17s7.626-17,17-17s17,7.626,17,17S41.374,52,32,52z"/></svg>